<svg xmlns="http://www.w3.org/2000/svg" xmlns:xlink="http://www.w3.org/1999/xlink" width="278" height="257.737" viewBox="0 0 278 257.737">
  <defs>
    <linearGradient id="linear-gradient" x1="0.5" y1="1" x2="0.5" gradientUnits="objectBoundingBox">
      <stop offset="0" stop-color="gray" stop-opacity="0.251"/>
      <stop offset="0.54" stop-color="gray" stop-opacity="0.122"/>
      <stop offset="1" stop-color="gray" stop-opacity="0.102"/>
    </linearGradient>
    <linearGradient id="linear-gradient-2" x1="0.507" y1="1.003" x2="0.507" y2="0" xlink:href="#linear-gradient"/>
  </defs>
  <g id="undraw_super_thank_you_obwk" transform="translate(0.003 -0.18)">
    <ellipse id="Elipse_101" data-name="Elipse 101" cx="67.158" cy="5.136" rx="67.158" ry="5.136" transform="translate(82.229 247.645)" fill="#505050"/>
    <path id="Caminho_590" data-name="Caminho 590" d="M228.179,86.133c9.415-8.4,24.227-10.117,37.706-9.439,42.329,2.1,80.543,22.539,113.59,45.655,11.963,8.37,23.745,17.388,31.514,28.911,15.811,23.459,11.119,55.96-10.867,75.285-7.481,6.575-16.546,11.617-25.855,16.1-16.553,7.945-34.414,14.323-53.2,16.136-13.4,1.3-26.961.243-40.279-1.564-37.205-5.066-73.73-16.209-104.345-35.319-13.427-8.373-26.083-18.782-31.617-32.331s-1.992-30.712,11.717-38.73c5.67-3.317,12.452-4.814,19.089-6.22,9.771-2.071,19.7-4.112,28.516-8.319,9.111-4.349,19.887-12.756,18.086-22.375C220.3,103.6,218.764,94.528,228.179,86.133Z" transform="translate(-142.33 -60.96)" fill="#fff"/>
    <path id="Caminho_592" data-name="Caminho 592" d="M560.628,47.891v.544a3.505,3.505,0,0,1-.021.468V49c0,.131-.015.261-.027.389V49.5a.42.42,0,0,1,0,.061,3.506,3.506,0,0,1-.03.355c-.012.118-.021.188-.03.285-.027.234-.058.468-.094.7-.021.155-.046.3-.07.462a.133.133,0,0,0,0,.033c-.015.076-.027.152-.043.231s-.015.088-.024.134a.333.333,0,0,1-.024.121,1.557,1.557,0,0,0-.049.243c-.018.079-.033.161-.052.243s-.024.118-.039.179-.046.2-.07.3a.038.038,0,0,0,0,.018l-.055.21-.064.255c-.027.1-.058.207-.085.3a.105.105,0,0,1-.024.082l-.091.3c-.1.322-.2.644-.3.963l-.109.3-.064.167a21.56,21.56,0,0,1-2.961,5.321c-.073.1-.152.2-.228.3a22.688,22.688,0,0,1-1.868,2.126L523.147,94.269,492.095,63.211a21.994,21.994,0,0,1-2.43-2.891A21.252,21.252,0,0,1,488.4,58.3a21.974,21.974,0,0,1-2.655-12.486c.033-.4.079-.8.134-1.191.1-.7.231-1.394.395-2.083.033-.14.07-.279.106-.416.018-.07.036-.143.055-.21s.021-.085.033-.128l.091-.3h0c.073-.24.146-.48.225-.72l.112-.328c.164-.465.34-.911.535-1.379l.118-.27c.061-.137.121-.273.185-.41.1-.219.21-.437.3-.653l.027-.049h0c.049-.1.1-.194.152-.3l.179-.331c.076-.137.155-.273.234-.41.036-.064.076-.128.112-.194s.046-.07.067-.109a.13.13,0,0,0,0-.021h0c.049-.079.1-.158.149-.237s.112-.179.17-.267c.128-.2.258-.395.392-.589l.143-.2.179-.246c.061-.088.125-.173.191-.258l.231-.3c.073-.088.143-.179.213-.267l.076-.091.155-.188c.079-.1.161-.191.243-.285l.106-.125.018-.021.185-.207.207-.228c.194-.21.395-.419.607-.607l.24-.237.374-.352c.082-.076.164-.152.249-.225s.194-.176.3-.261l.194-.164c.064-.058.131-.112.194-.164a4.909,4.909,0,0,1,.395-.3l.2-.158c.334-.255.671-.5,1.017-.738l.207-.14.21-.137.2-.128.3-.182.146-.088.213-.125c.285-.167.571-.328.859-.48l.173-.091.267-.137.222-.109.222-.1.222-.106.225-.1.225-.1c.3-.131.607-.252.911-.367l.2-.121.243-.088.216-.076.182-.061.419-.134.216-.067.173-.049.17-.049q.152-.046.3-.082l.4-.1c.413-.1.829-.191,1.245-.267l.17-.03.237-.039.243-.039.3-.046.179-.024c.4-.052.8-.094,1.215-.125h2.822a1.75,1.75,0,0,1,.3.018h.207c.322.024.644.058.963.094l.431.058.3.043.24.039.24.039.158.027q.623.115,1.239.264l.5.131.14.039.216.061c.14.039.279.079.416.125l.182.058q.456.14.911.3l.207.076.27.1.407.164c.158.067.3.134.465.2l.182.079.249.118.222.1.219.109.276.14.219.115c.17.091.34.182.507.279l.213.121c.249.143.492.3.735.446l.2.128.21.137.207.14h0l.137.094c.3.2.58.416.866.635l.2.158c.131.1.264.21.395.3.064.052.131.106.194.164l.194.164.3.261c.085.073.167.149.249.225l.349.371.24.237.243-.237.37-.352c.082-.076.164-.152.249-.225s.194-.176.3-.261l.194-.164c.064-.058.131-.112.194-.164a4.922,4.922,0,0,1,.395-.3l.2-.158c.334-.255.671-.5,1.017-.738l.206-.14.21-.137.2-.128.289-.182.146-.088.213-.125c.285-.167.571-.328.86-.48l.173-.091.267-.137.222-.109.222-.1.222-.106.225-.1.225-.1c.3-.131.607-.252.911-.367.073-.027.149-.058.225-.082l.24-.088.219-.076.179-.061.419-.134.216-.067.173-.049.17-.049c.1-.03.2-.058.3-.082l.4-.1c.413-.1.829-.191,1.245-.267l.17-.03.237-.039.243-.039.3-.046.179-.024c.4-.052.8-.094,1.215-.125h2.794a1.752,1.752,0,0,1,.3.018h.207c.322.024.644.058.963.094l.431.058.3.043.24.039.24.039.158.027q.623.115,1.239.264l.5.131.14.039.216.061c.14.039.279.079.419.125l.179.058c.3.094.607.2.911.3l.2.076.27.1.407.164c.158.067.3.134.465.2l.182.079.249.118.222.1.219.109.276.14.222.115c.167.091.337.182.5.279l.213.121c.249.143.5.3.735.446l.2.128.21.137.207.14h.015l.137.094c.3.2.58.416.866.635l.2.158c.131.1.264.21.395.3.064.052.131.106.194.164l.194.164.252.225c.085.076.17.152.252.231l.143.131h0a.143.143,0,0,1,.021.021c.082.073.161.152.243.228l.109.106c.043.046.085.088.131.131l.24.246c.122.125.243.252.361.383.07.073.14.149.207.225.115.128.228.255.34.386l.358.428c.41.5.793,1.02,1.154,1.549l.146.222c.055.079.1.158.155.237l.131.2c.073.118.146.234.216.352l.191.328c.039.067.079.134.115.2l.088.158.088.158.128.24.125.24q.428.838.778,1.71l.1.246c.094.24.182.477.267.72l.076.219c.033.1.07.207.1.3s.061.185.088.279l.055.176c.027.085.052.17.076.255s.058.21.088.3c.045.17.088.34.131.513l.064.267c.03.128.058.255.085.383a.783.783,0,0,0,.033.164c.012.055.03.146.043.219s.024.115.033.173l.027.146a.273.273,0,0,0,.024.137c.024.046,0,.088.021.134l.046.273a1.693,1.693,0,0,0,.039.273c.015.091.027.2.039.3s.024.194.033.3l.018.167c0,.1.021.2.03.3v.149c0,.1.018.207.024.3a.046.046,0,0,1,0,.021v.392a2.38,2.38,0,0,0,.015.328h0v.337A3.886,3.886,0,0,1,560.628,47.891Z" transform="translate(-381.392 -25.61)" fill="#ff3940"/>
    <path id="Caminho_593" data-name="Caminho 593" d="M562.009,47.891v.544a3.515,3.515,0,0,1-.021.468V49c0,.131-.015.261-.027.389V49.5a.429.429,0,0,1,0,.061,3.506,3.506,0,0,1-.03.355c-.012.118-.021.188-.03.285-.027.234-.058.468-.094.7-.021.155-.046.3-.07.462a.13.13,0,0,0,0,.033c-.015.076-.027.152-.043.231s-.015.088-.024.134a.334.334,0,0,1-.024.121,1.538,1.538,0,0,0-.049.243c-.018.079-.033.161-.052.243s-.024.118-.039.179-.046.2-.07.3a.038.038,0,0,0,0,.018l-.055.21-.064.255c-.027.1-.058.207-.085.3a.106.106,0,0,1-.024.082l-.091.3c-.1.322-.2.644-.3.963l-.109.3-.064.167a21.974,21.974,0,0,0-9.579-23.69q-.592-.377-1.2-.711a21.953,21.953,0,0,0-26.15,3.754,22.01,22.01,0,0,0-2.682-2.278h0a21.618,21.618,0,0,0-2.272-1.44,22,22,0,0,0-21.145,0,21.708,21.708,0,0,0-3.119,2.083,22.433,22.433,0,0,0-5.467,6.4.108.108,0,0,1,0,.027,20.857,20.857,0,0,0-.939,1.88c-.158.352-.3.711-.44,1.069.033-.14.07-.279.106-.416.018-.07.036-.143.055-.21s.021-.085.033-.128l.091-.3h0c.073-.24.146-.48.225-.72l.112-.328c.164-.465.34-.911.535-1.379l.118-.27c.061-.137.121-.273.185-.41.1-.219.21-.437.3-.653l.027-.049h0c.049-.1.1-.194.152-.3l.179-.331c.076-.137.155-.273.234-.41.036-.064.076-.128.112-.194s.046-.07.067-.109a.13.13,0,0,0,0-.021h0c.049-.079.1-.158.149-.237s.112-.179.17-.267c.128-.2.258-.395.392-.589l.143-.2.179-.246c.061-.088.125-.173.191-.258l.231-.3c.073-.088.143-.179.213-.267l.076-.091.155-.188c.079-.1.161-.191.243-.285l.106-.125.018-.021.185-.207.207-.228c.194-.21.395-.419.607-.607l.24-.237.374-.352c.082-.076.164-.152.249-.225s.194-.176.3-.261l.194-.164c.064-.058.131-.112.194-.164a4.909,4.909,0,0,1,.395-.3l.2-.158c.334-.255.671-.5,1.017-.738l.207-.14.21-.137.2-.128.3-.182.146-.088.213-.125c.285-.167.571-.328.86-.48l.173-.091.267-.137.222-.109.222-.1.222-.106.225-.1.225-.1c.3-.131.607-.252.911-.367l.2-.134.243-.088.216-.076.182-.061.419-.134.216-.067.173-.049.17-.049q.152-.046.3-.082l.4-.1c.413-.1.829-.191,1.245-.267l.17-.03.237-.039.243-.039.3-.046.179-.024c.4-.052.8-.094,1.215-.125h2.822a1.75,1.75,0,0,1,.3.018h.207c.322.024.644.058.963.094l.431.058.3.043.24.039.24.039.158.027q.623.115,1.239.264l.5.131.14.039.216.061c.14.039.279.079.416.125l.182.058q.456.14.911.3l.207.076.27.1.407.164c.158.067.3.134.465.2l.182.079.249.118.222.1.219.109.276.14.219.115c.17.091.34.182.507.279l.213.121c.249.143.492.3.735.446l.2.128.21.137.207.14h0l.137.094c.3.2.58.416.866.635l.2.158c.131.1.264.21.395.3.064.052.131.106.194.164l.194.164.3.261c.085.073.167.149.249.225l.349.371.24.237.243-.237.371-.352c.082-.076.164-.152.249-.225s.194-.176.3-.261l.194-.164c.064-.058.131-.112.194-.164a4.91,4.91,0,0,1,.395-.3l.2-.158c.334-.255.671-.5,1.017-.738l.207-.14.21-.137.2-.128.289-.182.146-.088.213-.125c.285-.167.571-.328.859-.48l.173-.091.267-.137.222-.109.222-.1.222-.106.225-.1.225-.1c.3-.131.607-.252.911-.367.073-.027.149-.058.225-.082l.24-.088.219-.076.179-.061.419-.134.216-.067.173-.049.17-.049c.1-.03.2-.058.3-.082l.4-.1c.413-.1.829-.191,1.245-.267l.17-.03.237-.039.243-.039.3-.046.179-.024c.4-.052.8-.094,1.215-.125h2.794a1.751,1.751,0,0,1,.3.018h.207c.322.024.644.058.963.094l.431.058.3.043.24.039.24.039.158.027q.623.115,1.239.264l.5.131.14.039.216.061c.14.039.279.079.419.125l.179.058c.3.094.607.2.911.3l.2.076.27.1.407.164c.158.067.3.134.465.2l.182.079.249.118.222.1.219.109.276.14.222.115c.167.091.337.182.5.279l.213.121c.249.143.5.3.735.446l.2.128.21.137.207.14h.015l.137.094c.3.2.58.416.866.635l.2.158c.131.1.264.21.395.3.064.052.131.106.194.164l.194.164.252.225c.085.076.17.152.252.231l.143.131h0a.137.137,0,0,1,.021.021c.082.073.161.152.243.228l.109.106c.042.046.085.088.131.131l.24.246c.121.125.243.252.361.383.07.073.14.149.206.225.115.128.228.255.34.386l.358.428c.41.5.793,1.02,1.154,1.549l.146.222c.055.079.1.158.155.237l.131.2c.073.118.146.234.216.352l.191.328c.039.067.079.134.115.2l.088.158.088.158.128.24.125.24q.428.838.778,1.71l.1.246c.094.24.182.477.267.72l.076.219c.033.1.07.207.1.3s.061.185.088.279l.055.176c.027.085.052.17.076.255s.058.21.088.3c.046.17.088.34.131.513l.064.267c.03.128.058.255.085.383a.787.787,0,0,0,.033.164c.012.055.03.146.042.219s.024.115.033.173l.027.146a.272.272,0,0,0,.024.137c.024.046,0,.088.021.134l.046.273a1.693,1.693,0,0,0,.039.273c.015.091.027.2.039.3s.024.194.033.3l.018.167c0,.1.021.2.03.3v.149c0,.1.018.207.024.3a.046.046,0,0,1,0,.021v.392a2.389,2.389,0,0,0,.015.328h0v.337A3.886,3.886,0,0,1,562.009,47.891Z" transform="translate(-382.773 -25.61)" opacity="0.1"/>
    <path id="Caminho_594" data-name="Caminho 594" d="M847.353,306.106v.483a.04.04,0,0,1,0,.018v.194l-.027.216a1.106,1.106,0,0,1-.021.14h0v.112a.145.145,0,0,1,0,.036v.076a.594.594,0,0,1-.015.073q0,.027,0,.055a.173.173,0,0,1-.021.094h0l-.018.064-.018.076-.027.094v.027a.628.628,0,0,1-.03.094c-.027.1-.061.2-.094.3a.347.347,0,0,1-.033.094.374.374,0,0,1-.021.052,6.545,6.545,0,0,1-.887,1.619l-.07.094a6.7,6.7,0,0,1-.571.647l-9.582,9.488-9.479-9.479a6.764,6.764,0,0,1-.744-.881,6.954,6.954,0,0,1-.386-.607,6.73,6.73,0,0,1-.811-3.812,2.48,2.48,0,0,1,.043-.364c.03-.213.07-.425.121-.635a.485.485,0,0,1,.03-.128l.018-.064v-.039l.027-.094h0c.021-.073.046-.146.07-.219s.021-.067.033-.1q.073-.216.164-.419l.036-.085.055-.125c.033-.067.064-.134.1-.2v-.015h0l.049-.088.055-.1c.021-.043.046-.085.07-.128l.036-.058.018-.033h0c0-.024.027-.049.043-.073s.036-.055.052-.082.079-.122.122-.179l.042-.064.055-.076.058-.076.073-.094.064-.082.024-.027.046-.058.076-.088.03-.036h0l.058-.064c.018-.024.043-.046.064-.07s.118-.128.182-.191l.073-.07.112-.109.076-.07.091-.079.058-.049.061-.052.118-.1.064-.049c.1-.076.2-.152.3-.225l.064-.043.061-.043.061-.036.091-.058.043-.024.067-.039c.085-.052.173-.1.261-.146l.052-.027.082-.043.067-.033.07-.033.067-.03.067-.03.07-.03.276-.112.07-.024.073-.027.067-.024.055-.018.128-.039.067-.021.052-.015.052-.015.094-.024.121-.03c.125-.033.252-.061.38-.082h.346c.121-.015.243-.03.367-.039h1.018l.3.03.134.018h.282c.128.021.252.049.38.079l.152.039h.043l.067.018.128.039.055.015c.094.03.185.061.276.1l.064.021.082.033.124.049.14.061.058.027.076.033.067.033.067.033.085.043.067.036.155.082.064.039c.076.043.152.088.225.137l.061.036.064.043.064.043h0l.043.03.264.191a.477.477,0,0,0,.061.049l.122.1.058.052.061.049.088.079.076.07.112.109a.835.835,0,0,1,.076.07.533.533,0,0,1,.073-.07l.112-.109.076-.07.088-.079.061-.049.058-.052.122-.1a.476.476,0,0,0,.061-.049l.3-.225.064-.042.064-.043.061-.036.088-.058.046-.024.064-.039q.131-.079.264-.146l.052-.027.082-.043.067-.033.067-.033.07-.03.067-.03.07-.03.276-.112.07-.024.073-.027.067-.024.055-.018.128-.039.067-.021.052-.015.052-.015.091-.024.121-.03q.191-.049.383-.082h.343c.125-.015.246-.03.367-.039h1.017l.3.03a.317.317,0,0,1,.131.018h.286c.125.021.252.049.377.079l.155.039h.042l.067.018.128.039.055.015c.091.03.185.061.276.1l.061.021.082.033.125.049.143.061.055.027.076.033.07.033.067.033.082.043.07.036.152.082.067.039c.076.043.149.088.225.137l.061.036.061.043.064.043h0l.039.03q.137.091.264.191l.064.049.118.1.061.052.058.049.079.07.076.07.043.039h0l.073.07.033.03.039.039.073.076.112.115c.021.024.043.046.061.07l.106.118.109.131a5.059,5.059,0,0,1,.352.474l.045.067.046.073.04.061.067.109.058.1.036.064.027.049.024.049a.512.512,0,0,1,.039.07l.036.076c.088.17.167.343.24.519,0,.027.021.052.03.076l.082.219a.091.091,0,0,0,.021.07c.021.024.021.061.033.094a.717.717,0,0,1,.024.085l.018.052a.38.38,0,0,0,.021.079l.027.1c.015.052.027.1.04.155a.808.808,0,0,1,.021.082.825.825,0,0,0,.024.118.113.113,0,0,1,0,.049v.881h0v.058a.374.374,0,0,0,0,.061v.1h0v.1C847.171,305.933,847.356,306.039,847.353,306.106Z" transform="translate(-617.296 -216.141)" fill="#ff3940"/>
    <path id="Caminho_595" data-name="Caminho 595" d="M848.034,306.05v.483a.038.038,0,0,1,0,.018v.194l-.027.216a1.1,1.1,0,0,1-.021.14h0v.112a.152.152,0,0,1,0,.036v.076a.617.617,0,0,1-.015.073v.055a.172.172,0,0,1-.021.094h0l-.018.064-.018.076-.027.094v.027a.626.626,0,0,1-.03.094c-.027.1-.061.2-.094.3,0,.033-.024.064-.033.094a.376.376,0,0,1-.021.052,6.525,6.525,0,0,0,.185-1.625,6.718,6.718,0,0,0-3.107-5.6c-.121-.079-.243-.149-.367-.219a6.721,6.721,0,0,0-6.451,0,7,7,0,0,0-.638.4,6.685,6.685,0,0,0-.875.741,6.789,6.789,0,0,0-.82-.7h0a6.985,6.985,0,0,0-.692-.44,6.682,6.682,0,0,0-7.408.638,7.163,7.163,0,0,0-.559.5,6.611,6.611,0,0,0-.735.872c-.134.188-.258.383-.37.58h0a6.321,6.321,0,0,0-.285.574c-.049.109-.094.219-.134.328a.487.487,0,0,1,.03-.128l.018-.064v-.039l.027-.094h0c.021-.073.046-.146.07-.219s.021-.067.033-.1q.073-.216.164-.419l.036-.085.055-.125c.033-.067.064-.134.1-.2v-.015h0l.049-.088.055-.1c.021-.042.045-.085.07-.128l.036-.058.018-.033h0c0-.024.027-.049.043-.073s.036-.055.052-.082.079-.121.121-.179l.042-.064.055-.076.058-.076.073-.094.064-.082.024-.027.046-.058.076-.088.03-.036h0l.058-.064c.018-.024.043-.046.064-.07s.118-.128.182-.191l.073-.07.112-.109.076-.07.091-.079.058-.049.061-.052.119-.1.064-.049c.1-.076.2-.152.3-.225l.064-.043.061-.043.061-.036.091-.058.043-.024.067-.039c.085-.052.173-.1.261-.146l.052-.027.082-.043.067-.033.07-.033.067-.03.067-.03.07-.03.276-.112.07-.024.073-.027.067-.024.055-.018.128-.039.067-.021.052-.015.052-.015.094-.024.121-.03c.125-.033.252-.061.38-.082h.346c.122-.015.243-.03.367-.039h1.018l.3.03.134.018h.282c.128.021.252.049.38.079l.152.039h.042l.067.018.128.039.055.015c.094.03.185.061.276.1l.064.021.082.033.125.049.14.061.058.027.076.033.067.033.067.033.085.043.067.036.155.082.064.039c.076.043.152.088.225.137l.061.036.064.043.064.042h0l.043.03.264.191a.479.479,0,0,0,.061.049l.122.1.058.052.061.049.088.079.076.07.112.109a.818.818,0,0,1,.076.07.53.53,0,0,1,.073-.07l.112-.109.076-.07.088-.079.061-.049.058-.052.121-.1a.483.483,0,0,0,.061-.049l.3-.225.064-.043.064-.043.061-.036.088-.058.046-.024.064-.039q.131-.079.264-.146l.052-.027.082-.043.067-.033.067-.033.07-.03.067-.03.07-.03.276-.112.07-.024.073-.027.067-.024.055-.018.128-.039.067-.021.052-.015.052-.015.091-.024.122-.03q.191-.049.383-.082h.343c.125-.015.246-.03.367-.039h1.017l.3.03a.317.317,0,0,1,.131.018h.285c.125.021.252.049.377.079l.155.039h.042l.067.018.128.039.055.015c.091.03.185.061.276.1l.061.021.082.033.125.049.143.061.055.027.076.033.07.033.067.033.082.043.07.036.152.082.067.039c.076.043.149.088.225.137l.061.036.061.043.064.043h0l.039.03q.137.091.264.191l.064.049.118.1.061.052.058.049.079.07.076.07.043.039h0l.073.07.033.03.039.039.073.076.112.115c.021.024.043.046.061.07l.106.118.109.131a5.068,5.068,0,0,1,.352.474l.045.067.046.073.039.061.067.109.058.1.036.064.027.049.024.049a.525.525,0,0,1,.039.07l.036.076c.088.17.167.343.24.519,0,.027.021.052.03.076l.082.219a.091.091,0,0,0,.021.07c.021.024.021.061.033.094a.7.7,0,0,1,.024.085l.018.052a.376.376,0,0,0,.021.079l.027.1c.015.052.027.1.039.155q.013.04.021.082a.825.825,0,0,0,.024.118.111.111,0,0,1,0,.049v.881h0v.058a.388.388,0,0,0,0,.061v.1h0v.1C847.961,305.853,848.037,305.983,848.034,306.05Z" transform="translate(-617.977 -216.085)" opacity="0.1"/>
    <path id="Caminho_596" data-name="Caminho 596" d="M702.959,264.619v.62a.79.79,0,0,1,0,.085.579.579,0,0,1-.027.216c-.027.07,0,.094-.021.14h0a.556.556,0,0,1,0,.07.236.236,0,0,1,0,.043v.109l-.018.073a.341.341,0,0,1,0,.055.841.841,0,0,1-.021.094h0a.484.484,0,0,0,0,.064.747.747,0,0,0-.021.079l-.027.094a.071.071,0,0,1,0,.024l-.027.1c-.03.1-.061.2-.1.3a.278.278,0,0,1-.033.091l-.018.052a6.682,6.682,0,0,1-.89,1.622l-.07.091a6.674,6.674,0,0,1-.568.65l-9.479,9.476-9.479-9.476a6.724,6.724,0,0,1-.741-.884,6.552,6.552,0,0,1-.389-.607,6.682,6.682,0,0,1-.808-3.809,2.905,2.905,0,0,1,.039-.364c.03-.216.07-.425.121-.638a.447.447,0,0,1,.033-.125.432.432,0,0,1,.015-.067.169.169,0,0,1,0-.036l.027-.1h0c.021-.073.043-.146.067-.219l.036-.1c.049-.143.1-.282.161-.422l.036-.082c.018-.043.036-.085.058-.125s.064-.134.1-.2V261.5h0l.046-.091.055-.1.073-.125a.617.617,0,0,1,.033-.061l.021-.033h0l.046-.073c.015-.027.033-.055.052-.082l.118-.179.046-.061.055-.076.058-.079.07-.094a.836.836,0,0,1,.067-.079.254.254,0,0,1,.021-.03l.049-.055.073-.088.033-.039h0l.055-.064.064-.07.182-.188.073-.073.115-.106a.83.83,0,0,1,.076-.07l.088-.079.061-.052.058-.049.122-.1.061-.049c.1-.079.206-.155.3-.225l.064-.043.064-.043.061-.039.088-.055.043-.027.067-.039c.085-.049.173-.1.261-.146l.055-.027-.006-.07.067-.033.067-.03.067-.033.07-.03.067-.03.279-.112.067-.024.073-.027.067-.021.058-.018.128-.043.064-.018.055-.015.052-.015.091-.027.121-.03.38-.082h.346c.122-.015.246-.027.368-.036h1.017a2.742,2.742,0,0,1,.3.027l.131.018H688c.128.024.255.052.38.082l.155.04h.042a.505.505,0,0,1,.064.018l.128.036.058.018.273.094.064.024.082.03.125.052.143.061.055.024.076.036.067.03.067.033.085.043.067.036.155.085.067.036.222.137.061.039.064.043.064.042h0l.042.027c.091.064.179.128.264.194a.479.479,0,0,1,.061.049c.042.03.082.064.121.1l.061.049.058.052.088.079a.818.818,0,0,1,.076.07l.115.106.073.073.073-.073.112-.106.076-.07.091-.079.058-.052.061-.049c.039-.033.079-.067.121-.1a.48.48,0,0,1,.061-.049c.1-.079.2-.155.3-.225l.064-.043.064-.043.058-.039.091-.055.043-.027.067-.039c.085-.049.173-.1.261-.146l.052-.027.082-.043.07-.033.067-.03.067-.033.07-.03.067-.03.276-.112.07-.024.073-.027.067-.021.055-.018.128-.043.067-.018.052-.015.052-.015.094-.027.122-.03c.128-.03.252-.058.38-.082h.346c.121-.015.243-.027.367-.036h1.017l.3.027.131.018h.282c.128.024.252.052.38.082l.155.039h.04a.432.432,0,0,1,.067.018l.128.036.055.018.276.094.064.024.082.03.125.052.143.061.055.024.076.036.067.03.067.033.085.043.067.036.155.085.064.036.225.137.061.039.064.042.064.043h0l.043.027.264.194.061.049.122.1.058.049.061.052.076.067.079.07.042.043h0l.076.07.033.033.04.039.073.073.109.118.064.07c.036.036.07.076.1.115l.109.131a5.473,5.473,0,0,1,.352.474l.046.067.046.073a.734.734,0,0,1,.039.064,1.244,1.244,0,0,1,.067.106c.021.036.039.067.058.1l.036.061.027.049.027.049.036.073c0,.024.027.049.039.073.088.17.167.346.237.522a.557.557,0,0,1,.03.076q.046.109.082.219a.2.2,0,0,0,.024.067l.03.094.027.085a.076.076,0,0,0,.015.055c.015.018,0,.052.024.076l.027.1a.756.756,0,0,0,.039.158l.018.082.027.115v.052a.436.436,0,0,1,0,.067.3.3,0,0,1,0,.052.237.237,0,0,1,0,.046v.082a.766.766,0,0,1,0,.082.822.822,0,0,1,0,.085.193.193,0,0,0,.015.091v.374h0v.222h0v.1C702.959,264.479,702.959,264.546,702.959,264.619Z" transform="translate(-516.841 -187.231)" fill="#ff3940"/>
    <path id="Caminho_597" data-name="Caminho 597" d="M703.107,264.619v.62a.823.823,0,0,1,0,.085.578.578,0,0,1-.027.216c-.027.07,0,.094-.021.14h0a.556.556,0,0,1,0,.07.225.225,0,0,1,0,.043v.109l-.018.073a.356.356,0,0,1,0,.055.9.9,0,0,1-.021.094h0a.506.506,0,0,0,0,.064.762.762,0,0,0-.021.079l-.027.094a.071.071,0,0,1,0,.024l-.027.1c-.03.1-.061.2-.1.3a.278.278,0,0,1-.033.091l-.018.052a6.71,6.71,0,0,0-2.925-7.228c-.118-.076-.24-.149-.364-.216a6.709,6.709,0,0,0-6.454,0,5.99,5.99,0,0,0-.635.4,6.452,6.452,0,0,0-.878.738,6.835,6.835,0,0,0-.82-.7h0a6.629,6.629,0,0,0-.693-.437,6.712,6.712,0,0,0-7.966,1.136,6.609,6.609,0,0,0-.863.872c-.134.188-.255.383-.367.58h0c-.1.188-.2.38-.285.574-.049.106-.091.216-.134.325a.445.445,0,0,1,.033-.125.438.438,0,0,1,.015-.067.173.173,0,0,1,0-.036l.027-.1h0c.021-.073.042-.146.067-.219l.036-.1c.049-.143.1-.282.161-.422l.036-.082c.018-.043.036-.085.058-.125s.064-.134.1-.2v-.015h0l.046-.091.055-.1.073-.125a.605.605,0,0,1,.033-.061l.021-.033h0l.046-.073c.015-.027.033-.055.052-.082l.118-.179.046-.061.055-.076.058-.079.07-.094a.82.82,0,0,1,.067-.079.269.269,0,0,1,.021-.03l.049-.055.073-.088.033-.039h0l.055-.064.064-.07.182-.188.073-.073.115-.106a.852.852,0,0,1,.076-.07l.088-.079.061-.052.058-.049.121-.1.061-.049c.1-.079.207-.155.3-.225l.064-.043.064-.043.061-.039.088-.055.042-.027.067-.04c.085-.049.173-.1.261-.146l.055-.027.115-.052.067-.033.067-.03.067-.033.07-.03.067-.03.279-.112.067-.024.073-.027.067-.021.058-.018.128-.043.064-.018.055-.015.052-.015.091-.027.122-.03.38-.082h.346c.121-.015.246-.027.367-.036h1.018a2.741,2.741,0,0,1,.3.027l.131.018h.282c.128.024.255.052.38.082l.155.04h.043a.505.505,0,0,1,.064.018l.128.036.058.018.273.094.064.024.082.03.125.052.143.061.055.024.076.036.067.03.067.033.085.043.067.036.155.085.067.036.222.137.061.039.064.043.064.042h0l.043.027c.091.064.179.128.264.194a.476.476,0,0,1,.061.049c.042.03.082.064.121.1l.061.049.058.052.088.079a.826.826,0,0,1,.076.07l.115.106.073.073.073-.073.112-.106.076-.07.091-.079.058-.052.061-.049c.039-.033.079-.067.121-.1a.475.475,0,0,1,.061-.049c.1-.079.2-.155.3-.225l.064-.043.064-.043.058-.039.091-.055.042-.027.067-.039c.085-.049.173-.1.261-.146l.052-.027.082-.043.07-.033.067-.03.067-.033.07-.03.067-.03.276-.112.07-.024.073-.027.067-.021.055-.018.128-.043.067-.018.052-.015.052-.015.094-.027.122-.03c.128-.03.252-.058.38-.082h.346c.122-.015.243-.027.368-.036h1.017l.3.027.131.018h.282c.128.024.252.052.38.082l.155.039h.04a.434.434,0,0,1,.067.018l.128.036.055.018.276.094.064.024.082.03.125.052.143.061.055.024.076.036.067.03.067.033.085.043.067.036.155.085.064.036.225.137.061.039.064.042.064.043h0l.043.027.264.194.061.049.122.1.058.049.061.052.076.067.079.07.042.043h0l.076.07.033.033.039.039.073.073.109.118.064.07c.036.036.07.076.1.115l.109.131a5.473,5.473,0,0,1,.352.474l.046.067.046.073a.733.733,0,0,1,.039.064,1.244,1.244,0,0,1,.067.106c.021.036.039.067.058.1l.036.061.027.049.027.049.036.073c0,.024.027.049.039.073.088.17.167.346.237.522a.573.573,0,0,1,.03.076q.046.109.082.219a.2.2,0,0,0,.024.067l.03.094.027.085a.076.076,0,0,0,.015.055c.015.018,0,.052.024.076l.027.1a.752.752,0,0,0,.04.158l.018.082.027.115v.052a.436.436,0,0,1,0,.067.3.3,0,0,1,0,.052.237.237,0,0,1,0,.046v.082a.766.766,0,0,1,0,.082.806.806,0,0,1,0,.085.193.193,0,0,0,.015.091v.374h0v.222h0v.1C703.107,264.479,703.107,264.546,703.107,264.619Z" transform="translate(-516.989 -187.231)" opacity="0.1"/>
    <path id="Caminho_598" data-name="Caminho 598" d="M407.875,286.6a.387.387,0,0,1,0,.058v.55a.865.865,0,0,1,0,.088,1.309,1.309,0,0,1-.027.216c-.012.073,0,.094-.021.14h0a.49.49,0,0,1,0,.07c0,.015,0,.027,0,.043v.112l-.018.073a.348.348,0,0,1,0,.055.153.153,0,0,1-.021.094h0a.486.486,0,0,0-.015.064.7.7,0,0,0-.021.076l-.027.094a.087.087,0,0,1,0,.027l-.027.094c-.03.1-.061.2-.1.3a.875.875,0,0,1-.033.094l-.018.052a6.655,6.655,0,0,1-.89,1.619l-.07.094a6.668,6.668,0,0,1-.568.647l-9.479,9.479-9.479-9.479a6.771,6.771,0,0,1-.744-.881c-.14-.2-.267-.407-.386-.607a6.7,6.7,0,0,1-.808-3.812,2.962,2.962,0,0,1,.04-.364c.03-.213.07-.425.121-.635a.649.649,0,0,1,.03-.128l.018-.064a.194.194,0,0,1,0-.039.359.359,0,0,1,.024-.094h0c.021-.073.043-.146.067-.219s.024-.067.033-.1q.076-.216.164-.419l.036-.085c.018-.039.036-.082.058-.125s.064-.134.1-.2v-.015h0l.046-.088.055-.1.073-.128.033-.058.021-.033h0l.046-.073c.015-.027.033-.055.052-.082l.118-.179.046-.064.055-.076c.018-.024.036-.052.058-.076a1.084,1.084,0,0,1,.07-.094l.067-.082.021-.027.046-.058.076-.088.033-.036h0l.055-.064.064-.07.182-.191.073-.07.115-.109.076-.07.088-.079.061-.049.058-.052.121-.1.061-.049c.1-.076.2-.152.3-.225l.064-.042.064-.043.061-.036a.874.874,0,0,1,.088-.058l.043-.024.067-.039c.085-.052.173-.1.261-.146l.055-.03.027-.043.067-.033.067-.033.067-.03.07-.03.067-.03.279-.112.067-.024.073-.027.067-.024.058-.018.128-.039.064-.021.055-.015h.052l.091-.024.121-.03c.128-.033.252-.061.38-.082h.2l.091-.015h.055c.121,0,.246-.03.367-.039h1.008l.3.03.131.015.088.015h.194c.128.021.255.049.38.079l.155.039h.043l.064.018.128.039.055.015c.094.03.185.061.276.1l.064.021.082.033.125.049.143.061.055.027.076.033.067.033.067.033.085.043.067.036.155.082.064.039c.076.042.152.088.225.137l.061.036.064.043.064.043h0a.217.217,0,0,1,.043.03q.134.091.264.191l.061.049.121.1.058.052.061.049.088.079.076.07.115.109.073.07.073-.07.112-.109.076-.07.091-.079.058-.049.061-.052.121-.1.061-.049c.1-.076.2-.152.3-.225l.064-.043.064-.042.058-.036.091-.058.043-.024.067-.039c.085-.052.173-.1.261-.146a.3.3,0,0,0,.052-.03l.082-.039.067-.033.07-.033.067-.03.07-.03.067-.03.276-.112.07-.024.073-.027.067-.024.055-.018.128-.039.067-.021.052-.015h.052l.094-.024.121-.03c.124-.033.252-.061.38-.082h.2l.094-.015h.055c.121,0,.243-.03.367-.039h1.017l.3.03.134.015.088.015h.194c.128.021.252.049.38.079l.152.039h.042l.067.018.128.039.055.015c.094.03.185.061.276.1l.064.021.082.033.125.049.14.061.058.027.076.033.067.033.067.033.085.043.067.036.155.082.064.039c.076.043.152.088.225.137l.061.036.064.043.064.043h0l.043.03.264.191.061.049.121.1.058.052.061.049.076.07a.827.827,0,0,1,.076.07l.046.039h0l.076.07.03.03.043.039.073.076.109.115.064.07.1.118.109.131a5.036,5.036,0,0,1,.352.474l.046.067.046.073a.414.414,0,0,1,.039.061c.024.036.046.073.067.109l.058.1.036.064.027.049.027.049.036.07c.015.024.027.052.04.076q.131.254.237.519l.03.076q.046.109.082.219l.024.07a.424.424,0,0,0,.03.094l.027.085a.065.065,0,0,0,.015.052l.024.079a.912.912,0,0,1,.024.1c.015.052.027.1.043.155l.018.082.027.118v.049a.519.519,0,0,1,0,.067.356.356,0,0,1,0,.055.177.177,0,0,1,0,.043v.167a.766.766,0,0,1,0,.082v.094c0,.029,0,.059,0,.088v.191a.906.906,0,0,1,0,.094h0a.364.364,0,0,0,0,.058v.161h0v.1C407.735,286.441,407.875,286.535,407.875,286.6Z" transform="translate(-311.368 -202.557)" fill="#ff3940"/>
    <path id="Caminho_599" data-name="Caminho 599" d="M408.05,286.6a.4.4,0,0,1,0,.058v.55q0,.044,0,.088a1.309,1.309,0,0,1-.027.216c-.012.073,0,.094-.021.14h0a.477.477,0,0,1,0,.07v.155l-.018.073a.356.356,0,0,1,0,.055.153.153,0,0,1-.021.094h0a.482.482,0,0,0-.015.064.7.7,0,0,0-.021.076l-.027.094a.087.087,0,0,1,0,.027l-.027.094c-.03.1-.061.2-.1.3a.85.85,0,0,1-.033.094l-.018.052a6.544,6.544,0,0,0-3.04-7.213c-.118-.079-.243-.149-.365-.219a6.727,6.727,0,0,0-6.454,0,6.539,6.539,0,0,0-.635.4,6.716,6.716,0,0,0-.878.741,6.563,6.563,0,0,0-.82-.7h0a6.644,6.644,0,0,0-.692-.44,6.727,6.727,0,0,0-6.454,0,6.5,6.5,0,0,0-.951.638,6.7,6.7,0,0,0-.562.5,6.618,6.618,0,0,0-.735.872c-.134.188-.255.383-.367.58h0c-.1.188-.2.38-.285.574-.049.109-.091.219-.134.328a.647.647,0,0,1,.03-.128l.018-.064a.194.194,0,0,1,0-.039.358.358,0,0,1,.024-.094h0c.021-.073.043-.146.067-.219s.024-.067.033-.1q.076-.216.164-.419l.036-.085c.018-.039.036-.082.058-.125s.064-.134.1-.2v-.015h0l.046-.088.055-.1.073-.128.033-.058.021-.033h0l.046-.073c.015-.027.033-.055.052-.082l.118-.179.046-.064.055-.076c.018-.024.036-.052.058-.076a1.077,1.077,0,0,1,.07-.094l.067-.082.021-.027.046-.058.076-.088.033-.036h0l.055-.064.064-.07.182-.191.073-.07.115-.109.076-.07.088-.079.061-.049.058-.052.121-.1.061-.049c.1-.076.2-.152.3-.225l.064-.042.064-.043.061-.036a.874.874,0,0,1,.088-.058l.043-.024.067-.039c.085-.052.173-.1.261-.146l.055-.03.137-.043.067-.033.067-.033.067-.03.07-.03.067-.03.279-.112.067-.024.073-.027.067-.024.058-.018.128-.039.064-.021.055-.015h.052l.091-.024.121-.03c.128-.033.252-.061.38-.082h.2l.091-.015h.055c.121,0,.246-.03.368-.039h1.008l.3.03.131.015.088.015h.194c.128.021.255.049.38.079l.155.039h.042l.064.018.128.039.055.015c.094.03.185.061.276.1l.064.021.082.033.124.049.143.061.055.027.076.033.067.033.067.033.085.043.067.036.155.082.064.039c.076.042.152.088.225.137l.061.036.064.043.064.043h0a.215.215,0,0,1,.043.03q.134.091.264.191l.061.049.121.1.058.052.061.049.088.079.076.07.115.109.073.07.073-.07.112-.109.076-.07.091-.079.058-.049.061-.052.121-.1.061-.049c.1-.076.2-.152.3-.225l.064-.043.064-.042.058-.036.091-.058.042-.024.067-.039c.085-.052.173-.1.261-.146a.3.3,0,0,0,.052-.03l.082-.039.067-.033.07-.033.067-.03.07-.03.067-.03.276-.112.07-.024.073-.027.067-.024.055-.018.128-.039.067-.021.052-.015h.052l.094-.024.122-.03c.125-.033.252-.061.38-.082h.2l.094-.015h.055c.121,0,.243-.03.368-.039h1.017l.3.03.134.015.088.015h.194c.128.021.252.049.38.079l.152.039h.043l.067.018.128.039.055.015c.094.03.185.061.276.1l.064.021.082.033.125.049.14.061.058.027.076.033.067.033.067.033.085.043.067.036.155.082.064.039c.076.043.152.088.225.137l.061.036.064.043.064.043h0l.043.03.264.191.061.049.122.1.058.052.061.049.076.07a.835.835,0,0,1,.076.07l.046.039h0l.076.07.03.03.043.039.073.076.109.115.064.07.1.118.109.131a5.052,5.052,0,0,1,.352.474l.046.067.046.073a.419.419,0,0,1,.039.061c.024.036.046.073.067.109l.058.1.036.064.027.049.027.049.036.07c.015.024.027.052.039.076a5.689,5.689,0,0,1,.237.519l.03.076q.046.109.082.219l.024.07a.422.422,0,0,0,.03.094l.027.085a.066.066,0,0,0,.015.052l.024.079a.9.9,0,0,1,.024.1c.015.052.027.1.043.155l.018.082.027.118v.049a.508.508,0,0,1,0,.067.348.348,0,0,1,0,.055.18.18,0,0,1,0,.043v.167a.75.75,0,0,1,0,.082v.094a.865.865,0,0,1,0,.088v.191a.915.915,0,0,1,0,.094h0a.368.368,0,0,0,0,.058c0,.021,0,.043,0,.061v.1h0v.1C407.91,286.441,408.05,286.535,408.05,286.6Z" transform="translate(-311.543 -202.557)" opacity="0.1"/>
    <path id="Caminho_600" data-name="Caminho 600" d="M398.2,445.87v.106a.412.412,0,0,1,0,.061v.325a.04.04,0,0,1,0,.018v.194l-.027.216a.321.321,0,0,1-.021.14h0v.109a.155.155,0,0,1,0,.036.56.56,0,0,1-.015.076.6.6,0,0,1-.015.073v.055a.173.173,0,0,1-.021.094h0l-.018.064-.018.079-.027.094v.024a.767.767,0,0,1-.03.1c-.027.1-.061.2-.094.3l-.033.091a.266.266,0,0,1-.021.052,6.56,6.56,0,0,1-.887,1.622l-.07.091a6.673,6.673,0,0,1-.571.647l-9.476,9.479-9.479-9.479a6.764,6.764,0,0,1-.744-.881,6.947,6.947,0,0,1-.386-.607,6.682,6.682,0,0,1-.808-3.812,2.393,2.393,0,0,1,.039-.361c.03-.216.07-.425.121-.638a.486.486,0,0,1,.03-.128l.018-.064v-.036l.027-.1h0c.024-.073.046-.146.07-.219l.033-.1c.052-.143.1-.282.164-.422l-.046-.085.055-.125c.033-.067.064-.134.1-.2v-.015h0l.049-.088.055-.1c.021-.043.046-.085.07-.125l.036-.061.018-.033h0c0-.024.027-.049.043-.073s.036-.055.052-.082l.122-.179c.015-.021.027-.043.043-.061l.055-.076.058-.079.073-.094.064-.082.024-.027.046-.058.076-.088.033-.036h0l.058-.064.088-.076c.058-.064.118-.128.182-.188l.073-.073.112-.109.076-.067.091-.079.058-.052.061-.049c.039-.033.079-.067.121-.1a.467.467,0,0,1,.061-.049c.1-.079.2-.155.3-.225l.064-.042a.46.46,0,0,1,.064-.043l.058-.039.091-.055.043-.027.067-.039c.085-.052.173-.1.261-.146l.052-.027.082-.043.067-.033.07-.03.067-.033.067-.03.07-.03.276-.112.07-.024.073-.027.067-.021.055-.018.128-.043.067-.021.052-.015h.052l.094-.027.121-.03c.125-.03.252-.058.38-.082h.346c.121-.015.243-.027.367-.036h1.008l.3.027.134.018h.282c.128.021.252.049.38.079l.152.042h.043l.067.021.128.036.055.018c.094.027.185.061.276.094l.064.024.082.03.124.052.14.061.058.024.076.036.067.03.067.033.085.043.067.036.155.085.064.036c.076.046.152.088.225.137l.061.04.064.042.064.043h0l.042.027.264.194.061.049.121.1.058.049.061.052.088.079.076.067.112.109.076.073.073-.073.112-.109.076-.067.088-.079.061-.052.058-.049.121-.1.061-.049c.1-.079.207-.155.3-.225l.064-.043.064-.043.061-.039.088-.055.046-.027.064-.04.264-.146.052-.027.082-.043.067-.033.067-.03.07-.033.067-.03.07-.03.276-.112.07-.024.073-.027.067-.021.055-.018.128-.043.067-.021.052-.015h.052l.091-.027.125-.03c.124-.03.252-.058.38-.082h.343l.367-.036h1.008a2.679,2.679,0,0,1,.3.027l.131.018h.285c.128.021.252.049.377.079l.155.043h.043l.067.021.128.036.055.018c.091.027.185.061.276.094l.061.024.082.03.125.052.143.061.055.024.076.036.07.03.067.033.085.043.067.036c.052.027.1.055.152.085l.067.036.225.137.061.039.064.043.061.043h0l.039.027c.091.064.179.128.264.194l.064.049.118.1.061.049.058.052.079.067.076.07.043.043h0l.073.07.033.033.039.039.073.073.112.118.064.067.1.118.109.131a5.476,5.476,0,0,1,.352.474l.046.067.046.073.039.064.067.106.058.1.036.061.027.049c0,.015.015.033.024.049s.027.049.04.073.024.049.039.073c.085.17.164.346.237.522,0,.024.021.049.03.076l.082.219.021.067a.293.293,0,0,0,.033.094.523.523,0,0,1,.024.085l.018.055.021.076.027.1c.015.052.027.1.039.158a.815.815,0,0,1,.021.082.876.876,0,0,0,.024.115v.929h0v.061a.434.434,0,0,0,0,.061q0,.05,0,.1h0v.1C398.032,445.718,398.2,445.8,398.2,445.87Z" transform="translate(-304.62 -313.461)" fill="#ff3940"/>
    <path id="Caminho_601" data-name="Caminho 601" d="M398.455,445.87v.106a.4.4,0,0,1,0,.061v.325a.038.038,0,0,1,0,.018v.194l-.027.216a.321.321,0,0,1-.021.14h0v.109a.152.152,0,0,1,0,.036.564.564,0,0,1-.015.076.605.605,0,0,1-.015.073v.055a.173.173,0,0,1-.021.094h0l-.018.064-.018.079-.027.094v.024a.76.76,0,0,1-.03.1c-.027.1-.061.2-.094.3l-.033.091a.268.268,0,0,1-.021.052,6.508,6.508,0,0,0,.185-1.625,6.593,6.593,0,0,0-.228-1.686,6.733,6.733,0,0,0-2.879-3.918c-.121-.076-.243-.149-.367-.216a6.7,6.7,0,0,0-6.451,0,9.526,9.526,0,0,0-1.591,1.139,6.8,6.8,0,0,0-.82-.7h0a6.942,6.942,0,0,0-.693-.437,6.709,6.709,0,0,0-7.408.635,7.164,7.164,0,0,0-.559.5,6.617,6.617,0,0,0-.735.872,6.185,6.185,0,0,0-.367.58h0a6.3,6.3,0,0,0-.286.574c-.049.106-.094.216-.134.325a.487.487,0,0,1,.03-.128l.018-.064V444l.027-.1h0c.024-.073.046-.146.07-.219l.033-.1c.052-.143.1-.282.164-.422l.027-.07.055-.125.1-.2v-.015h0l.049-.088.055-.1c.021-.043.046-.085.07-.125l.036-.061.018-.033h0c0-.024.027-.049.043-.073s.036-.055.052-.082l.121-.179c.015-.021.027-.043.043-.061l.055-.076.058-.079.073-.094.064-.082.024-.027.046-.058.076-.088.033-.036h0l.058-.064.088-.076c.058-.064.118-.128.182-.188l.073-.073.112-.109.076-.067.091-.079.058-.052.061-.049c.039-.033.079-.067.122-.1a.467.467,0,0,1,.061-.049c.1-.079.2-.155.3-.225l.064-.042a.464.464,0,0,1,.064-.043l.058-.039.091-.055.043-.027.067-.039c.085-.052.173-.1.261-.146l.052-.027.082-.043.067-.033.07-.03.067-.033.067-.03.07-.03.276-.112.07-.024.073-.027.067-.021.055-.018.128-.043.067-.021.052-.015h.052l.094-.027.121-.03c.125-.03.252-.058.38-.082h.346c.121-.015.243-.027.367-.036h1.008l.3.027.134.018h.282c.128.021.252.049.38.079l.152.042h.042l.067.021.128.036.055.018c.094.027.185.061.276.094l.064.024.082.03.125.052.14.061.058.024.076.036.067.03.067.033.085.043.067.036.155.085.064.036c.076.046.152.088.225.137l.061.04.064.042.064.043h0l.043.027.264.194.061.049.121.1.058.049.061.052.088.079.076.067.112.109.076.073.073-.073.112-.109.076-.067.088-.079.061-.052.058-.049.121-.1.061-.049c.1-.079.207-.155.3-.225l.064-.043.064-.043.061-.039.088-.055.046-.027.064-.04.264-.146.052-.027.082-.043.067-.033.067-.03.07-.033.067-.03.07-.03.276-.112.07-.024.073-.027.067-.021.055-.018.128-.043.067-.021.052-.015h.052l.091-.027.125-.03c.125-.03.252-.058.38-.082h.343l.367-.036h1.008a2.678,2.678,0,0,1,.3.027l.131.018h.285c.128.021.252.049.377.079l.155.043h.043l.067.021.128.036.055.018c.091.027.185.061.276.094l.061.024.082.03.125.052.143.061.055.024.076.036.07.03.067.033.085.043.067.036c.052.027.1.055.152.085l.067.036.225.137.061.039.064.043.061.043h0l.039.027c.091.064.179.128.264.194l.064.049.118.1.061.049.058.052.079.067.076.07.042.043h0l.073.07.033.033.039.039.073.073.112.118.064.067.1.118.109.131a5.464,5.464,0,0,1,.352.474l.046.067.046.073.039.064.067.106.058.1.036.061.027.049c0,.015.015.033.024.049s.027.049.039.073.024.049.039.073c.085.17.164.346.237.522,0,.024.021.049.03.076l.082.219.021.067a.293.293,0,0,0,.033.094.517.517,0,0,1,.024.085l.018.055.021.076.027.1c.015.052.027.1.039.158a.806.806,0,0,1,.021.082.866.866,0,0,0,.024.115v.929h0v.061a.421.421,0,0,0,0,.061v.1h0v.1C398.291,445.718,398.458,445.8,398.455,445.87Z" transform="translate(-304.88 -313.461)" opacity="0.1"/>
    <path id="Caminho_602" data-name="Caminho 602" d="M496.738,348.1v.076a.171.171,0,0,1,0,.039v.319a.438.438,0,0,1,0,.061l-.018.152-.018.1h0v.049a.11.11,0,0,1,0,.03v.167c0,.022,0,.045,0,.067h0v.043a.083.083,0,0,1-.015.058l-.018.067v.015l-.018.07c-.021.07-.046.14-.07.207s0,.046-.021.067l-.015.036a4.788,4.788,0,0,1-.626,1.145l-.052.064a4.365,4.365,0,0,1-.4.459l-6.7,6.7-6.7-6.7a4.75,4.75,0,0,1-1.37-3.751,1.925,1.925,0,0,1,.03-.258,4.437,4.437,0,0,1,.085-.447.5.5,0,0,1,.021-.091.247.247,0,0,0,0-.046v-.027l.018-.067h0c.015-.055.033-.106.049-.155l.024-.073c.036-.1.073-.2.115-.3l.027-.058c0-.03.024-.058.039-.088l.067-.14h0a.639.639,0,0,0,.033-.064l.039-.07a.837.837,0,0,1,.052-.088.194.194,0,0,1,.024-.043v-.024h0l.033-.049.036-.058.085-.128.03-.046.036-.052.043-.058.052-.064a.42.42,0,0,1,.046-.058l.015-.021.033-.039c.018-.021.033-.043.052-.061l.024-.027h0l.039-.043.046-.052.128-.134.052-.052.082-.076a.389.389,0,0,0,.052-.049l.064-.055.043-.036.043-.033.085-.07.043-.033.219-.161.046-.03.046-.027.043-.027.061-.039.033-.018.046-.027c.061-.036.122-.073.185-.1l.036-.021.058-.03.049-.021.049-.024.046-.021.049-.021.049-.021.2-.079.049-.018.052-.018.046-.018h.039l.091-.03h.118l.067-.018.085-.021c.091-.024.179-.043.27-.058h.243c.085,0,.173-.021.258-.027h.72l.206.021h.295c.088.015.179.033.267.055l.109.03h.076l.091.024h.036l.2.067.043.018.058.021.088.036.1.043.039.018.055.024.049.024.046.021.061.03.046.027.109.058.046.027.161.1.043.027.043.027.046.03h0l.03.021c.064.043.125.088.185.137l.043.033.088.07.039.033.043.036.064.055.055.049a.937.937,0,0,0,.079.076l.052.052.052-.052a.942.942,0,0,0,.079-.076l.055-.049.064-.055.043-.036.039-.033.088-.07.043-.033c.07-.055.143-.109.219-.161l.046-.03.043-.027.043-.027.064-.039.03-.018.045-.027c.064-.036.125-.073.188-.1l.036-.021.058-.03L490,343.8l.049-.024.049-.021.049-.021.049-.021.194-.079.049-.018.052-.018.049-.018h.039l.088-.03h.121l.064-.018.088-.021c.088-.024.179-.043.267-.058h.246c.085,0,.17-.021.258-.027h.72l.206.021h.295l.264.055.109.03h.079l.088.024h.039l.194.067.046.018.058.021.088.036.1.043.039.018.052.024.049.024.049.021.058.03.049.027.109.058.046.027c.055.03.106.064.158.1l.042.027.046.027.046.03h0l.027.021c.064.043.128.088.188.137l.043.033a.955.955,0,0,1,.085.07l.042.033.043.036.055.049.055.049.03.03h0l.052.052.021.021.03.027.052.055.079.082.043.049.073.082.079.094c.088.106.17.219.249.334l.03.046c0,.018.021.036.033.052l.027.046c.015.024.033.049.049.076l.039.07a.3.3,0,0,1,.024.043l.021.033.018.036.027.052.027.052c.061.118.115.243.167.367l.021.055c.021.052.039.1.058.155a.267.267,0,0,1,.015.046.075.075,0,0,0,.024.067l.018.061a.267.267,0,0,0,0,.04.076.076,0,0,0,.015.055l.018.067a.491.491,0,0,0,.03.109c.009.036,0,.039,0,.061l.018.082v.082a.152.152,0,0,0,0,.036v.273a.463.463,0,0,1,0,.064v.033a.452.452,0,0,0,0,.067.123.123,0,0,0,0,.033v.067h0a.215.215,0,0,1,0,.043.2.2,0,0,1,0,.043.6.6,0,0,1,0,.073h0a.605.605,0,0,1,0,.073Z" transform="translate(-377.924 -246.771)" fill="#ff3940"/>
    <path id="Caminho_603" data-name="Caminho 603" d="M497.11,348.058v.076a.174.174,0,0,1,0,.039v.319a.449.449,0,0,1,0,.061l-.018.152-.018.1h0v.049a.11.11,0,0,1,0,.03v.167q0,.033,0,.067h0v.043a.083.083,0,0,1-.015.058l-.018.067v.015l-.018.07c-.021.07-.046.14-.07.207s0,.046-.021.067l-.015.036a4.726,4.726,0,0,0,.131-1.148,4.831,4.831,0,0,0-.161-1.194,4.749,4.749,0,0,0-1.215-2.126,4.817,4.817,0,0,0-.811-.65c-.085-.052-.17-.1-.258-.152a4.747,4.747,0,0,0-4.556,0,5.29,5.29,0,0,0-.45.279,5,5,0,0,0-.607.522,4.863,4.863,0,0,0-.577-.492h0a4.175,4.175,0,0,0-.492-.3,4.747,4.747,0,0,0-4.556,0,4.617,4.617,0,0,0-.671.45,4.812,4.812,0,0,0-.395.352,4.973,4.973,0,0,0-.522.607c-.094.134-.179.27-.258.41h0a4.252,4.252,0,0,0-.2.407c-.033.076-.064.152-.094.231a.494.494,0,0,1,.021-.091.252.252,0,0,0,0-.046v-.027l.018-.067h0c.015-.055.033-.106.049-.155l.024-.073c.036-.1.073-.2.115-.3l.027-.058c0-.03.024-.058.039-.088l.067-.14h0a.636.636,0,0,0,.033-.064l.039-.07a.834.834,0,0,1,.052-.088.2.2,0,0,1,.024-.043v-.024h0l.033-.049.036-.058.085-.128.03-.046.036-.052.043-.058.052-.064a.422.422,0,0,1,.046-.058l.015-.021.033-.039c.018-.021.033-.043.052-.061l.024-.027h0l.039-.043.046-.052.128-.134.052-.052.082-.076a.4.4,0,0,0,.052-.049l.064-.055.042-.036.043-.033.085-.07.043-.033.219-.161.046-.03.046-.027.043-.027.061-.039.033-.018.046-.027c.061-.036.121-.073.185-.1l.036-.021.058-.03.049-.021.049-.024.046-.021.049-.021.049-.021.2-.079.049-.018.052-.018.046-.018h.039l.091-.03h.118l.067-.018.085-.021c.091-.024.179-.043.27-.058h.243c.085,0,.173-.021.258-.027h.72l.207.021h.295c.088.015.179.033.267.055l.109.03h.076l.091.024h.036l.2.067.043.018.058.021.088.036.1.043.04.018.055.024.049.024.046.021.061.03.046.027.109.058.046.027.161.1.043.027.043.027.046.03h0l.03.021c.064.043.125.088.185.137l.043.033.088.07.04.033.043.036.064.055.055.049a.923.923,0,0,0,.079.076l.052.052.052-.052a.927.927,0,0,0,.079-.076l.055-.049.064-.055.043-.036.039-.033.088-.07.043-.033c.07-.055.143-.109.219-.161l.046-.03.042-.027.043-.027.064-.039.03-.018.046-.027c.064-.036.125-.073.188-.1l.036-.021.058-.03.046-.021.049-.024.049-.021.049-.021.049-.021.194-.079.049-.018.052-.018.049-.018h.04l.088-.03h.121l.064-.018.088-.021c.088-.024.179-.043.267-.058h.246c.085,0,.17-.021.258-.027h.72l.207.021h.295l.264.055.109.03h.079l.088.024h.039l.194.067.046.018.058.021.088.036.1.043.04.018.052.024.049.024.049.021.058.03.049.027.109.058.046.027c.055.03.106.064.158.1l.042.027.046.027.046.03h0l.027.021c.064.043.128.088.188.137l.043.033a.946.946,0,0,1,.085.07l.043.033.043.036.055.049.055.049.03.03h0l.052.052.021.021.03.027.052.055.079.082.043.049.073.082.079.094c.088.106.17.219.249.334l.03.046c0,.018.021.036.033.052l.027.046c.015.024.033.049.049.076l.039.07a.308.308,0,0,1,.024.043l.021.033.018.036.027.052.027.052c.061.118.115.243.167.367l.021.055c.021.052.039.1.058.155a.268.268,0,0,1,.015.046.075.075,0,0,0,.024.067l.018.061a.284.284,0,0,0,0,.039.076.076,0,0,0,.015.055l.018.067a.489.489,0,0,0,.03.109c.009.036,0,.039,0,.061l.018.082v.082a.155.155,0,0,0,0,.036v.273a.449.449,0,0,1,0,.064v.033a.461.461,0,0,0,0,.067.125.125,0,0,0,0,.033v.067h0a.211.211,0,0,1,0,.043.2.2,0,0,1,0,.043.587.587,0,0,1,0,.073h0a.57.57,0,0,1,0,.073Z" transform="translate(-378.296 -246.729)" opacity="0.1"/>
    <path id="Caminho_604" data-name="Caminho 604" d="M732.831,432.518v.076a.206.206,0,0,1,0,.043v.122a.706.706,0,0,0,0,.082v.115a.4.4,0,0,1,0,.061l-.018.152v.1h0v.049a.091.091,0,0,1,0,.03v.027a.394.394,0,0,1,0,.052v.158h0a.264.264,0,0,0,0,.046q0,.027,0,.055l-.018.067v.018a.578.578,0,0,0-.021.067c-.021.07-.043.14-.067.21a.54.54,0,0,0-.024.064l-.015.036a4.736,4.736,0,0,1-.626,1.145l-.049.064a4.8,4.8,0,0,1-.4.459l-6.7,6.7-6.682-6.7a4.388,4.388,0,0,1-.525-.623,4.312,4.312,0,0,1-.273-.434,4.74,4.74,0,0,1-.571-2.694,1.212,1.212,0,0,1,.027-.255,4.51,4.51,0,0,1,.085-.45.13.13,0,0,1,.024-.091.247.247,0,0,1,0-.046.084.084,0,0,1,0-.027l.018-.067h0a.606.606,0,0,1,.049-.155.706.706,0,0,0,.024-.073c.036-.1.076-.2.115-.3l.027-.061a.248.248,0,0,1,.039-.088c.015-.03.046-.094.07-.14h0l.03-.064.039-.07c.018-.03.033-.061.052-.088a.3.3,0,0,1,.024-.043s0-.015,0-.024h0c0-.018.021-.036.033-.052l.036-.058.085-.128.03-.043.04-.055.039-.055.052-.067.045-.058v-.021l.033-.039.052-.061.024-.027h0l.039-.046.046-.049c.043-.046.085-.091.131-.134a.417.417,0,0,1,.052-.052.942.942,0,0,1,.079-.076l.055-.049a.543.543,0,0,1,.061-.058l.043-.036.043-.033.085-.07.043-.033c.073-.055.146-.109.219-.158l.046-.03.046-.03.043-.027.064-.039.03-.018.046-.027.185-.1.036-.021.058-.027.049-.024.049-.021.049-.024.046-.021.049-.021.2-.079.049-.018.052-.018.046-.015.039-.015.091-.027h.118l.067-.018.085-.021c.091-.021.179-.042.27-.058h.243l.261-.027h.717l.21.021h.292a2.611,2.611,0,0,1,.267.058l.109.027h.076l.091.027h.039l.194.067h.043l.058.021.088.036.1.043.039.018.055.027.049.021.046.024.061.03.049.024.106.061.049.024.158.1.043.027.046.03.043.03h0l.03.021.185.137.046.033.085.07.043.033.039.036.064.058.055.049.079.076a.417.417,0,0,1,.052.052c.018-.018.033-.036.052-.052l.082-.076a.391.391,0,0,1,.052-.049l.064-.058.043-.036.043-.033.085-.07.043-.033c.073-.055.146-.109.219-.158l.046-.03.046-.03.042-.027.061-.039.033-.018.046-.027.185-.1.036-.021.058-.027.049-.024.046-.021.048-.024.049-.021.049-.021.194-.079.049-.018.052-.018.049-.015.039-.015.091-.027h.118l.067-.018.085-.021c.088-.021.179-.043.267-.058h.246l.258-.027h.72l.207.021h.295c.088.015.179.033.267.058l.109.027h.076l.088.027h.04l.194.067h.046l.058.021.088.036.1.043.039.018.055.027.046.021.049.024.061.03.046.024.109.061.046.024c.055.03.106.064.158.1l.043.027.046.03.046.03h0l.03.021.185.137.043.033.085.07.042.033.043.036.055.049.055.049a.276.276,0,0,0,.03.03h0c0,.018.033.033.052.052l.024.021.027.03.052.052.079.082.042.049a.977.977,0,0,1,.073.085l.079.091c.088.109.17.219.249.334,0,.015.021.03.03.049l.033.049.027.046c.018.024.033.052.049.076l.04.07.027.043.018.036.018.033.027.052.027.052c.061.121.118.243.167.368a.407.407,0,0,1,.021.055c.021.052.04.1.058.155l.018.049a.537.537,0,0,0,.021.064l.018.061v.094l.018.067a.515.515,0,0,0,.03.112c.009.036,0,.036,0,.058l.018.082v.656h0a.178.178,0,0,0,0,.039v.043a.558.558,0,0,1,0,.073h0a.559.559,0,0,1,0,.073Z" transform="translate(-542.342 -305.53)" fill="#ff3940"/>
    <path id="Caminho_605" data-name="Caminho 605" d="M733.156,432.532v.076a.215.215,0,0,1,0,.043v.121a.707.707,0,0,0,0,.082v.115a.421.421,0,0,1,0,.061l-.018.152v.1h0v.049a.091.091,0,0,1,0,.03v.027a.417.417,0,0,1,0,.052v.158h0a.253.253,0,0,0,0,.046q0,.027,0,.055l-.018.067v.018a.558.558,0,0,0-.021.067c-.021.07-.043.14-.067.21a.531.531,0,0,0-.024.064l-.015.036a4.727,4.727,0,0,0-2.065-5.1c-.085-.055-.17-.106-.258-.155a4.747,4.747,0,0,0-4.556,0,4.64,4.64,0,0,0-.45.282,4.75,4.75,0,0,0-.607.522,4.655,4.655,0,0,0-.577-.5h0a5.508,5.508,0,0,0-.489-.3,4.753,4.753,0,0,0-4.556,0,4.883,4.883,0,0,0-.671.45,4.352,4.352,0,0,0-.395.355,4.491,4.491,0,0,0-.519.607,3.938,3.938,0,0,0-.261.413h0c-.076.134-.143.27-.2.407-.033.076-.064.152-.094.231a.13.13,0,0,1,.024-.091.248.248,0,0,1,0-.046.085.085,0,0,1,0-.027l.018-.067h0a.608.608,0,0,1,.049-.155.667.667,0,0,0,.024-.073c.036-.1.076-.2.115-.3l.027-.061a.248.248,0,0,1,.039-.088c.015-.03.046-.094.07-.14h0l.03-.064.039-.07c.018-.03.033-.061.052-.088a.3.3,0,0,1,.024-.043v-.024h0c0-.018.021-.036.033-.052l.036-.058.085-.128.03-.042.039-.055.039-.055.052-.067.046-.058V429.5l.033-.039.052-.061.024-.027h0l.039-.046.046-.049c.043-.046.085-.091.131-.134a.417.417,0,0,1,.052-.052.941.941,0,0,1,.079-.076l.055-.049a.556.556,0,0,1,.061-.058l.043-.036.043-.033.085-.07.043-.033c.073-.055.146-.109.219-.158l.046-.03.046-.03.043-.027.064-.039.03-.018.046-.027.185-.1.036-.021.058-.027.049-.024.049-.021.049-.024.046-.021.049-.021.2-.079.049-.018.052-.018.046-.015.039-.015.091-.027h.118l.067-.018.085-.021c.091-.021.179-.043.27-.058h.243l.261-.027h.717l.21.021h.292a2.6,2.6,0,0,1,.267.058l.109.027h.076l.091.027h.039l.194.067h.043l.058.021.088.036.1.043.039.018.055.027.049.021.046.024.061.03.049.024.106.061.049.024.158.1.043.027.046.03.043.03h0l.03.021.185.137.046.033.085.07.043.033.039.036.064.058.055.049.079.076a.409.409,0,0,1,.052.052c.018-.018.033-.036.052-.052l.082-.076a.388.388,0,0,1,.052-.049l.064-.058.042-.036.043-.033.085-.07.043-.033c.073-.055.146-.109.219-.158l.046-.03.046-.03.042-.027.061-.039.033-.018.045-.027.185-.1.036-.021.058-.027.049-.024.046-.021.049-.024.049-.021.049-.021.194-.079.049-.018.052-.018L727,428l.039-.015.091-.027h.118l.067-.018.085-.021c.088-.021.179-.043.267-.058h.246l.258-.027h.72l.207.021h.295c.088.015.179.033.267.058l.109.027h.076l.088.027h.039l.194.067h.046l.058.021.088.036.1.043.039.018.055.027.046.021.049.024.061.03.046.024.109.061.046.024c.055.03.106.064.158.1l.042.027.046.03.046.03h0l.03.021.185.137.043.033.085.07.042.033.043.036.055.049.055.049a.291.291,0,0,0,.03.03h0c0,.018.033.033.052.052l.024.021.027.03.052.052.079.082.043.049a.973.973,0,0,1,.073.085l.079.091c.088.109.17.219.249.334,0,.015.021.03.03.049l.033.049.027.046c.018.024.033.052.049.076l.039.07.027.043.018.036.018.033.027.052.027.052c.061.121.118.243.167.368a.417.417,0,0,1,.021.055c.021.052.039.1.058.155l.018.049a.532.532,0,0,0,.021.064l.018.061v.094l.018.067a.517.517,0,0,0,.03.112c.009.036,0,.036,0,.058l.018.082v.656h0a.186.186,0,0,0,0,.039v.042a.581.581,0,0,1,0,.073h0a.581.581,0,0,1,0,.073Z" transform="translate(-542.668 -305.544)" opacity="0.1"/>
    <path id="Caminho_606" data-name="Caminho 606" d="M555.406,277.011h0a34.941,34.941,0,0,0-3.086-2.779c.131-1.628.434-5.525.462-6.275.03-.951-1.37-2.166-4.364-3.286s-2.126,4.106-2.083,4.577a3.525,3.525,0,0,0,1.822,2.363c.4.167.513.377.486.574l-.094-.015a11.713,11.713,0,0,1-3.575-.875,18.877,18.877,0,0,0-.911,4.045v.207a1.561,1.561,0,0,0,.073.7h.21a2.288,2.288,0,0,1-.167,1.039h0a8,8,0,0,1-.3.747,20.887,20.887,0,0,1-.143-2.251,18.991,18.991,0,0,0-1.112-3.69,5.165,5.165,0,0,1-1.5-1.361,5.976,5.976,0,0,0-2.512-1.9c-.689-.243-3.189-3.5-4.219-4.252-.82-.607-1.151-.249-1.251-.079l-.061.043a3.6,3.6,0,0,1-.817-1.743c0-.331.033-1.011.094-1.874a7.9,7.9,0,0,1,1,.911c.7.774,1.215,1.7,1.977,2.411a3.22,3.22,0,0,0,2.181.954,2.013,2.013,0,0,0,.79-.125c1.014-.392,1.667-1.628,2.734-1.676.838.043,1.455.817,2.141,1.327a2.87,2.87,0,0,0,1.765.607,2.009,2.009,0,0,0,.744-.118,1.594,1.594,0,0,0,.969-2.029c-.559-1.178-2.46-.911-3.271-1.938a.8.8,0,0,1-.188-.753.525.525,0,0,1,.492-.358,1.713,1.713,0,0,1,1.017.486c.395.4.911.911,1.4.856a.665.665,0,0,0,.4-.076c.015-.361.033-.723.049-1.084a3.781,3.781,0,0,0,1.689.48,1.984,1.984,0,0,0,.328-.015,1.321,1.321,0,0,0,1.178-1.3,1.473,1.473,0,0,0,1.011.337,1.379,1.379,0,0,0,.486-.061,1.47,1.47,0,0,0,.984-1.263,2.883,2.883,0,0,0-.768-1.822l-1.986-2.715a1.1,1.1,0,0,1-.3-.784,1.631,1.631,0,0,1,.34-.607,2.119,2.119,0,0,0-.413-2.612,3.683,3.683,0,0,0-2.648-.878,3.475,3.475,0,0,1-2.1-.273,2.392,2.392,0,0,1-.82-1.431c-.422-1.6-.446-3.274-.741-4.9a6.722,6.722,0,0,0-2.247-4.285,2.081,2.081,0,0,0-1.042-.456,7.385,7.385,0,0,0-.966.079,3.529,3.529,0,0,1-2.758-1.549,24.579,24.579,0,0,0-2.008-2.6,4.9,4.9,0,0,0-4.659-1.078c-.711.2-1.276.774-2.011.8a24.038,24.038,0,0,1-3.323-.3,9.18,9.18,0,0,0-3.037.067,3.231,3.231,0,0,0-2.126,1.576l-.258-2.19a38.2,38.2,0,0,0-.775-4.468,1.114,1.114,0,0,1,.03-.975l.049.046c.036-.109.076-.222.115-.334a.8.8,0,0,0,0-.255c.094-.829-1.412-6.108-1.412-6.108h-1.355a1.086,1.086,0,0,0-.033-.194,36.66,36.66,0,0,0-1.519-6.311,3.765,3.765,0,0,1-.273-2.041,16.366,16.366,0,0,0,.064-2.408,6.59,6.59,0,0,1,.055-1.16,1.628,1.628,0,0,0-.647-1.519c-1.777-1.318-6.1-4.319-8.623-4.395-3.238-.1,1.014,5.585.966,6.12s3.238,1.02,3.238,1.02.194,1.649.389,2.572c.134.641.358,5.394.486,8.246a9.057,9.057,0,0,1-2.178-.817s-3.769-1.017-4.109,0,4.592,5.926,4.592,5.926,1.74,4.613,1.215,6.074-.146,8.352-.146,8.352.049,8.2.41,10.3a4.036,4.036,0,0,1-.653,3.253s-.434,5.148,0,5.634a15.045,15.045,0,0,1,1.191,1.91l.128.231c-1.427,1.743-2.846,3.411-3.59,3.645-1.449.437-11.353,4.556-11.353,4.556s-3.235,3.092-3.724,3.092,2.946,3.3,2.946,3.3,3.092,2.475,3.432,2.864,8.808,5,8.808,5,1.452.437,1.595.875,2.077,1.649,2.077,1.649a12.617,12.617,0,0,1,1.871,2.806.654.654,0,0,0,.021.21c.018.3.04.443.058.371.258.711,2,2.524,1.16,3.818-.389.607,0,1.7.75,2.579a9.262,9.262,0,0,1-.79,2.733c-.58.777-.322,1.877-.911,2.008s-.775,2.979-.775,2.979l-.5,6.278s-.131,1.294-.838,1.619,0,2.071,0,2.071-.759,1.488-.3,2.329-.911,4.729-.911,4.729-.58,7.511,0,8.547a8.5,8.5,0,0,1,.911,3.3c0,.647.322,12.756.322,12.756s-.774,4.92-1.033,5.825.711,2.916.067,3.948a7.665,7.665,0,0,0-.516,3.365s-.966,9.13-.386,12.5-.185,4.079-.185,4.079a6.9,6.9,0,0,0,1.251.553c.015.128.03.264.046.4.3,2.825.75,7.69.343,8.808a17.756,17.756,0,0,0-.562,4.422v.2h0l-1.127,1.822a5.833,5.833,0,0,1-.516,1.865c-.292.258-2.712,4.653-3.037,5.218l-.033.061s-2.448,4.5,3.608,4.629,5.282-2.976,5.282-2.976.018-.607.076-1.352a6.522,6.522,0,0,1,.44-2.308,32.427,32.427,0,0,0,1.643-2.946v-3.566h-.389a.626.626,0,0,1,.021-.194,13.458,13.458,0,0,1,.337-2.2,13.636,13.636,0,0,0-.419-3.174,71.445,71.445,0,0,1,.732-8.54c.027-.146.055-.289.082-.425a10.329,10.329,0,0,0,1.3-.68s0-6.6.775-7.769.611-4.468.611-4.468.191-2.913.771-3.5.443-3.174.443-3.174.513-1.683,1.093-3.037a26.307,26.307,0,0,0,.911-5.178,6.568,6.568,0,0,1,.911-1.88c.647-.911,0-2.913,0-2.913a3.547,3.547,0,0,1-.255-2.591c.453-1.3,2.961-11.784,2.961-11.784l.969-3.754,1.415,4.79a32.9,32.9,0,0,0,0,4.4,13.749,13.749,0,0,0,1.546,3.037v10.165s.131,6.864.647,7.963.771,5.181.771,5.181,1.74,11.979.644,13.725a10.484,10.484,0,0,0,1.78.975v7.055s-1.263,4.27-.832,7.177a1.134,1.134,0,0,0,.027.173c-.115.085-.243.158-.322.128l.2,4.859a15.042,15.042,0,0,1-.462,4.115,5.853,5.853,0,0,0-.3,1.543c-.112,1.923.629,4.556,4.859,4.282,5.634-.358,4.765-3.948,4.765-3.948s0-.14-.021-.386a14.636,14.636,0,0,0-1.4-5.279,13.289,13.289,0,0,1-1.157-5.959,2.088,2.088,0,0,1-.343.091.875.875,0,0,1,.015-.2c.073-.911.185-2.093.3-2.645a17.346,17.346,0,0,0,0-3.235l.726-7.092.039-.395a5.816,5.816,0,0,0,1-.607h0a7.268,7.268,0,0,1-.374-1.974,1.743,1.743,0,0,1,.374-1.248c.838-.841,1.415-11.4,1.415-11.4s.456-3.714.459-4.969v-.225c-.052-.756-.453-3.717-.446-5.446a3.422,3.422,0,0,1,.125-1.081c.386-.972.911-19.231.911-19.231l.644-8.091v-6.645a39.2,39.2,0,0,0-1.153-9.445c1.758.92,4.768,2.991,5.317,2.439.677-.68,1.014-12.337.82-13.5a1.219,1.219,0,0,0-.046-.237c-.046-.213-.112-.5-.194-.829l.267-.465c1.321-2.287,3.341-5.919,3.5-6.985a46.1,46.1,0,0,1,.878-5.752,2.669,2.669,0,0,1,.131-.325h0c.118-.24.246-.371.392-.334.823.194,1.355.826,1.789.583a.212.212,0,0,0,.058-.049h0a.724.724,0,0,0,.109-.155h0a1.522,1.522,0,0,0,.1-.222h0c.03-.079.058-.167.085-.261V278.7a.563.563,0,0,1,.03-.118.213.213,0,0,0,0-.039.425.425,0,0,1,.024-.1l.018-.076v-.039c.076-.343.134-.7.17-.948a1.254,1.254,0,0,1,.03-.225v-.121Z" transform="translate(-384.996 -148.599)" fill="url(#linear-gradient)"/>
    <path id="Caminho_607" data-name="Caminho 607" d="M559.327,489.534a1.032,1.032,0,0,0-.067-.544C559.281,489.427,559.306,489.628,559.327,489.534Z" transform="translate(-432.634 -348.129)" fill="url(#linear-gradient-2)"/>
    <path id="Caminho_608" data-name="Caminho 608" d="M674.983,417.425s1.148-.784.027-1.245a3.521,3.521,0,0,1-1.822-2.351c-.042-.468-.911-5.667,2.083-4.556s4.395,2.32,4.364,3.268-.516,6.955-.516,6.955Z" transform="translate(-511.856 -292.515)" fill="#fbbebe"/>
    <path id="Caminho_609" data-name="Caminho 609" d="M676.237,437.019a1.778,1.778,0,0,1-.046.346c-.088.607-.3,1.859-.632,2.038-.434.243-.966-.386-1.789-.58-.146-.033-.273.094-.392.334a2.809,2.809,0,0,0-.131.322,45.79,45.79,0,0,0-.878,5.728c-.164,1.066-2.181,4.683-3.5,6.958-.2.343-.383.656-.541.911-.364.607-.607,1.005-.607,1.005l-3.341-6.263v-9.236a8.2,8.2,0,0,0,.607-1.279h0a2.256,2.256,0,0,0,.167-1.033.529.529,0,0,0-.143-.3.365.365,0,0,1-.064-.094.487.487,0,0,1-.03-.079,1,1,0,0,1-.042-.237v-.2a18.773,18.773,0,0,1,.911-4.027,11.3,11.3,0,0,0,3.575.869C671.824,432.487,676.237,437.019,676.237,437.019Z" transform="translate(-505.827 -307.981)" fill="#a10208"/>
    <path id="Caminho_610" data-name="Caminho 610" d="M677.326,438.277c-.088.607-.3,1.859-.632,2.038-.434.243-.966-.386-1.789-.58-.146-.033-.273.094-.392.334a2.834,2.834,0,0,0-.131.322c-1.661-.808-4.556-2.272-4.741-2.685s-2.2-.507-3.341-.525h-.206a1.54,1.54,0,0,1-.073-.7,21.079,21.079,0,0,1,.911-3.839,11.3,11.3,0,0,0,3.575.869C672.831,433.776,676.864,437.809,677.326,438.277Z" transform="translate(-506.961 -308.893)" opacity="0.1"/>
    <path id="Caminho_611" data-name="Caminho 611" d="M677.414,437s-.243,2.141-.677,2.381-.966-.386-1.789-.577c-.146-.036-.273.091-.392.331-1.637-.8-4.693-2.326-4.859-2.749s-2.466-.519-3.547-.531c-.4-.832.838-4.556.838-4.556a11.338,11.338,0,0,0,3.575.872C673.025,432.463,677.414,437,677.414,437Z" transform="translate(-507.004 -307.96)" fill="#a10208"/>
    <path id="Caminho_612" data-name="Caminho 612" d="M644.014,451.049c-.677.677-5.075-2.609-6.281-2.8s-5.588-18.551-5.588-18.551l.659-10.345-2.569-9.518-.334-1.245s.255-.759,1.288,0,3.541,4,4.219,4.237a6.049,6.049,0,0,1,2.512,1.889,5.119,5.119,0,0,0,1.5,1.352,18.879,18.879,0,0,1,1.112,3.672c-.049.723.389,5.655.911,6.09s1.4,4.4,1.4,4.4,1.6,5.567,1.935,7.156a2.23,2.23,0,0,1,.046.237C645.028,438.776,644.691,450.372,644.014,451.049Z" transform="translate(-481.819 -291.91)" fill="#a10208"/>
    <path id="Caminho_613" data-name="Caminho 613" d="M647.226,473.33l3.189.853s.607,5.509.832,5.8,1,11.6,1,11.6l-5.023-2.272-1.886-6.074v-6.721Z" transform="translate(-492.57 -337.225)" opacity="0.1"/>
    <path id="Caminho_614" data-name="Caminho 614" d="M557.019,765.154a10.758,10.758,0,0,0-.459,1.822,68.829,68.829,0,0,0-.732,8.5,13.657,13.657,0,0,1,.419,3.159,13.252,13.252,0,0,0-.337,2.19c-.052.474-.082.835-.082.835l-5.9-.386s0-.349.018-.884a18,18,0,0,1,.562-4.4c.4-1.112-.036-5.965-.343-8.777-.131-1.215-.237-2.047-.237-2.047S558.012,762.567,557.019,765.154Z" transform="translate(-426.137 -539.62)" fill="#fbbebe"/>
    <path id="Caminho_615" data-name="Caminho 615" d="M633,766.733l-.726,7.055a17.186,17.186,0,0,1,0,3.219c-.109.55-.222,1.722-.3,2.633-.055.689-.091,1.233-.091,1.233s-4.51,3.159-5.54.386a4.908,4.908,0,0,1-.255-1.039c-.431-2.894.832-7.143.832-7.143V764l6.25,1.021Z" transform="translate(-479.1 -539.614)" fill="#fbbebe"/>
    <path id="Caminho_616" data-name="Caminho 616" d="M557.054,765.152a10.773,10.773,0,0,0-.459,1.822,9,9,0,0,1-6.378.24c-.131-1.215-.237-2.047-.237-2.047S558.047,762.565,557.054,765.152Z" transform="translate(-426.172 -539.618)" opacity="0.1"/>
    <path id="Caminho_617" data-name="Caminho 617" d="M635.31,765l-.176,1.71a7.444,7.444,0,0,1-6.074-.3v-2.43Z" transform="translate(-481.234 -539.6)" opacity="0.1"/>
    <path id="Caminho_618" data-name="Caminho 618" d="M552.615,506.21s-.513,3.8-1.093,4.577-.322,1.868-.911,2-.774,2.964-.774,2.964l-.492,6.25s-.131,1.288-.838,1.61,0,2.062,0,2.062-.759,1.482-.3,2.32-.911,4.7-.911,4.7-.58,7.474,0,8.5a8.456,8.456,0,0,1,.911,3.286c0,.644.322,12.692.322,12.692s-.775,4.9-1.033,5.8.711,2.9.067,3.93a7.569,7.569,0,0,0-.516,3.341s-1,9.1-.416,12.437-.185,4.058-.185,4.058a9.017,9.017,0,0,0,9.075-.386s0-6.573.775-7.733.647-4.443.647-4.443.191-2.9.771-3.481.443-3.149.443-3.149.513-1.677,1.093-3.037a26.274,26.274,0,0,0,.911-5.163,6.5,6.5,0,0,1,.911-1.871c.647-.911,0-2.9,0-2.9a3.52,3.52,0,0,1-.255-2.579c.453-1.288,2.961-11.727,2.961-11.727l.969-3.736,1.415,4.768a32.526,32.526,0,0,0,0,4.38,13.891,13.891,0,0,0,1.546,3.037v10.117s.131,6.831.647,7.924.771,5.163.771,5.163,1.74,11.921.644,13.667c0,0,4.963,3.541,8.893.644,0,0-.838-2.384,0-3.222s1.415-11.341,1.415-11.341.516-4.188.453-5.163-.708-5.54-.322-6.506.911-19.134.911-19.134l.644-8.051v-6.591A38.713,38.713,0,0,0,580.3,515.68c-1.09-3.842-2.6-8.249-3.869-8.525C576.411,507.155,556.417,509.369,552.615,506.21Z" transform="translate(-423.707 -360.119)" fill="#3f3d56"/>
    <path id="Caminho_619" data-name="Caminho 619" d="M555.91,816.068c-.052.474-.082.835-.082.835l-5.9-.386s0-.349.018-.884c2.767-2.454,5.525.434,5.525.434Z" transform="translate(-426.137 -574.877)" opacity="0.1"/>
    <path id="Caminho_620" data-name="Caminho 620" d="M544.378,816.727V820.3a28.725,28.725,0,0,1-1.643,2.931,6.411,6.411,0,0,0-.44,2.3c-.058.729-.076,1.342-.076,1.342s.774,3.095-5.282,2.964-3.608-4.607-3.608-4.607l.033-.058c.3-.565,2.755-4.951,3.037-5.194a5.927,5.927,0,0,0,.516-1.856l1.127-1.822c2.773-2.478,5.543.419,5.543.419Z" transform="translate(-414.237 -575.333)" fill="#3f3d56"/>
    <path id="Caminho_621" data-name="Caminho 621" d="M542.218,849.5s.774,3.095-5.282,2.964-3.608-4.6-3.608-4.6l.033-.058c.167.911.881,1.856,3.156,1.734a13.965,13.965,0,0,0,5.771-1.376C542.237,848.885,542.218,849.5,542.218,849.5Z" transform="translate(-414.237 -597.969)" opacity="0.1"/>
    <path id="Caminho_622" data-name="Caminho 622" d="M632.206,814.17c-.055.689-.091,1.233-.091,1.233s-4.51,3.159-5.54.386a4.9,4.9,0,0,1-.255-1.039,2.493,2.493,0,0,0,.255-.219c.738-1.093,4.668-1.127,4.859-.607C631.553,814.222,631.927,814.222,632.206,814.17Z" transform="translate(-479.327 -574.148)" opacity="0.1"/>
    <path id="Caminho_623" data-name="Caminho 623" d="M628.4,830.238c-4.252.267-4.984-2.348-4.859-4.252a5.772,5.772,0,0,1,.3-1.534,14.911,14.911,0,0,0,.462-4.1l-.2-4.832c.161.064.55-.322.55-.322.738-1.093,4.668-1.127,4.859-.607s1.1.167,1.1.167a13.149,13.149,0,0,0,1.157,5.926,14.541,14.541,0,0,1,1.4,5.254c.018.243.021.383.021.383S634.034,829.883,628.4,830.238Z" transform="translate(-477.383 -574.615)" fill="#3f3d56"/>
    <path id="Caminho_624" data-name="Caminho 624" d="M628.4,856.977c-4.252.267-4.984-2.348-4.859-4.252,0,0,1.1,1.874,5.03,1.424a11.023,11.023,0,0,0,4.586-1.479c.018.243.021.383.021.383S634.034,856.621,628.4,856.977Z" transform="translate(-477.383 -601.353)" opacity="0.1"/>
    <g id="Grupo_264" data-name="Grupo 264" transform="translate(150.939 147.048)" opacity="0.1">
      <path id="Caminho_625" data-name="Caminho 625" d="M643.772,514.089c-.872-2.49-1.822-4.556-2.685-4.729l-.768.079c.8.431,1.683,2.351,2.487,4.65a48.183,48.183,0,0,1,2.642,15.866v5.072l-.644,8.055s-.516,18.168-.911,19.134.258,5.54.322,6.509-.452,5.163-.452,5.163-.58,10.5-1.415,11.338,0,3.222,0,3.222a5.771,5.771,0,0,1-3.037,1.121,5.91,5.91,0,0,0,4.012-1.121s-.838-2.384,0-3.222,1.415-11.338,1.415-11.338.516-4.188.453-5.163-.708-5.543-.322-6.509.911-19.134.911-19.134l.644-8.055v-5.072A48.183,48.183,0,0,0,643.772,514.089Z" transform="translate(-639.31 -509.36)"/>
    </g>
    <g id="Grupo_265" data-name="Grupo 265" transform="translate(122.754 146.091)" opacity="0.1">
      <path id="Caminho_626" data-name="Caminho 626" d="M547.67,586.75s.765-.711.185-4.061.386-12.434.386-12.434a7.552,7.552,0,0,1,.516-3.341c.644-1.021-.322-3.037-.067-3.93s1.033-5.8,1.033-5.8-.331-12.055-.331-12.7a8.428,8.428,0,0,0-.911-3.283c-.58-1.033,0-8.5,0-8.5s1.352-3.866.911-4.7.3-2.32.3-2.32-.708-1.74,0-2.062.838-1.61.838-1.61l.513-6.25s.194-2.834.774-2.964.322-1.215.911-2a14.511,14.511,0,0,0,1.005-3.973,4.016,4.016,0,0,1-1.069-.607s-.516,3.8-1.1,4.574-.322,1.868-.911,2-.771,2.964-.771,2.964l-.5,6.254s-.131,1.288-.838,1.61,0,2.062,0,2.062-.759,1.482-.3,2.32-.911,4.7-.911,4.7-.58,7.474,0,8.5a8.427,8.427,0,0,1,.911,3.283c0,.647.322,12.692.322,12.692s-.774,4.9-1.03,5.8.708,2.9.064,3.93a7.57,7.57,0,0,0-.516,3.341s-.975,9.1-.395,12.44-.185,4.061-.185,4.061a8.874,8.874,0,0,0,4.781,1.017A8.653,8.653,0,0,1,547.67,586.75Z" transform="translate(-546.51 -506.21)"/>
    </g>
    <path id="Caminho_627" data-name="Caminho 627" d="M587.92,305.25a23.937,23.937,0,0,1,2.008,2.591,3.547,3.547,0,0,0,2.758,1.543,7.4,7.4,0,0,1,.966-.082,2.08,2.08,0,0,1,1.042.456,6.663,6.663,0,0,1,2.248,4.252c.295,1.61.3,3.286.741,4.878a2.43,2.43,0,0,0,.82,1.424,3.534,3.534,0,0,0,2.1.27,3.707,3.707,0,0,1,2.648.875,2.1,2.1,0,0,1,.413,2.6,1.582,1.582,0,0,0-.34.589,1.088,1.088,0,0,0,.3.781l1.986,2.7a2.883,2.883,0,0,1,.768,1.822,1.427,1.427,0,0,1-2.515.817c.216.671-.446,1.367-1.145,1.458a3.677,3.677,0,0,1-2.014-.528l-.052,1.145c-.583.3-1.2-.3-1.664-.777s-1.421-.747-1.643-.128a.8.8,0,0,0,.188.753c.811,1.011,2.712.753,3.271,1.926a1.58,1.58,0,0,1-.969,2.02,2.653,2.653,0,0,1-2.375-.486c-.677-.486-1.339-1.333-2.223-1.327-1.1,0-1.761,1.276-2.791,1.673a2.849,2.849,0,0,1-2.834-.823c-.756-.711-1.282-1.631-1.98-2.4-1.8-1.983-4.522-2.77-7.061-3.617s-5.227-2-6.539-4.334a17.726,17.726,0,0,0-1.154-2.178c-.856-1.118-2.3-1.64-3.234-2.688a4.152,4.152,0,0,1-.635-4.437,14.869,14.869,0,0,1,1.85-2.5,8.4,8.4,0,0,0,1.649-4.926,6.239,6.239,0,0,1,.143-1.992,3.1,3.1,0,0,1,2.25-1.853,9.25,9.25,0,0,1,3.037-.07,27.85,27.85,0,0,0,3.323.3c.735-.033,1.3-.607,2.011-.8A4.912,4.912,0,0,1,587.92,305.25Z" transform="translate(-439.162 -219.322)" fill="#3f3d56"/>
    <g id="Grupo_266" data-name="Grupo 266" transform="translate(129.606 91.896)" opacity="0.1">
      <path id="Caminho_628" data-name="Caminho 628" d="M658.766,329.8c.3,1.619.3,3.286.744,4.875a3.074,3.074,0,0,0,.483,1.1c-.036-.106-.07-.216-.1-.322-.422-1.591-.446-3.259-.741-4.878a8.678,8.678,0,0,0-.975-2.8A9.638,9.638,0,0,1,658.766,329.8Z" transform="translate(-631.116 -327.77)"/>
      <path id="Caminho_629" data-name="Caminho 629" d="M681.462,363.955a1.561,1.561,0,0,0-.343.607,1.081,1.081,0,0,0,.3.777c.027.036.052.073.079.106a.468.468,0,0,1,0-.112,1.591,1.591,0,0,1,.343-.589,2.06,2.06,0,0,0-.185-2.345A1.874,1.874,0,0,1,681.462,363.955Z" transform="translate(-647.088 -351.882)"/>
      <path id="Caminho_630" data-name="Caminho 630" d="M611.587,381.384a1.661,1.661,0,0,1-1.075,1.64,2.653,2.653,0,0,1-2.375-.489c-.677-.489-1.339-1.33-2.22-1.324-1.105,0-1.762,1.276-2.794,1.67a2.842,2.842,0,0,1-2.834-.823c-.756-.711-1.282-1.631-1.977-2.4-1.8-1.983-4.522-2.773-7.064-3.62s-5.212-2-6.527-4.319c.118.258.24.513.377.759,1.312,2.333,4,3.487,6.536,4.334s5.266,1.634,7.064,3.617c.7.771,1.215,1.692,1.977,2.4a2.852,2.852,0,0,0,2.834.823c1.033-.4,1.689-1.664,2.794-1.673.881,0,1.519.8,2.223,1.327a2.551,2.551,0,0,0,2.372.486,1.581,1.581,0,0,0,.972-2.02,1.42,1.42,0,0,0-.282-.392Z" transform="translate(-579.967 -358.372)"/>
      <path id="Caminho_631" data-name="Caminho 631" d="M670.331,384.87a1.662,1.662,0,0,1,.085.623,1.431,1.431,0,0,1-2.518.82c.216.668-.446,1.364-1.145,1.458a3.652,3.652,0,0,1-2.014-.528c-.018.38-.033.762-.052,1.142-.583.3-1.215-.3-1.661-.774s-1.421-.75-1.646-.128a.8.8,0,0,0,.188.75,1.557,1.557,0,0,0,.167.179.556.556,0,0,1,.03-.158c.225-.607,1.181-.34,1.646.128s1.078,1.084,1.664.777c0-.383.033-.762.049-1.145a3.821,3.821,0,0,0,2.017.529c.7-.079,1.361-.787,1.142-1.458a1.43,1.43,0,0,0,2.518-.817,2.287,2.287,0,0,0-.471-1.4Z" transform="translate(-633.326 -367.528)"/>
      <path id="Caminho_632" data-name="Caminho 632" d="M572.657,357.266c-.853-1.118-2.3-1.637-3.232-2.688a3.515,3.515,0,0,1-.355-.468,3.86,3.86,0,0,0,.741,1.242c.935,1.048,2.378,1.57,3.232,2.688a4.114,4.114,0,0,1,.325.5A6.859,6.859,0,0,0,572.657,357.266Z" transform="translate(-569.07 -346.11)"/>
    </g>
    <path id="Caminho_633" data-name="Caminho 633" d="M592.572,362.39s.708,7.86-2.515,10.241,6.894,8.893,6.894,8.893l7.669-1.677s-3.739-3.478-3.739-4.96.644-9.795,1.677-10.761S592.572,362.39,592.572,362.39Z" transform="translate(-453.636 -259.979)" fill="#fbbebe"/>
    <path id="Caminho_634" data-name="Caminho 634" d="M549.133,291.46l-1.752,3.83s-2.612,1.549-2.8,1.692-2.272,2.515-2.272,2.515l-5.124,3.286s-.124-.234-.3-.565a15.3,15.3,0,0,0-1.191-1.9c-.434-.483,0-5.6,0-5.6a4.018,4.018,0,0,0,.653-3.238c-.361-2.077-.41-10.244-.41-10.244s-.386-6.864.146-8.313-1.215-6.041-1.215-6.041-4.926-4.9-4.589-5.907,4.109,0,4.109,0a8.5,8.5,0,0,0,2.269.823c.468.027,2.967.039,4.884.043H543.8s1.594,5.555,1.4,6.135c-.04.112-.079.225-.115.334-.155.447-.273.844-.079,1.115a38.032,38.032,0,0,1,.774,4.446l.531,4.446a38.4,38.4,0,0,1,.771,3.964c-.049.486-1.257,1.5-.726,2.415a13.4,13.4,0,0,1,.729,3.72,10.575,10.575,0,0,0,1.765,2.84A1.487,1.487,0,0,0,549.133,291.46Z" transform="translate(-412.438 -189.049)" fill="#a10208"/>
    <circle id="Elipse_103" data-name="Elipse 103" cx="9.279" cy="9.279" r="9.279" transform="translate(135.568 89.081)" opacity="0.1"/>
    <circle id="Elipse_104" data-name="Elipse 104" cx="9.279" cy="9.279" r="9.279" transform="translate(135.568 88.695)" fill="#fbbebe"/>
    <path id="Caminho_635" data-name="Caminho 635" d="M586.106,411c-.838.911-1.03,9.719-.535,10.5s-2.494,2.32-4.234,2.254-6.5,1.418-6.5,1.418-9.54-2.579-11.541-1.288-4.832-2.32-3.994-3.608-.911-3.092-1.16-3.8a5.671,5.671,0,0,1-.1-.911h0c-.234-3.244-.477-13.637-.477-13.637V390l8.765-6.187a42.042,42.042,0,0,1,4.067,2.354,19.917,19.917,0,0,1,2.63,2.026c2.387,2.257,8.313,4.641,8.313,4.641s6.509,7.8,7.344,8.571S586.941,410.1,586.106,411Z" transform="translate(-431.45 -274.893)" fill="#fff"/>
    <path id="Caminho_636" data-name="Caminho 636" d="M557.57,419.9V409.64s.267,18.688.477,23.9C557.813,430.293,557.57,419.9,557.57,419.9Z" transform="translate(-431.457 -292.878)" opacity="0.1"/>
    <path id="Caminho_637" data-name="Caminho 637" d="M559.26,490.86a1.021,1.021,0,0,1,.067.541C559.306,491.492,559.281,491.291,559.26,490.86Z" transform="translate(-432.634 -349.431)" opacity="0.1"/>
    <path id="Caminho_638" data-name="Caminho 638" d="M570.457,389.48a7.866,7.866,0,0,0-1.4,1.98c-.483,1.063-11.487.194-11.487.194V390l8.765-6.187a42.056,42.056,0,0,1,4.067,2.354C570.457,387.98,570.457,389.48,570.457,389.48Z" transform="translate(-431.457 -274.893)" opacity="0.1"/>
    <path id="Caminho_639" data-name="Caminho 639" d="M559.26,488.31a1.023,1.023,0,0,1,.067.541C559.306,488.945,559.281,488.744,559.26,488.31Z" transform="translate(-432.634 -347.655)" opacity="0.1"/>
    <path id="Caminho_640" data-name="Caminho 640" d="M564.315,361.917l-1.752,3.83s-2.612,1.549-2.8,1.692-2.272,2.515-2.272,2.515l-5.124,3.286s-.125-.234-.3-.565a35.681,35.681,0,0,1,3.645-4.124c1.643-1.254-.049-1.4,0-1.643s3.626-1.546,4.592-2.463a40.569,40.569,0,0,1,3.748-2.733A1.488,1.488,0,0,0,564.315,361.917Z" transform="translate(-427.621 -259.506)" opacity="0.1"/>
    <path id="Caminho_641" data-name="Caminho 641" d="M521.707,362.39a43.751,43.751,0,0,0-4.024,2.9c-.966.917-4.556,2.223-4.592,2.466s1.643.386,0,1.643-5.652,7.149-7.1,7.593-11.353,4.556-11.353,4.556-3.238,3.037-3.72,3.037,2.946,3.286,2.946,3.286,3.092,2.466,3.432,2.852,8.8,4.96,8.8,4.96,1.452.434,1.595.869,2.077,1.643,2.077,1.643,2.159,2.481,1.95,3.365-.58-25.208-.58-25.208,11,.869,11.487-.194a7.867,7.867,0,0,1,1.4-1.98s-.03-8.938-.647-9.6S521.719,363.21,521.707,362.39Z" transform="translate(-385.013 -259.979)" fill="#a10208"/>
    <path id="Caminho_642" data-name="Caminho 642" d="M508.2,415.617s2.9,3.14,4.252,3.672a3.66,3.66,0,0,1,1.883,1.935,11.061,11.061,0,0,0,2.466,1.063,6.107,6.107,0,0,1,2.175,1.449s3.238.911,3.238,1.595,1.306,1.6,1.306,1.6l-.325-18.557s-5.379.674-6.925,2.946S508.2,415.617,508.2,415.617Z" transform="translate(-397.082 -291.994)" opacity="0.1"/>
    <path id="Caminho_643" data-name="Caminho 643" d="M529,417.613c.243-.146,6.84-8.644,6.84-8.644l1.215-.249s-3.131,4.689-3.083,5.075S529,417.613,529,417.613Z" transform="translate(-411.564 -292.238)" opacity="0.1"/>
    <path id="Caminho_644" data-name="Caminho 644" d="M538.11,424.477s1.74-4.012,2.223-4.689,3.083-5.218,3.083-5.218a3.058,3.058,0,0,1,0,1.16C543.279,416.165,538.11,424.477,538.11,424.477Z" transform="translate(-417.907 -296.311)" opacity="0.1"/>
    <path id="Caminho_645" data-name="Caminho 645" d="M568.318,348.7s-3.866,7.055-3.526,7.4S568.318,348.7,568.318,348.7Z" transform="translate(-436.471 -250.447)" opacity="0.1"/>
    <path id="Caminho_646" data-name="Caminho 646" d="M574.218,357.93s-3.189,4.662-2.9,4.6A46.588,46.588,0,0,0,574.218,357.93Z" transform="translate(-441.017 -256.874)" opacity="0.1"/>
    <path id="Caminho_647" data-name="Caminho 647" d="M542.759,225.433l-6.089.434s0-.2-.021-.538c-.085-2.011-.392-9.02-.556-9.8-.194-.911-.389-2.56-.389-2.56s-3.286-.483-3.238-1.014-4.2-6.187-.966-6.074c2.527.076,6.846,3.061,8.623,4.37a1.622,1.622,0,0,1,.647,1.5,6.521,6.521,0,0,0-.055,1.154,16.176,16.176,0,0,1-.064,2.4,3.676,3.676,0,0,0,.273,2.032,38.167,38.167,0,0,1,1.519,6.278C542.631,224.661,542.759,225.433,542.759,225.433Z" transform="translate(-412.457 -151)" fill="#fbbebe"/>
    <path id="Caminho_648" data-name="Caminho 648" d="M556.489,271.621l-.115.331c-1.321-1.309-9.6-2.144-9.6-2.144-.726-.844-.076-1.215.7-2.248.453-.607,3.165-1.47,5.342-2.08h2.269S556.68,271.041,556.489,271.621Z" transform="translate(-423.722 -192.502)" opacity="0.1"/>
    <path id="Caminho_649" data-name="Caminho 649" d="M557.351,266.051l-6.09.434s0-.2-.021-.538a26.505,26.505,0,0,1,4.905-1.737h.881C557.223,265.279,557.351,266.051,557.351,266.051Z" transform="translate(-427.05 -191.618)" opacity="0.1"/>
    <path id="Caminho_650" data-name="Caminho 650" d="M556.489,270.981c-.039.112-.079.225-.115.334-1.321-1.312-9.6-2.147-9.6-2.147-.726-.844-.076-1.215.7-2.244.453-.607,3.165-1.473,5.342-2.083h2.269S556.68,270.4,556.489,270.981Z" transform="translate(-423.722 -192.057)" fill="#a10208"/>
    <path id="Caminho_651" data-name="Caminho 651" d="M596.13,442.57s-.677,13,0,13.628S596.13,442.57,596.13,442.57Z" transform="translate(-458.096 -315.807)" opacity="0.1"/>
    <path id="Caminho_652" data-name="Caminho 652" d="M612.323,460.55s-.243,14.305,0,14.448S612.323,460.55,612.323,460.55Z" transform="translate(-469.505 -328.326)" opacity="0.1"/>
    <path id="Caminho_653" data-name="Caminho 653" d="M631,466.12s.911,9.859,1.74,10.244S631,466.12,631,466.12Z" transform="translate(-482.585 -332.205)" opacity="0.1"/>
    <path id="Caminho_654" data-name="Caminho 654" d="M644.162,437.995a2.016,2.016,0,0,1-.775-.3c-.82-.532-1.74-6.235-2.946-7.007s-5.558-8.361-5.558-8.361a39.882,39.882,0,0,0-2.369-3.818c-.677-.781-.337-4.252-.337-4.252a18.935,18.935,0,0,1-2.563-3.818,3.463,3.463,0,0,1-.334-1.242s.258-.762,1.288,0,3.541,4,4.219,4.237a6.058,6.058,0,0,1,2.515,1.886,5.23,5.23,0,0,0,1.5,1.355,18.812,18.812,0,0,1,1.112,3.672c-.049.726.386,5.652.911,6.089s1.4,4.395,1.4,4.395S643.825,436.406,644.162,437.995Z" transform="translate(-481.388 -292.332)" opacity="0.1"/>
    <path id="Caminho_655" data-name="Caminho 655" d="M666.05,444.8v-.2a1.892,1.892,0,0,1,.052.437A1,1,0,0,1,666.05,444.8Z" transform="translate(-506.99 -317.221)" opacity="0.1"/>
    <path id="Caminho_656" data-name="Caminho 656" d="M668.911,465.819c-.2.343-.383.656-.541.911-.8-.823-1.7-6.193-2.867-6.94a5.469,5.469,0,0,1-1.063-1.194v-6.378a8.2,8.2,0,0,0,.607-1.279c.143,1.725.471,4.282.847,4.592.532.434,1.4,4.4,1.4,4.4S668.334,463.587,668.911,465.819Z" transform="translate(-505.869 -321.635)" opacity="0.1"/>
    <path id="Caminho_657" data-name="Caminho 657" d="M644.8,437.358a1.9,1.9,0,0,1-.774-.3c-.823-.531-1.74-6.232-2.949-7.007s-5.555-8.358-5.555-8.358a39.9,39.9,0,0,0-2.369-3.818c-.677-.781-.337-4.252-.337-4.252a19.034,19.034,0,0,1-2.563-3.818,3.492,3.492,0,0,1-.334-1.245s.255-.759,1.288,0,3.541,4,4.219,4.237a6.05,6.05,0,0,1,2.512,1.889,5.118,5.118,0,0,0,1.5,1.352,18.879,18.879,0,0,1,1.112,3.672c-.049.723.389,5.655.911,6.089s1.4,4.4,1.4,4.4S644.465,435.769,644.8,437.358Z" transform="translate(-481.833 -291.889)" fill="#a10208"/>
    <circle id="Elipse_105" data-name="Elipse 105" cx="0.653" cy="0.653" r="0.653" transform="translate(152.457 126.113)" fill="#3f3d56"/>
    <circle id="Elipse_106" data-name="Elipse 106" cx="0.653" cy="0.653" r="0.653" transform="translate(156.746 131.984)" fill="#3f3d56"/>
    <path id="Caminho_658" data-name="Caminho 658" d="M670.785,454.167s-3.143-1.437-2.661-.662S670.785,454.167,670.785,454.167Z" transform="translate(-508.399 -323.261)" opacity="0.1"/>
    <path id="Caminho_659" data-name="Caminho 659" d="M671.018,461.907s-3.192-.869-2.515-.361A5.132,5.132,0,0,0,671.018,461.907Z" transform="translate(-508.633 -328.909)" opacity="0.1"/>
    <path id="Caminho_660" data-name="Caminho 660" d="M671.3,468.089s-2.175-1.573-1.643-.993A5.114,5.114,0,0,0,671.3,468.089Z" transform="translate(-509.444 -332.794)" opacity="0.1"/>
    <path id="Caminho_661" data-name="Caminho 661" d="M679.419,476.14s-2.217,4.361-1.157,4.647S679.419,476.14,679.419,476.14Z" transform="translate(-515.293 -339.181)" opacity="0.1"/>
    <path id="Caminho_662" data-name="Caminho 662" d="M569.9,711.77s-5.09,4.832-3.608,4.768S569.9,711.77,569.9,711.77Z" transform="translate(-437.34 -503.247)" opacity="0.1"/>
    <path id="Caminho_663" data-name="Caminho 663" d="M555.24,731.97c.258,0,5.412-.516,4.058-.774S555.24,731.97,555.24,731.97Z" transform="translate(-429.835 -516.743)" opacity="0.1"/>
    <path id="Caminho_664" data-name="Caminho 664" d="M637.76,709.23s5.467.191,5.348.771S637.76,709.23,637.76,709.23Z" transform="translate(-487.292 -501.478)" opacity="0.1"/>
    <path id="Caminho_665" data-name="Caminho 665" d="M634.79,716.44s3.156,2.384,3.866,1.61S634.79,716.44,634.79,716.44Z" transform="translate(-485.224 -506.498)" opacity="0.1"/>
    <path id="Caminho_666" data-name="Caminho 666" d="M571.386,597.477a1.6,1.6,0,0,1-.2.489.493.493,0,0,1-.14.146,8.682,8.682,0,0,1-2.578,1.215c-.119-.03-.58-.17-1.087-.3-.592-.173-1.248-.358-1.494-.392s-.389-.425-.425-.808,0-.68.161-.738a.382.382,0,0,0,.137-.2,2.409,2.409,0,0,0,.085-.27l.024-.091c.085-.352.155-.8.2-1.166.027-.2.046-.374.061-.492v-.14h0V594.7l.425-.021h.4a25.045,25.045,0,0,1,3.684.036,1.037,1.037,0,0,1,.671.771,3.556,3.556,0,0,1,.152.872,3.888,3.888,0,0,1-.082,1.118Z" transform="translate(-436.942 -421.686)" fill="#fbbebe"/>
    <path id="Caminho_667" data-name="Caminho 667" d="M637.108,602.721a.464.464,0,0,0,0,.064c0,.659-.046,1.157-.046,1.239,0,.255-6.7,2.062-8.373,1.932-1.1-.085-.282-.838.331-1.616a2.549,2.549,0,0,0,.486-.823.608.608,0,0,0,0-.331c-.033-.122-.064-.231-.085-.331h0c-.158-.7-.079-.911.085-1.081a1.287,1.287,0,0,0,.222-.416,1.661,1.661,0,0,0,.094-.431,1.305,1.305,0,0,0-.246-.932c-.516-.686,1.935-1.054,1.935-1.054h4.656c.456,0,.7.644.82,1.476a.086.086,0,0,0,0,.027c.033.243.061.5.076.765s.027.5.03.741S637.108,602.475,637.108,602.721Z" transform="translate(-480.599 -424.685)" fill="#fbbebe"/>
    <path id="Caminho_668" data-name="Caminho 668" d="M579.942,670.5s-5.163,1.215-4.638.911c.2-.124.243-.544.225-1.017a6.781,6.781,0,0,0-.061-.7c-.067-.538-.164-.987-.164-.987a12.845,12.845,0,0,1,3.672-.322,1.151,1.151,0,0,1,.726.777,1.129,1.129,0,0,1,.039.106A4.421,4.421,0,0,1,579.942,670.5Z" transform="translate(-443.779 -472.988)" fill="#fbbebe"/>
    <path id="Caminho_669" data-name="Caminho 669" d="M593.235,321.546a22.35,22.35,0,0,0,2.011-.981,2.763,2.763,0,0,1,2.162-.213,3.451,3.451,0,0,1,.948.665c.607.538,1.215,1.075,1.786,1.649A10.5,10.5,0,0,0,602,324.328c1.595.975,3.62.756,5.467.465a3.369,3.369,0,0,0,1.078-.3,2.239,2.239,0,0,0,.932-2.415,5.41,5.41,0,0,0-1.388-2.366,19.437,19.437,0,0,0-6.339-4.689c-2.557-1.175-5.6-1.762-8.152-.58a8.843,8.843,0,0,0-2.126,1.452c-.887.79-3.18,2.8-2.673,4.155C589.363,321.574,591.914,321.99,593.235,321.546Z" transform="translate(-453.154 -226.142)" opacity="0.1"/>
    <path id="Caminho_670" data-name="Caminho 670" d="M593.235,320.912a21.551,21.551,0,0,0,2.011-.981,2.776,2.776,0,0,1,2.162-.213,3.587,3.587,0,0,1,.948.665c.607.538,1.215,1.075,1.786,1.649A10.38,10.38,0,0,0,602,323.694c1.595.975,3.62.756,5.467.465a3.293,3.293,0,0,0,1.078-.3,2.237,2.237,0,0,0,.932-2.415,5.41,5.41,0,0,0-1.388-2.366,19.392,19.392,0,0,0-6.339-4.686c-2.557-1.175-5.6-1.762-8.152-.583a8.932,8.932,0,0,0-2.126,1.452c-.887.79-3.18,2.8-2.673,4.158C589.363,320.942,591.914,321.358,593.235,320.912Z" transform="translate(-453.154 -225.702)" fill="#3f3d56"/>
    <path id="Caminho_671" data-name="Caminho 671" d="M608.528,336.32a3.259,3.259,0,0,1-1.075.3c-1.847.3-3.869.507-5.467-.465a10.491,10.491,0,0,1-1.871-1.676c-.571-.577-1.181-1.112-1.786-1.649a3.529,3.529,0,0,0-.948-.668,2.77,2.77,0,0,0-2.166.216,21.494,21.494,0,0,1-2.008.981c-1.321.443-3.872.027-4.443-1.494a1.135,1.135,0,0,1-.058-.228,1.259,1.259,0,0,0,.058.607c.571,1.519,3.122,1.938,4.443,1.494a21.881,21.881,0,0,0,2.008-.981,2.768,2.768,0,0,1,2.166-.213,3.451,3.451,0,0,1,.948.665c.607.538,1.215,1.075,1.786,1.649a10.493,10.493,0,0,0,1.862,1.661c1.595.975,3.617.756,5.467.465a3.339,3.339,0,0,0,1.075-.3,2.158,2.158,0,0,0,.981-2.083A2.041,2.041,0,0,1,608.528,336.32Z" transform="translate(-453.128 -238.568)" opacity="0.1"/>
    <path id="Caminho_672" data-name="Caminho 672" d="M567.087,595.451a12.55,12.55,0,0,1-.337,1.728,14.412,14.412,0,0,0,.3-1.749Z" transform="translate(-437.849 -422.241)" opacity="0.1"/>
    <path id="Caminho_673" data-name="Caminho 673" d="M571.049,598.124a8.683,8.683,0,0,1-2.578,1.215c-.258-.073-2.126-.644-2.582-.708s-.574-1.418-.264-1.546a.383.383,0,0,0,.137-.2,2.629,2.629,0,0,1-.109.27,1.344,1.344,0,0,0,.3,1.418l2.679.692,2.524-1.379c.607-.835-.073-2.761-.419-3.074s-4.486,0-4.486,0l-.091-.088h0V594.7l.425-.021h.4a25.045,25.045,0,0,1,3.684.036C571.692,594.9,571.692,597.675,571.049,598.124Z" transform="translate(-436.945 -421.686)" opacity="0.1"/>
    <path id="Caminho_674" data-name="Caminho 674" d="M636.169,598.92h-4.656s-2.451.367-1.935,1.054a1.557,1.557,0,0,1-.07,1.78c-.185.194-.264.453,0,1.418s-2.5,2.642-.829,2.77,8.374-1.677,8.374-1.932S637.414,598.92,636.169,598.92Zm.629,5a30.5,30.5,0,0,1-7.9,1.822c-1.582-.118,1.03-1.7.781-2.609s-.176-1.154,0-1.336a1.469,1.469,0,0,0,.067-1.68c-.486-.647,1.822-.993,1.822-.993h4.389C637.138,599.12,636.8,603.676,636.8,603.919Z" transform="translate(-480.593 -424.671)" opacity="0.1"/>
    <path id="Caminho_675" data-name="Caminho 675" d="M578.979,668.348a12.846,12.846,0,0,0-3.672.322s.516,2.384,0,2.706,4.641-.911,4.641-.911S579.947,668.606,578.979,668.348Zm-3.593,2.976c.5-.3,0-2.615,0-2.615a12.265,12.265,0,0,1,3.547-.3c.932.255.932,2.053.932,2.053S574.884,671.634,575.386,671.325Z" transform="translate(-443.782 -472.967)" opacity="0.1"/>
    <path id="Caminho_676" data-name="Caminho 676" d="M640.045,607.145l-7.675.911h0l7.645-1.646C640.03,606.65,640.042,606.893,640.045,607.145Z" transform="translate(-483.539 -429.886)" opacity="0.1"/>
    <path id="Caminho_677" data-name="Caminho 677" d="M489.81,581.686l7.973-1.716.17.747Z" transform="translate(-341.049 -403.698)" fill="#3f3d56"/>
    <path id="Caminho_678" data-name="Caminho 678" d="M639.094,611.39a.465.465,0,0,0,0,.064L631,613.009a2.548,2.548,0,0,0,.486-.823Z" transform="translate(-482.585 -433.354)" opacity="0.1"/>
    <path id="Caminho_679" data-name="Caminho 679" d="M485.81,585.9l9.719-1.021-9.461,1.819Z" transform="translate(-338.264 -407.117)" fill="#3f3d56"/>
    <path id="Caminho_680" data-name="Caminho 680" d="M640.639,603.78l-7.165.51a1.668,1.668,0,0,1-.094.431l7.262-.911Z" transform="translate(-484.242 -428.055)" opacity="0.1"/>
    <path id="Caminho_681" data-name="Caminho 681" d="M489.531,578l8.143-.58-8.264,1.039Z" transform="translate(-340.77 -401.923)" fill="#3f3d56"/>
    <path id="Caminho_682" data-name="Caminho 682" d="M572.446,598.034l-5.616.182c.085-.352.155-.8.2-1.166l5.26.112A3.55,3.55,0,0,1,572.446,598.034Z" transform="translate(-437.905 -423.369)" opacity="0.1"/>
    <path id="Caminho_683" data-name="Caminho 683" d="M423.12,570.76l7.66.161-.935.817-6.724.216Z" transform="translate(-294.614 -397.286)" fill="#3f3d56"/>
    <path id="Caminho_684" data-name="Caminho 684" d="M571.415,604a1.6,1.6,0,0,1-.2.489l-3.805,1.054c-.592-.173-1.248-.358-1.494-.392s-.389-.425-.425-.808Z" transform="translate(-436.972 -428.208)" opacity="0.1"/>
    <path id="Caminho_685" data-name="Caminho 685" d="M419.81,577.939l8.923-.519-8.182,2.266Z" transform="translate(-292.309 -401.923)" fill="#3f3d56"/>
    <path id="Caminho_686" data-name="Caminho 686" d="M580.2,671.166l-4.213,1.127a6.784,6.784,0,0,0-.061-.7c1.175-.158,3.134-.4,4.234-.531A1.089,1.089,0,0,1,580.2,671.166Z" transform="translate(-444.241 -474.901)" opacity="0.1"/>
    <path id="Caminho_687" data-name="Caminho 687" d="M572.74,670.861c.161-.064,6.026-.771,6.026-.771l-6.026,1.61Z" transform="translate(-442.02 -474.226)" fill="#3f3d56"/>
    <circle id="Elipse_107" data-name="Elipse 107" cx="6.569" cy="6.569" r="6.569" transform="translate(219.408 22.503)" fill="#f2f2f2"/>
    <circle id="Elipse_108" data-name="Elipse 108" cx="5.166" cy="5.166" r="5.166" transform="translate(249.971 40)" fill="#f2f2f2"/>
    <circle id="Elipse_111" data-name="Elipse 111" cx="16.58" cy="16.58" r="16.58" transform="translate(23.387 28.587)" fill="#f2f2f2"/>
    <circle id="Elipse_113" data-name="Elipse 113" cx="1.822" cy="1.822" r="1.822" transform="translate(251.791 20.274)" fill="#f2f2f2"/>
    <path id="Caminho_688" data-name="Caminho 688" d="M449.091,788s1.889,2.469-.872,6.2-5.036,6.876-4.115,9.2c0,0,4.164-6.925,7.553-7.022S452.811,792.167,449.091,788Z" transform="translate(-352.308 -556.324)" fill="#fa0"/>
    <path id="Caminho_689" data-name="Caminho 689" d="M449.337,788a3.039,3.039,0,0,1,.386.774c3.307,3.888,5.069,7.514,1.892,7.593-2.961.082-6.515,5.379-7.365,6.715a2.772,2.772,0,0,0,.1.3s4.164-6.925,7.553-7.022S453.058,792.167,449.337,788Z" transform="translate(-352.554 -556.324)" opacity="0.1"/>
    <path id="Caminho_690" data-name="Caminho 690" d="M471.534,797.1c0,.869-.1,1.573-.219,1.573s-.216-.7-.216-1.573.121-.462.24-.462S471.534,796.229,471.534,797.1Z" transform="translate(-371.249 -562.273)" fill="#ffd037"/>
    <path id="Caminho_691" data-name="Caminho 691" d="M473.087,800.426c-.762.416-1.43.668-1.485.562s.513-.529,1.276-.945.462-.112.519,0S473.846,800.009,473.087,800.426Z" transform="translate(-371.596 -564.562)" fill="#ffd037"/>
    <path id="Caminho_692" data-name="Caminho 692" d="M418.414,788s-1.889,2.469.872,6.2,5.036,6.876,4.115,9.2c0,0-4.164-6.925-7.553-7.022S414.684,792.167,418.414,788Z" transform="translate(-331.614 -556.324)" fill="#fa0"/>
    <path id="Caminho_693" data-name="Caminho 693" d="M418.414,788a3.039,3.039,0,0,0-.386.774c-3.307,3.888-5.069,7.514-1.892,7.593,2.961.082,6.515,5.379,7.365,6.715a2.785,2.785,0,0,1-.1.3s-4.164-6.925-7.553-7.022S414.684,792.167,418.414,788Z" transform="translate(-331.614 -556.324)" opacity="0.1"/>
    <path id="Caminho_694" data-name="Caminho 694" d="M416.57,797.1c0,.869.1,1.573.219,1.573s.216-.7.216-1.573-.121-.462-.24-.462S416.57,796.229,416.57,797.1Z" transform="translate(-333.281 -562.273)" fill="#ffd037"/>
    <path id="Caminho_695" data-name="Caminho 695" d="M411.538,800.426c.762.416,1.427.668,1.485.562s-.513-.529-1.276-.945-.462-.112-.519,0S410.776,800.009,411.538,800.426Z" transform="translate(-329.455 -564.562)" fill="#ffd037"/>
    <path id="Caminho_696" data-name="Caminho 696" d="M418.55,831.107s5.279-.161,6.87-1.3,8.124-2.484,8.519-.668,7.933,9.039,1.971,9.087-13.849-.929-15.438-1.9S418.55,831.107,418.55,831.107Z" transform="translate(-334.66 -584.352)" fill="#3f3d56"/>
    <path id="Caminho_697" data-name="Caminho 697" d="M436.017,844.107c-5.959.049-13.849-.929-15.438-1.9-1.215-.738-1.692-3.383-1.853-4.6h-.176s.334,4.252,1.923,5.227,9.479,1.944,15.438,1.9c1.722,0,2.317-.625,2.284-1.534C437.954,843.76,437.3,844.107,436.017,844.107Z" transform="translate(-334.66 -590.867)" opacity="0.2"/>
    <path id="Caminho_698" data-name="Caminho 698" d="M811.494,766.33s-3.374-11.459.632-19.893a18.1,18.1,0,0,0,1.464-11.356,30.468,30.468,0,0,0-1.607-5.33" transform="translate(-607.335 -515.766)" fill="none" stroke="#535461" stroke-miterlimit="10" stroke-width="2"/>
    <path id="Caminho_699" data-name="Caminho 699" d="M812.7,706.566c0,1.406-2.542,5.467-2.542,5.467s-2.545-4.073-2.545-5.467a2.545,2.545,0,0,1,5.087,0Z" transform="translate(-605.556 -497.913)" fill="#fa0"/>
    <path id="Caminho_700" data-name="Caminho 700" d="M826.482,728.821c-.762,1.178-5.112,3.213-5.112,3.213s.079-4.8.841-5.977a2.543,2.543,0,1,1,4.27,2.764Z" transform="translate(-615.137 -512.385)" fill="#fa0"/>
    <path id="Caminho_701" data-name="Caminho 701" d="M823.755,770.55c-1.251.632-6.035.194-6.035.194s2.494-4.1,3.745-4.738a2.549,2.549,0,0,1,2.29,4.556Z" transform="translate(-612.595 -540.821)" fill="#fa0"/>
    <path id="Caminho_702" data-name="Caminho 702" d="M816.116,804.083c-1.13.835-5.916,1.215-5.916,1.215s1.761-4.465,2.891-5.3a2.546,2.546,0,0,1,3.037,4.088Z" transform="translate(-607.359 -564.328)" fill="#fa0"/>
    <path id="Caminho_703" data-name="Caminho 703" d="M802.025,739.287c1.008.978,5.7,1.992,5.7,1.992s-1.151-4.662-2.156-5.64a2.542,2.542,0,1,0-3.544,3.645Z" transform="translate(-601.131 -519.366)" fill="#fa0"/>
    <path id="Caminho_704" data-name="Caminho 704" d="M791.944,777.034c1.254.632,6.035.194,6.035.194s-2.49-4.1-3.745-4.738a2.545,2.545,0,0,0-2.29,4.544Z" transform="translate(-593.719 -545.358)" fill="#fa0"/>
    <path id="Caminho_705" data-name="Caminho 705" d="M789.276,816.317c1.127.835,5.913,1.215,5.913,1.215s-1.762-4.468-2.891-5.3a2.548,2.548,0,0,0-3.037,4.091Z" transform="translate(-592.063 -572.845)" fill="#fa0"/>
    <path id="Caminho_706" data-name="Caminho 706" d="M812.7,706.566c0,1.406-2.542,5.467-2.542,5.467s-2.545-4.073-2.545-5.467a2.545,2.545,0,0,1,5.087,0Z" transform="translate(-605.556 -497.913)" fill="#fa0"/>
    <path id="Caminho_707" data-name="Caminho 707" d="M826.482,728.821c-.762,1.178-5.112,3.213-5.112,3.213s.079-4.8.841-5.977a2.543,2.543,0,1,1,4.27,2.764Z" transform="translate(-615.137 -512.385)" fill="#fa0"/>
    <path id="Caminho_708" data-name="Caminho 708" d="M823.755,770.55c-1.251.632-6.035.194-6.035.194s2.494-4.1,3.745-4.738a2.549,2.549,0,0,1,2.29,4.556Z" transform="translate(-612.595 -540.821)" fill="#fa0"/>
    <path id="Caminho_709" data-name="Caminho 709" d="M816.116,804.083c-1.13.835-5.916,1.215-5.916,1.215s1.761-4.465,2.891-5.3a2.546,2.546,0,0,1,3.037,4.088Z" transform="translate(-607.359 -564.328)" fill="#fa0"/>
    <path id="Caminho_710" data-name="Caminho 710" d="M802.025,739.287c1.008.978,5.7,1.992,5.7,1.992s-1.151-4.662-2.156-5.64a2.542,2.542,0,1,0-3.544,3.645Z" transform="translate(-601.131 -519.366)" fill="#fa0"/>
    <path id="Caminho_711" data-name="Caminho 711" d="M791.944,777.034c1.254.632,6.035.194,6.035.194s-2.49-4.1-3.745-4.738a2.545,2.545,0,0,0-2.29,4.544Z" transform="translate(-593.719 -545.358)" fill="#fa0"/>
    <path id="Caminho_712" data-name="Caminho 712" d="M789.276,816.317c1.127.835,5.913,1.215,5.913,1.215s-1.762-4.468-2.891-5.3a2.548,2.548,0,0,0-3.037,4.091Z" transform="translate(-592.063 -572.845)" fill="#fa0"/>
    <path id="Caminho_713" data-name="Caminho 713" d="M788.27,838.623s4.112-.817,5.206-1.9,6.029-2.992,6.579-1.631,7.4,5.983,2.733,6.8-10.961,1.087-12.331.544S788.27,838.623,788.27,838.623Z" transform="translate(-592.09 -588.782)" fill="#3f3d56"/>
    <path id="Caminho_714" data-name="Caminho 714" d="M802.794,850.484c-4.659.817-10.961,1.09-12.331.547-1.042-.416-1.768-2.405-2.056-3.341l-.137.027s.823,3.265,2.193,3.809,7.672.273,12.331-.544c1.342-.237,1.728-.79,1.582-1.488C804.261,849.959,803.793,850.311,802.794,850.484Z" transform="translate(-592.09 -597.886)" opacity="0.2"/>
    <path id="Caminho_715" data-name="Caminho 715" d="M259.133,96.055v.109a.35.35,0,0,0,0,.058v.325a.04.04,0,0,1,0,.018v.2l-.027.213a.709.709,0,0,1-.024.14h0a.562.562,0,0,0,0,.07v.043a.155.155,0,0,1,0,.036.127.127,0,0,1-.015.073c-.015.024,0,.049-.015.073s0,.036,0,.055a.939.939,0,0,1-.021.094h0a.491.491,0,0,1-.015.064.759.759,0,0,1-.021.079.358.358,0,0,1-.024.094.075.075,0,0,0,0,.024.3.3,0,0,1-.03.1c-.027.1-.061.2-.094.3,0,.03-.024.061-.033.091a.334.334,0,0,1-.021.052,6.606,6.606,0,0,1-.887,1.622l-.07.091a6.726,6.726,0,0,1-.571.65l-9.57,9.488-9.476-9.476a6.75,6.75,0,0,1-.744-.884,6.524,6.524,0,0,1-.386-.607,6.715,6.715,0,0,1-.811-3.809,2.483,2.483,0,0,1,.042-.364q.046-.3.118-.638a.445.445,0,0,1,.033-.125l.018-.067v-.036l.027-.1h0c.021-.073.046-.146.07-.219s.021-.067.033-.1c.049-.143.1-.282.164-.422l.036-.082.055-.125.1-.2h0c0-.03.03-.061.049-.091a.813.813,0,0,1,.055-.1c.021-.043.046-.082.07-.125a.613.613,0,0,0,.033-.061.125.125,0,0,0,.021-.033h0l.046-.073c.018-.027.033-.055.052-.079l.121-.182.043-.061.055-.076.058-.079.073-.094.064-.079.024-.03.046-.055a1.053,1.053,0,0,1,.076-.088.446.446,0,0,1,.03-.039h0l.055-.064.067-.07c.058-.064.118-.128.182-.188l.073-.073.112-.106.076-.07.091-.079.058-.052.061-.049.118-.1.061-.049c.1-.079.207-.155.3-.225l.061-.043.064-.043.061-.039.088-.055.046-.027.064-.039c.088-.049.176-.1.264-.146l.052-.027.082-.043.067-.03.07-.033.067-.033.067-.03.07-.03c.091-.039.185-.076.276-.109l.07-.027.073-.027.067-.021.055-.018.128-.043.1-.07.052-.015h.052l.094-.027.121-.03c.125-.03.252-.058.38-.082h.346c.121,0,.243-.027.367-.036h1.017c.1,0,.2.018.3.027l.134.018h.282c.128.024.252.052.377.082l.155.039h.043l.067.018.128.036.055.018.276.094.061.024.082.03.128.052.14.061.055.024.079.036.067.033.067.03.085.046.067.033.155.085.064.036.225.137.061.039.064.043.061.043h0l.043.027.264.194.061.049.118.1.061.049.058.052.091.079.076.07.112.106.073.073.076-.073c.036-.036.073-.073.112-.106a.833.833,0,0,1,.076-.07l.088-.079.061-.052.058-.049.121-.1.061-.049c.1-.079.207-.155.3-.225l.064-.043.064-.043.061-.039.088-.055.046-.027.064-.039c.088-.049.176-.1.264-.146l.052-.027.082-.043.067-.03.067-.033.07-.033.067-.03.07-.03c.091-.039.182-.076.276-.109l.067-.027.076-.027.067-.021.055-.018.128-.043.064-.018.055-.015h.052l.091-.027.122-.03q.191-.046.383-.082h.343c.121,0,.246-.027.367-.036h1.017l.3.027.131.018h.285c.125.024.252.052.377.082l.155.039h.043l.067.018.128.036.055.018.276.094.061.024.082.03.125.052.143.061.055.024.076.036.067.033.07.03.082.046.067.033.155.085.067.036.225.137.058.039.064.043.067.049h0l.039.027c.091.064.179.128.264.194a.472.472,0,0,1,.061.049c.043.03.082.064.121.1l.061.049.058.052.079.067.076.07.043.043h0l.073.07.033.033.039.039.073.073.112.118a.667.667,0,0,1,.061.07c.036.036.07.076.106.115l.109.131a5.441,5.441,0,0,1,.349.474.455.455,0,0,1,.064.052.567.567,0,0,1,.049.07l.039.064.067.106.058.1.033.061.027.049.027.049.039.073.036.073c.088.17.167.346.24.522l.03.076c.027.073.055.146.079.219a.611.611,0,0,1,.024.067.341.341,0,0,0,.03.094l.027.085.018.055a.313.313,0,0,0,.021.076l.027.1c.015.052.027.106.04.158s.015.055.021.082.015.076.024.115a.3.3,0,0,0,0,.052v.878h0a.412.412,0,0,1,0,.061.412.412,0,0,1,0,.061v.1h0v.1Z" transform="translate(-207.728 -69.88)" fill="#ff3940"/>
    <path id="Caminho_716" data-name="Caminho 716" d="M259.571,96.055v.109a.347.347,0,0,0,0,.058c0,.049,0,.094,0,.143v.182a.04.04,0,0,1,0,.018v.2l-.027.213a.707.707,0,0,1-.024.14h0a.568.568,0,0,0,0,.07v.043a.152.152,0,0,1,0,.036.127.127,0,0,1-.015.073c-.015.024,0,.049-.015.073s0,.036,0,.055a.947.947,0,0,1-.021.094h0a.486.486,0,0,1-.015.064.752.752,0,0,1-.021.079.359.359,0,0,1-.024.094.074.074,0,0,0,0,.024.3.3,0,0,1-.03.1c-.027.1-.061.2-.094.3,0,.03-.024.061-.033.091a.337.337,0,0,1-.021.052,6.682,6.682,0,0,0-1.777-6.308,6.791,6.791,0,0,0-1.145-.911c-.121-.076-.243-.149-.367-.216a6.682,6.682,0,0,0-7.177.4,6.435,6.435,0,0,0-.875.738,7.344,7.344,0,0,0-.82-.7h0a6.959,6.959,0,0,0-.692-.437,6.709,6.709,0,0,0-6.454,0,6.938,6.938,0,0,0-.954.635,6.794,6.794,0,0,0-1.294,1.373c-.134.188-.258.383-.371.58h0a6.3,6.3,0,0,0-.285.574c-.049.106-.094.216-.137.325a.445.445,0,0,1,.033-.125l.018-.067v-.036l.027-.1h0c.021-.073.046-.146.07-.219s.021-.067.033-.1c.049-.143.1-.282.164-.422l.036-.082.055-.125.1-.2h0c0-.03.03-.061.049-.091a.813.813,0,0,1,.055-.1c.021-.043.046-.082.07-.125a.607.607,0,0,0,.033-.061.124.124,0,0,0,.021-.033h0l.046-.073c.018-.027.033-.055.052-.079l.121-.182.043-.061.055-.076.058-.079.073-.094.064-.079.024-.03.046-.055a1.056,1.056,0,0,1,.076-.088.446.446,0,0,1,.03-.039h0l.055-.064.067-.07c.058-.064.118-.128.182-.188l.073-.073.112-.106.076-.07.091-.079.058-.052.061-.049.118-.1.061-.049c.1-.079.207-.155.3-.225l.061-.043.064-.043.061-.039.088-.055.046-.027.064-.039c.088-.049.176-.1.264-.146l.052-.027.082-.043.067-.03.07-.033.067-.033.067-.03.07-.03c.091-.039.185-.076.276-.109l.07-.027.073-.027.067-.021.055-.018.128-.043.1-.049.052-.015h.052l.094-.027.121-.03c.125-.03.252-.058.38-.082h.346c.121,0,.243-.027.367-.036H243.9c.1,0,.2.018.3.027l.134.018h.282c.128.024.252.052.377.082l.155.039h.043l.067.018.128.036.055.018.276.094.061.024.082.03.128.052.14.061.055.024.079.036.067.033.067.03.085.046.067.033.155.085.064.036.225.137.061.039.064.043.061.043h0l.043.027.264.194.061.049.118.1.061.049.058.052.091.079.076.07.112.106.073.073.076-.073c.036-.036.073-.073.112-.106A.827.827,0,0,1,248.4,91l.088-.079.061-.052.058-.049.121-.1.061-.049c.1-.079.207-.155.3-.225l.064-.043.064-.043.061-.039.088-.055.046-.027.064-.039c.088-.049.176-.1.264-.146l.052-.027.082-.043.067-.03.067-.033.07-.033.067-.03.07-.03c.091-.039.182-.076.276-.109l.067-.027.076-.027.067-.021.055-.018.128-.043.064-.018.055-.015h.052l.091-.027.121-.03q.191-.046.383-.082h.343c.121,0,.246-.027.368-.036h1.017l.3.027.131.018h.285c.125.024.252.052.377.082l.155.039h.043l.067.018.128.036.055.018.276.094.061.024.082.03.125.052.143.061.055.024.076.036.067.033.07.03.082.046.067.033.155.085.067.036.225.137.058.039.064.043.067.049h0l.039.027c.091.064.179.128.264.194a.474.474,0,0,1,.061.049c.043.03.082.064.122.1l.061.049.058.052.079.067.076.07.042.043h0l.073.07.033.033.039.039.073.073.112.118a.666.666,0,0,1,.061.07c.036.036.07.076.106.115l.109.131a5.441,5.441,0,0,1,.349.474.457.457,0,0,1,.064.052.577.577,0,0,1,.049.07l.039.064.067.106.058.1.033.061.027.049.027.049.039.073.036.073c.088.17.167.346.24.522l.03.076c.027.073.055.146.079.219a.618.618,0,0,1,.024.067.341.341,0,0,0,.03.094l.027.085.018.055a.311.311,0,0,0,.021.076l.027.1c.015.052.027.106.039.158s.015.055.021.082.015.076.024.115a.31.31,0,0,0,0,.052v.878h0a60.457,60.457,0,0,1,0,.121v.1h0v.1Z" transform="translate(-208.166 -69.88)" opacity="0.1"/>
  </g>
</svg>
