<svg xmlns="http://www.w3.org/2000/svg" width="233.691" height="210.015" viewBox="0 0 233.691 210.015">
  <g id="undraw_fall_thyk" transform="translate(9.691 -2)">
    <path id="Caminho_561" data-name="Caminho 561" d="M406.371,167.544l-88.263,34.848L298.8,210.015l-41.771-14.562-35.649-12.427L218.415,182,214.076,171l-17.253-43.7-8.66-21.939-2.6-6.594L183.675,94l-4.2-10.633-6.8-17.215,14.847-5.861,14.179-5.6L211.9,50.665,340.224,0Z" transform="translate(-182.371 2)" fill="#f6f6f6"/>
    <path id="Caminho_562" data-name="Caminho 562" d="M64.69,476.747a4.135,4.135,0,1,1,1.75,8.083c-2.232.483-8.149-2.466-8.149-2.466S62.458,477.231,64.69,476.747Z" transform="translate(-58.29 -364.806)" fill="#00be59"/>
    <path id="Caminho_563" data-name="Caminho 563" d="M82.489,803.555a4.135,4.135,0,0,1,6.355,5.292c-1.461,1.755-7.94,3.074-7.94,3.074S81.028,805.31,82.489,803.555Z" transform="translate(-75.102 -606.72)" fill="#00be59"/>
    <path id="Caminho_564" data-name="Caminho 564" d="M637.038,248.958c-6.661-11.255-19.84-11.78-19.84-11.78s-12.842-1.642-21.08,15.5c-7.678,15.978-18.276,31.4-1.706,35.145l2.993-9.315,1.853,10.009a64.836,64.836,0,0,0,7.09.121c17.745-.573,34.644.168,34.1-6.2C639.725,273.972,643.448,259.787,637.038,248.958Z" transform="translate(-450.323 -186.748)" fill="#2f2e41"/>
    <path id="Caminho_565" data-name="Caminho 565" d="M679.4,363.333a63.237,63.237,0,0,1,4.607,17.852l18.427-1.152c-4.237-6-5.643-12.894-4.031-20.731Z" transform="translate(-520.028 -277.567)" fill="#ffb8b8"/>
    <path id="Caminho_566" data-name="Caminho 566" d="M679.4,363.333a63.237,63.237,0,0,1,4.607,17.852l18.427-1.152c-4.237-6-5.643-12.894-4.031-20.731Z" transform="translate(-520.028 -277.567)" opacity="0.2"/>
    <path id="Caminho_567" data-name="Caminho 567" d="M328.619,751.748s-9.537,5.109-4.7,9.47,11.233-5.773,11.233-5.773Z" transform="translate(-254.743 -569.313)" fill="#ffb8b8"/>
    <path id="Caminho_568" data-name="Caminho 568" d="M563.206,617.893l-.149,6.979-.318,15.08-.267,12.794-19.311,7.623L501.39,645.808l2.748-15.26,2.22-12.322.99-5.517,50.1-6.91Z" transform="translate(-372.736 -450.355)" fill="#2f2e41"/>
    <path id="Caminho_569" data-name="Caminho 569" d="M635.888,658.658l-.15,6.979c-17.725-.455-45.2-4.734-56.7-6.645l.99-5.517,50.1-6.91Z" transform="translate(-445.418 -491.12)" fill="#3f3d56"/>
    <circle id="Elipse_100" data-name="Elipse 100" cx="14.396" cy="14.396" r="14.396" transform="translate(153.903 61.868)" fill="#ffb8b8"/>
    <path id="Caminho_570" data-name="Caminho 570" d="M616.7,479.2s1.728,15.548-8.638,14.4l-1.728-15.548-9.214-9.214-25.914-.576-19,17.852s-.576-18.427,1.728-20.155,7.486-5.759,7.486-5.759v-2.879L545.87,425.645s9.214-19,16.7-19.579l9.79-.576s3.455-1.728,3.455-2.3-.576-5.183,2.3-4.031c0,0,.259-5.908,3.294-4.106,0,0,9.554,7.486,19.251.328,0,0,4.521-.829,3.945,1.474s0,4.031,1.152,4.031,6.334,1.728,6.334,2.879c0,.248.374,2.632.962,6.219v.006c2.136,13.078,7.1,42.147,7.1,42.147S625.339,459.621,616.7,479.2Z" transform="translate(-420.76 -303.888)" fill="#00be59"/>
    <path id="Caminho_571" data-name="Caminho 571" d="M386.4,504.056l-4.031,2.879-36.855,47.221L325.934,569.7s10.941-1.728,8.638,7.486l67.376-38.583Z" transform="translate(-257.258 -385.178)" fill="#00be59"/>
    <path id="Caminho_572" data-name="Caminho 572" d="M688.55,408.5v.006c-.766,4.5-25.724,3.565-29.179,3.565a16.087,16.087,0,0,1-9.789-2.879c-3.455-2.3-1.728-5.183-1.728-5.183s2.942-2.241,2.942-2.817-.576-5.183,2.3-4.031c0,0,.259-5.908,3.294-4.106,0,0,10.067,8,19.764.841,0,0,4.521-.829,3.945,1.474s0,4.031,1.152,4.031,6.334,1.728,6.334,2.879C687.588,402.523,687.963,404.908,688.55,408.5Z" transform="translate(-496.254 -302.401)" fill="#3f3d56"/>
    <path id="Caminho_573" data-name="Caminho 573" d="M765.837,351.937s-4.607-9.79-9.214-5.183,5.183,11.517,5.183,11.517Z" transform="translate(-576.518 -267.323)" fill="#ffb8b8"/>
    <path id="Caminho_574" data-name="Caminho 574" d="M769.113,361.547s-7.114,8.99-9.315,9.678c0,0,6.436,25.45,14.5,32.36l4.607,23.61s19.579-8.062,14.972-21.307l-.138-.395a130.64,130.64,0,0,0-15.784-31.113Z" transform="translate(-579.795 -279.236)" fill="#00be59"/>
    <path id="Caminho_575" data-name="Caminho 575" d="M723,424.7l14.167,38.984-5.183-23.61Z" transform="translate(-537.48 -315.722)" opacity="0.2"/>
    <path id="Caminho_576" data-name="Caminho 576" d="M615.6,218.457l-13.02-6.82-17.98,2.79-3.72,16.43,9.26-.356,2.587-6.036V230.4l4.273-.164,2.48-9.61,1.55,10.23,15.19-.31Z" transform="translate(-431.829 -157.332)" fill="#2f2e41"/>
    <path id="Caminho_577" data-name="Caminho 577" d="M288.649,419.682c-8.95-4.989-14.522-11.8-16.56-20.246-1.514-6.27-1.079-13.326,1.293-20.971a56.167,56.167,0,0,1,7.81-15.777c18.125-25.656,19.761-42.374,17.942-51.88-1.995-10.424-8.476-14.753-8.541-14.8l.28-.43c.067.043,6.719,4.473,8.761,15.108,1.178,6.131.624,13.122-1.647,20.779-2.826,9.529-8.335,20.132-16.376,31.514a55.656,55.656,0,0,0-7.74,15.632c-3.89,12.539-4.44,29.764,15.027,40.617Z" transform="translate(-216.573 -230.198)" fill="#2f2e41"/>
    <path id="Caminho_578" data-name="Caminho 578" d="M257.422,466.693c-7.056-3.933-6.859-10.167-5.452-14.7a19.934,19.934,0,0,1,2.772-5.6c6.35-8.988,6.924-14.827,6.287-18.142a8.015,8.015,0,0,0-2.932-5.093l.28-.43a8.4,8.4,0,0,1,3.157,5.426c.954,4.965-1.19,11.2-6.372,18.535a19.418,19.418,0,0,0-2.7,5.456c-1.351,4.355-1.543,10.337,5.212,14.1Z" transform="translate(-201.692 -324.716)" fill="#2f2e41"/>
    <path id="Caminho_579" data-name="Caminho 579" d="M386.649,244.693l-.25-.448c6.755-3.766,6.563-9.748,5.212-14.1a19.42,19.42,0,0,0-2.7-5.456c-5.182-7.334-7.325-13.571-6.372-18.535a8.4,8.4,0,0,1,3.157-5.426l.28.43a8.064,8.064,0,0,0-2.937,5.113c-.63,3.314-.05,9.147,6.291,18.122a19.937,19.937,0,0,1,2.772,5.6C393.509,234.527,393.7,240.76,386.649,244.693Z" transform="translate(-299.174 -159.68)" fill="#2f2e41"/>
    <path id="Caminho_580" data-name="Caminho 580" d="M416.926,226.77a7.7,7.7,0,0,1-12.894-8.412c2.323-3.561,14.018-7.4,14.018-7.4S419.249,223.209,416.926,226.77Z" transform="translate(-314.386 -167.288)" fill="#00be59"/>
    <path id="Caminho_581" data-name="Caminho 581" d="M405.926,133.77a7.7,7.7,0,0,1-12.894-8.412c2.323-3.561,14.018-7.4,14.018-7.4S408.249,130.209,405.926,133.77Z" transform="translate(-306.208 -98.151)" fill="#00be59"/>
    <path id="Caminho_582" data-name="Caminho 582" d="M375.47,474.58a7.954,7.954,0,0,1-3.433-15.135c3.875-1.846,15.5.856,15.989.972l.312.073-.139.288c-.221.456-5.444,11.183-9.319,13.029h0A7.906,7.906,0,0,1,375.47,474.58Zm.647-15.265a9.615,9.615,0,0,0-3.86.593,7.441,7.441,0,0,0,6.4,13.436c3.371-1.606,8.059-10.746,8.935-12.5a62.4,62.4,0,0,0-11.475-1.53Z" transform="translate(-288.16 -351.535)" fill="#2f2e41"/>
    <path id="Caminho_583" data-name="Caminho 583" d="M292.73,234.484a7.7,7.7,0,1,1-10.373,11.376c-3.142-2.865-5.052-15.024-5.052-15.024S289.588,231.62,292.73,234.484Z" transform="translate(-221.106 -182.065)" fill="#00be59"/>
    <path id="Caminho_584" data-name="Caminho 584" d="M222.73,360.484a7.7,7.7,0,1,1-10.373,11.376c-3.142-2.865-5.052-15.024-5.052-15.024S219.588,357.62,222.73,360.484Z" transform="translate(-169.068 -275.734)" fill="#00be59"/>
    <path id="Caminho_585" data-name="Caminho 585" d="M322.722,363.395c-2.569,0-7.482-2.433-7.708-2.545l-.287-.143.2-.249c.173-.212,4.251-5.209,6.544-5.705h0a4.392,4.392,0,1,1,1.858,8.584,2.911,2.911,0,0,1-.61.058Zm-7.186-2.863c1.21.578,5.844,2.7,7.688,2.3a3.878,3.878,0,1,0-1.641-7.581c-1.844.4-5.184,4.251-6.047,5.277Z" transform="translate(-248.927 -274.11)" fill="#2f2e41"/>
    <path id="Caminho_586" data-name="Caminho 586" d="M236.989,789.507a4.135,4.135,0,1,1,7.2,4.073c-1.125,1.987-7.264,4.441-7.264,4.441S235.865,791.495,236.989,789.507Z" transform="translate(-190.751 -595.823)" fill="#00be59"/>
    <path id="Caminho_587" data-name="Caminho 587" d="M169.913,598.61a37.965,37.965,0,0,1-5.288-.456l-.316-.051.119-.3c.1-.254,2.513-6.236,4.556-7.391h0a4.392,4.392,0,0,1,4.323,7.646A7.7,7.7,0,0,1,169.913,598.61Zm-4.884-.914c1.327.192,6.383.846,8.025-.082a3.878,3.878,0,1,0-3.817-6.752h0c-1.642.928-3.689,5.6-4.208,6.834Z" transform="translate(-137.105 -448.954)" fill="#2f2e41"/>
  </g>
</svg>
