<svg xmlns="http://www.w3.org/2000/svg" width="282" height="228.223" viewBox="0 0 282 228.223"><g transform="translate(-66 -134)"><path d="M268.182,119.649c-49.59-32-72.636-5.972-86.961,43.412C156.772,247.434,206.79,277.55,206.79,277.55S246.8,294.8,289.978,289.1c27.465,20.258,94.5,57.841,106.446-4.214C410.31,239.272,499.345,157.938,419.9,142.241S289.068,127.255,268.182,119.649Z" transform="translate(-104.49 28.422)" fill="#f9f9f9"/><g transform="translate(65.999 134)"><path d="M747.289,573.515a13.623,13.623,0,0,0,13.155-2.317c4.608-3.867,6.052-10.239,7.228-16.138l3.477-17.45-7.279,5.012c-5.234,3.6-10.587,7.324-14.211,12.545s-5.206,12.347-2.294,18" transform="translate(-543.808 -385.63)" fill="#e6e6e6"/><path d="M749.11,623.761c-.737-5.366-1.494-10.8-.977-16.225a25.518,25.518,0,0,1,4.92-13.379,22.256,22.256,0,0,1,5.71-5.174c.571-.36,1.1.544.528.9a21.159,21.159,0,0,0-8.37,10.1,33.915,33.915,0,0,0-1.8,14.61c.19,2.977.592,5.935,1,8.889a.542.542,0,0,1-.365.644.526.526,0,0,1-.644-.365Z" transform="translate(-545.006 -414.75)" fill="#f2f2f2"/><path d="M767.034,633.324a10.028,10.028,0,0,0,8.738,4.51c4.423-.21,8.111-3.3,11.43-6.228l9.818-8.669-6.5-.311c-4.673-.224-9.467-.432-13.918,1.009s-8.556,4.909-9.37,9.516" transform="translate(-555.834 -433.808)" fill="#e6e6e6"/><path d="M745.709,655.421c3.546-6.274,7.659-13.247,15.008-15.476a16.748,16.748,0,0,1,6.313-.652c.67.058.5,1.091-.166,1.033a15.559,15.559,0,0,0-10.074,2.665,26.183,26.183,0,0,0-6.924,7.472c-1.147,1.746-2.174,3.566-3.2,5.384C746.337,656.428,745.377,656.008,745.709,655.421Z" transform="translate(-543.688 -443.325)" fill="#f2f2f2"/><path d="M481.84,481.764a26.849,26.849,0,0,1-25.927-4.567c-9.081-7.622-11.928-20.179-14.245-31.806L434.816,411l14.346,9.878c10.316,7.1,20.865,14.435,28.009,24.724s10.261,24.335,4.522,35.468" transform="translate(-367.214 -313.746)" fill="#e6e6e6"/><path d="M513.78,580.792c1.452-10.576,2.945-21.288,1.926-31.978-.9-9.493-3.8-18.766-9.7-26.369a43.863,43.863,0,0,0-11.254-10.2c-1.125-.71-2.161,1.073-1.041,1.78a41.7,41.7,0,0,1,16.495,19.9c3.591,9.134,4.168,19.091,3.549,28.794-.374,5.868-1.167,11.7-1.967,17.519a1.068,1.068,0,0,0,.72,1.268,1.037,1.037,0,0,0,1.268-.72Z" transform="translate(-400.38 -371.137)" fill="#f2f2f2"/><path d="M430.787,599.638a19.764,19.764,0,0,1-17.221,8.888c-8.717-.414-15.985-6.5-22.527-12.274l-19.35-17.085,12.807-.613c9.21-.441,18.657-.852,27.429,1.988s16.862,9.675,18.466,18.755" transform="translate(-331.373 -408.698)" fill="#e6e6e6"/><path d="M493.963,643.189c-6.989-12.366-15.095-26.109-29.579-30.5a33.005,33.005,0,0,0-12.441-1.285c-1.321.114-.991,2.15.327,2.036a30.664,30.664,0,0,1,19.854,5.253c5.6,3.811,9.957,9.108,13.646,14.726,2.26,3.441,4.284,7.028,6.309,10.611.647,1.145,2.538.318,1.884-.84Z" transform="translate(-376.461 -427.455)" fill="#f2f2f2"/><path d="M341.982,280.959,281.81,268.352l-.782-.163a2.162,2.162,0,0,0-2.379,3.086L302.8,319.587a2.16,2.16,0,0,0,3.507.51l16.469-17.573a1.258,1.258,0,0,1,.922-.409,1.3,1.3,0,0,1,1.162.667l3.432,6.259a2.112,2.112,0,0,0,2.371,1.07l.017,0a2.115,2.115,0,0,0,1.664-2.019l.594-14.5a1.322,1.322,0,0,1,.13-.522,1.406,1.406,0,0,1,.338-.423l9.514-7.905a2.164,2.164,0,0,0-.936-3.781Zm.386,3.117-9.514,7.9a2.132,2.132,0,0,0-.335.342l-50.809-22.68a.754.754,0,0,0-.139-.048.866.866,0,0,0-.712,1.545L322.7,301.5a2.072,2.072,0,0,0-.562.434L305.673,319.5a1.3,1.3,0,0,1-2.1-.306l-24.147-48.312a1.3,1.3,0,0,1,1.428-1.85l.8.168,60.153,12.6a1.3,1.3,0,0,1,.565,2.27Z" transform="translate(-278.419 -232.637)" fill="#ccc"/><path d="M341.982,280.959,281.81,268.352l-.782-.163a2.162,2.162,0,0,0-2.379,3.086L302.8,319.587a2.16,2.16,0,0,0,3.507.51l16.469-17.573a1.258,1.258,0,0,1,.922-.409,1.3,1.3,0,0,1,1.162.667l3.432,6.259a2.112,2.112,0,0,0,2.371,1.07l.017,0a2.115,2.115,0,0,0,1.664-2.019l.594-14.5a1.322,1.322,0,0,1,.13-.522,1.406,1.406,0,0,1,.338-.423l9.514-7.905a2.164,2.164,0,0,0-.936-3.781Zm.386,3.117-9.514,7.905a2.134,2.134,0,0,0-.335.342,2.014,2.014,0,0,0-.228.362,2.073,2.073,0,0,0-.154.412v0a2.046,2.046,0,0,0-.065.454l-.594,14.5a1.256,1.256,0,0,1-1,1.211l-.008,0a1.258,1.258,0,0,1-1.426-.637l-3.433-6.263a2.157,2.157,0,0,0-1.779-1.116h0c-.049,0-.1,0-.147,0a2.1,2.1,0,0,0-.981.25,2.074,2.074,0,0,0-.562.434L305.673,319.5a1.3,1.3,0,0,1-2.1-.306l-24.147-48.312a1.3,1.3,0,0,1,1.428-1.85l.8.168,60.153,12.6a1.3,1.3,0,0,1,.565,2.27Z" transform="translate(-278.419 -232.637)" fill="#3f3d56"/><path d="M335.434,294.282l-.352.789-.221-.1v0l-50.769-22.658,42.464,30.811h0l.112.085-.506.7-.738-.537-41.846-30.358a.866.866,0,0,1,.712-1.545.754.754,0,0,1,.14.048l50.809,22.68Z" transform="translate(-281.142 -234.511)" fill="#3f3d56"/><path d="M706.259,464.02l2.2,21.469.043.441.653,6.367,5.36,52.422v.009l1.042,10.171a12.133,12.133,0,0,0-1.076,1.733,12.484,12.484,0,0,0,.363,11.951q3.922-.985,7.737-2.248a116.552,116.552,0,0,0,15.353-6.293,12.5,12.5,0,0,0-4.2-7.283L728.35,488.1l-.471-5.671-1.534-18.409Z" transform="translate(-521.329 -343.849)" fill="#ffb8b8"/><circle cx="28.419" cy="28.419" r="28.419" transform="translate(140.037 41.601) rotate(-45)" fill="#ffb8b8"/><path d="M572.535,447.592c0,.056.009.112.013.164a5.215,5.215,0,0,0,4.076,4.651l42.411,9.263a5.2,5.2,0,0,0,6.129-3.7c.091-.337.19-.683.3-1.042v0a177.408,177.408,0,0,1,7.638-19.784q1.238-2.82,2.65-5.909c.173-.38.35-.765.523-1.15q2.911-6.322,6.5-13.685a34.064,34.064,0,0,0,2.632-7.534,34.445,34.445,0,0,0-1.742-20.588,34.018,34.018,0,0,0-1.88-3.869A34.6,34.6,0,0,0,614.4,366.988c-.895-.074-1.785-.108-2.68-.108a34.8,34.8,0,0,0-23.985,9.734,33.962,33.962,0,0,0-8.433,13.218c-.112.316-.216.635-.32.955a128.619,128.619,0,0,0-3.838,15.44c-.575,3.1-1.042,6.155-1.418,9.133a188.431,188.431,0,0,0-1.193,32.232Z" transform="translate(-445.279 -288.696)" fill="#fa0"/><path d="M529.618,602.911a114.992,114.992,0,0,0,84.931,11.532q3.922-.985,7.737-2.248a193.39,193.39,0,0,0-8.065-21.608v-.009a118.817,118.817,0,0,0-12.293-21.923,4.042,4.042,0,0,1-.575-3.67l.722-2.166a5.2,5.2,0,0,0-.852-4.876v0c-.047-.06-.1-.121-.151-.182-18.893-21.526-51.83-9.782-52.163-9.661l-.164.061-.1.143c-.112.156-.225.307-.333.467C539.378,561.282,533.444,580.516,529.618,602.911Z" transform="translate(-421.039 -389.708)" fill="#2f2e41"/><path d="M408.287,346.308a12.18,12.18,0,0,1,.277,1.9l49.7,28.674,12.081-6.955,12.879,16.861-20.191,14.391a9.256,9.256,0,0,1-11.106-.271l-51.254-40.435a12.146,12.146,0,1,1,7.609-14.164Z" transform="translate(-338.542 -271.695)" fill="#ffb8b8"/><path d="M556.926,399.8v0a5.188,5.188,0,0,0,.9,1.794l8.48,10.988,4.042,5.243,3.544,4.59a5.206,5.206,0,0,0,7.871.432l12.872-13.365,5.312-5.52a14.46,14.46,0,1,0-17.731-22.848l-3.319,1.854-19.49,10.9a5.217,5.217,0,0,0-2.481,5.926Z" transform="translate(-436.438 -295.057)" fill="#fa0"/><path d="M686.913,421.846l.813,25.956,0,.164a5.205,5.205,0,0,0,6.129,4.962l3.518-.635.9-.164h0l2.922-.527,15.556-2.81,2.978-.536a5.212,5.212,0,0,0,4.007-6.79l-8.39-24.841a14.458,14.458,0,1,0-28.441,5.221Z" transform="translate(-510.209 -310.211)" fill="#fa0"/><path d="M646.018,221.065c-7.3,5-16.895,10.138-24.355,4.814-4.9-3.5-6.442-9.969-4.455-15.649,3.572-10.215,13.387-14.712,22.772-18.16,12.2-4.481,25.485-8.047,38.08-4.837s23.726,15.4,21.453,28.2c-1.828,10.291-11.536,18.854-10.158,29.215,1.387,10.428,13.114,15.916,23.467,17.78s21.938,2.462,29.379,9.9c9.491,9.487,7.121,26.443-1.81,36.459s-22.409,14.556-35.468,17.642c-17.3,4.089-36.018,6.238-52.452-.548s-29.222-25.055-24.462-42.186c2.011-7.236,6.748-13.351,11.326-19.305s9.214-12.179,10.96-19.484c1.455-6.087.378-13.154-3.658-17.72a5.134,5.134,0,0,1-.688-6Z" transform="translate(-470.291 -186)" fill="#2f2e41"/></g></g></svg>