<svg xmlns="http://www.w3.org/2000/svg" width="284.151" height="254.117" viewBox="0 0 284.151 254.117">
  <g id="Grupo_306" data-name="Grupo 306" transform="translate(-70 -2111.278)">
    <g id="undraw_social_girl_562b" transform="translate(69.999 2111.278)">
      <path id="Caminho_717" data-name="Caminho 717" d="M579.757,248.383a98.533,98.533,0,0,0-6.905-86.7l-157.42,21.8,150.859-31.44a98.373,98.373,0,0,0-175.4,73.383Z" transform="translate(-320.235 -97.519)" fill="#fff"/>
      <path id="Caminho_718" data-name="Caminho 718" d="M409.909,519.317A98.394,98.394,0,0,0,590.615,526Z" transform="translate(-333.596 -369.399)" fill="#fff"/>
      <path id="Caminho_719" data-name="Caminho 719" d="M433.1,368.158c0,38.655-56.993,69.988-127.294,69.988-37.768,0-71.693-9.042-95-23.407-15.21-9.37-25.9-21.007-30.192-33.868a39.862,39.862,0,0,1-2.1-12.714c0-38.651,105.488-213,127.294-69.984S433.1,329.507,433.1,368.158Z" transform="translate(-178.508 -184.029)" fill="#fa0"/>
      <path id="Caminho_720" data-name="Caminho 720" d="M373.327,647.5c0,14.272-45.073,25.845-100.678,25.845a333.606,333.606,0,0,1-57.587-4.644c-15.21-9.37-25.9-21.007-30.192-33.868,17.262-7.865,50.1-13.177,87.779-13.177C328.254,621.651,373.327,633.223,373.327,647.5Z" transform="translate(-182.772 -437.985)" opacity="0.1"/>
      <path id="Caminho_721" data-name="Caminho 721" d="M410.839,224.854c-7.979-13.482-23.764-14.11-23.764-14.11s-15.382-1.967-25.25,18.566c-9.2,19.138-21.891,37.617-2.044,42.1l3.585-11.158,2.22,11.989a77.67,77.67,0,0,0,8.492.145c21.255-.686,41.5.2,40.845-7.426C414.058,254.817,418.516,237.826,410.839,224.854Z" transform="translate(-292.956 -162.553)" fill="#2f2e41"/>
      <path id="Caminho_722" data-name="Caminho 722" d="M371.152,597.251a31.472,31.472,0,0,1-1.018,4.381c-.5,1.4-1.27,2.7-1.727,4.121-1.455,4.521.562,9.563,3.784,13.053a21.3,21.3,0,0,0,10.385,6.166,42.368,42.368,0,0,0,8.924.938c8.294.281,16.8.533,24.662-2.133a42.848,42.848,0,0,0,7.165-3.255,5.365,5.365,0,0,0,1.859-1.464,5.116,5.116,0,0,0,.671-3c-.018-3.516-.73-7.014-.561-10.527a41.721,41.721,0,0,0,.279-5.829,10.753,10.753,0,0,0-8.218-9.262,22.323,22.323,0,0,0-6.812,0,173.7,173.7,0,0,1-17.728.793c-6.048-.039-12.058-.962-18.076-1.058-1.78-.029-1.744.52-2.31,2.242A41.959,41.959,0,0,0,371.152,597.251Z" transform="translate(-305.459 -416.885)" fill="#2f2e41"/>
      <path id="Caminho_723" data-name="Caminho 723" d="M415.062,333.64a10.557,10.557,0,0,1-1.519,4.35c-1.052,1.439-2.768,2.261-3.9,3.638-1.7,2.073-1.8,4.989-1.809,7.672-.006,2.472.044,5.108,1.422,7.16a12.511,12.511,0,0,0,3.586,3.162c5.169,3.483,10.755,7.029,16.987,7.144,2.582.048,5.351-.619,7.05-2.564a10.586,10.586,0,0,0,1.707-3.045,40.439,40.439,0,0,0,2.863-12.311,14.456,14.456,0,0,0-.545-5.914c-.757-2.111-2.288-3.848-3.3-5.849a13.021,13.021,0,0,1-1.253-7.705.832.832,0,0,0-.044-.558.813.813,0,0,0-.67-.272l-12.357-.89a26.893,26.893,0,0,1-3.431-.393c-.666-.135-2.426-1.082-3.061-.83C415.612,326.9,415.3,332.378,415.062,333.64Z" transform="translate(-332.206 -240.097)" fill="#a0616a"/>
      <path id="Caminho_724" data-name="Caminho 724" d="M415.062,334.81a10.557,10.557,0,0,1-1.519,4.35c-1.052,1.439-2.768,2.261-3.9,3.638-1.7,2.073-1.8,4.989-1.809,7.672-.006,2.472.044,5.108,1.422,7.16a12.512,12.512,0,0,0,3.586,3.161c5.169,3.483,10.755,7.029,16.987,7.144,2.582.048,5.351-.619,7.05-2.564a10.586,10.586,0,0,0,1.707-3.045,40.44,40.44,0,0,0,2.863-12.311,14.456,14.456,0,0,0-.545-5.914c-.757-2.111-2.288-3.848-3.3-5.849a13.021,13.021,0,0,1-1.253-7.705.832.832,0,0,0-.044-.558.814.814,0,0,0-.67-.272l-12.357-.89a26.893,26.893,0,0,1-3.431-.392c-.666-.135-2.426-1.082-3.061-.83C415.612,328.07,415.3,333.548,415.062,334.81Z" transform="translate(-332.206 -240.881)" opacity="0.1"/>
      <circle id="Elipse_114" data-name="Elipse 114" cx="18.13" cy="18.13" r="18.13" transform="translate(76.544 58.94)" fill="#a0616a"/>
      <path id="Caminho_725" data-name="Caminho 725" d="M424.148,396.952a11.119,11.119,0,0,0,3.184,2.545,10.006,10.006,0,0,0,3.978.757c3.268.092,6.811-.507,9.084-2.856,2.931-3.029,2.834-7.914,5.131-11.447a2.551,2.551,0,0,1,.74-.81,2.4,2.4,0,0,1,1.259-.289c2.9-.027,5.428,1.854,7.709,3.648a10.154,10.154,0,0,1,2.713,2.764,9.368,9.368,0,0,1,.915,2.8,123.1,123.1,0,0,1,1.862,16.8c.2,3.109.4,6.22.387,9.335-.049,10.263-2.435,20.354-4.807,30.339-.306,1.287-.724,2.725-1.894,3.341a4.669,4.669,0,0,1-1.653.4,202.244,202.244,0,0,1-20.442,1.7q-4,.062-8-.194a4.31,4.31,0,0,1-1.348-.235,3.8,3.8,0,0,1-1.47-1.248c-3.7-4.662-3.918-11.108-3.895-17.06q.087-21.828,1.56-43.621c.081-1.2.1-2.656-.765-3.6A45.024,45.024,0,0,0,424.148,396.952Z" transform="translate(-338.749 -279.276)" fill="#d0cde1"/>
      <path id="Caminho_726" data-name="Caminho 726" d="M368.948,354.779c-.612,1.108-5.127,3.861-6,4.779-4.869,5.133-13.757,4.94-18.21,10.438a17.129,17.129,0,0,0-2.98,6.781c-.847,3.417-1.3,7.144.12,10.366,1.365,3.1,4.238,5.244,6.189,8.013,2.142,3.041,3.105,6.733,4.028,10.336a23.789,23.789,0,0,1,1.1,8.12c-.3,3.108-1.806,5.954-2.694,8.947s-1.041,6.559,1.012,8.912c1.508,1.728,3.874,2.414,6.136,2.8a70.5,70.5,0,0,0,8.745.761c2.585.114,5.435.136,7.422-1.521a7.462,7.462,0,0,0,2.338-5.47,35.3,35.3,0,0,0-.6-6.086c-.276-2.1-.381-4.215-.47-6.33q-.6-14.233-.163-28.484a24.238,24.238,0,0,0-.288-5.911c-.554-2.541-1.928-4.813-3.074-7.148a27.05,27.05,0,0,1-3-14.289C368.909,354.709,371.127,350.835,368.948,354.779Z" transform="translate(-287.389 -258.037)" fill="#575a89"/>
      <path id="Caminho_727" data-name="Caminho 727" d="M490.281,351.571c.933.959,4.1,1.275,5.288,1.892a18.53,18.53,0,0,0,3.476,1.2,45.132,45.132,0,0,1,12.212,5.605,7.412,7.412,0,0,1,2.042,1.764,8.086,8.086,0,0,1,1.13,3.19,27.15,27.15,0,0,1-.972,17.825l-3.476,11.113c-2.595,8.295-5.206,16.672-5.936,25.332a59.585,59.585,0,0,0,.535,14.388,1.706,1.706,0,0,1-.175,1.394,1.373,1.373,0,0,1-.851.392c-1.678.262-3.3-.593-4.821-1.35a53.389,53.389,0,0,0-14.718-4.816,34.217,34.217,0,0,0,4.571-9.424,57.035,57.035,0,0,0,1.381-6.481l1.617-9.352a91.9,91.9,0,0,0,1.387-10.342,12.947,12.947,0,0,0-.225-3.9,18.9,18.9,0,0,0-1.477-3.513,30.02,30.02,0,0,1-2.867-17.93c.459-2.652,1.351-5.308.979-7.974-.358-2.563.014-4.555-.644-7.092C486.038,343.084,488.527,349.768,490.281,351.571Z" transform="translate(-383.264 -254.442)" fill="#575a89"/>
      <path id="Caminho_728" data-name="Caminho 728" d="M343.553,415.756c-1.215,2.521-3.246,4.669-3.937,7.381a16.124,16.124,0,0,0-.343,3.858,18.324,18.324,0,0,0,.572,5.8c.386,1.2,1.014,2.3,1.466,3.471a12.586,12.586,0,0,1,.824,5.142c-.122,2.428-.947,4.786-1.011,7.216-.1,3.822,1.667,7.416,3.392,10.828a7.96,7.96,0,0,1,11.571-3.788,2.373,2.373,0,0,0,.521-1.73q.191-6.652.369-13.3c.187-6.859.365-13.809-1.213-20.487a19.328,19.328,0,0,0-3.853-8.357c-1.07-1.231-4.7-4.475-6.459-3.1-.79.62-.605,2.309-.73,3.164A13.424,13.424,0,0,1,343.553,415.756Z" transform="translate(-286.249 -295.032)" fill="#575a89"/>
      <path id="Caminho_729" data-name="Caminho 729" d="M537.554,395.65a18.554,18.554,0,0,1,.62,5.581q.035,5.75-.152,11.5a21.434,21.434,0,0,1-.747,5.822c-.392,1.234-1,2.391-1.4,3.62-1.214,3.685-.551,7.682-.447,11.56a13.134,13.134,0,0,1-.318,3.74c-.641,2.4-2.363,4.347-3.565,6.526-1.142,2.069-1.83,4.389-3.194,6.319s-3.724,3.46-6.011,2.867a6.637,6.637,0,0,1-3.817-3.558,17.453,17.453,0,0,1-1.8-11.321c.855-4.707,3.62-8.883,4.618-13.563,1.369-6.426-.712-13.057-.65-19.627a9.487,9.487,0,0,1,.414-3.042,12.732,12.732,0,0,1,2.684-3.9,49.272,49.272,0,0,0,3.608-4.735c.743-1.108,1.752-3.958,3.069-4.195C533.4,388.712,536.825,393.378,537.554,395.65Z" transform="translate(-404.999 -282.191)" fill="#575a89"/>
      <path id="Caminho_730" data-name="Caminho 730" d="M272.023,601.884a17.9,17.9,0,0,0-4.978-.529A12.424,12.424,0,0,0,255.51,616a20.866,20.866,0,0,0,1.972,5.39c1.32,2.679,2.9,5.352,5.347,7.069a20.828,20.828,0,0,0,4.719,2.246l12.872,4.849c1.894.713,3.787,1.427,5.7,2.088a111.481,111.481,0,0,0,29.77,5.919,32.239,32.239,0,0,0,9.243-.468,3.009,3.009,0,0,0,1.893-1.023,3.242,3.242,0,0,0,.423-1.4l.792-5.545a4.644,4.644,0,0,0-.067-2.337,4.477,4.477,0,0,0-2.139-2.016c-8.462-4.86-18.343-7.542-25.465-14.212-1.677-1.57-3.08-4.06-5.117-5.126-2.31-1.21-5.031-1.9-7.419-3.015C282.813,605.985,277.681,603.185,272.023,601.884Z" transform="translate(-229.979 -424.375)" fill="#2f2e41"/>
      <path id="Caminho_731" data-name="Caminho 731" d="M333.248,623.059c4.55,1.426,23.758,11.3,27.05,14.751-.441.159-15.414-8.232-15.864-8.367a90.491,90.491,0,0,1-12.069-4.253c-.78-.361-5.069-2.057-4.875-3.041C327.71,621.037,332.441,622.806,333.248,623.059Z" transform="translate(-278.354 -438.075)" opacity="0.1"/>
      <path id="Caminho_732" data-name="Caminho 732" d="M479.158,714.162a1.069,1.069,0,0,0,.721-.212,1.114,1.114,0,0,0,.225-.83l-.021-7.554a23.22,23.22,0,0,0-6.987-1.685l-11.128-1.487c.256.034-1.74,4.793-1.434,5.428.539,1.12,4.661,2.112,5.824,2.641C470.4,712.3,474.6,714.32,479.158,714.162Z" transform="translate(-367.505 -492.1)" fill="#a0616a"/>
      <path id="Caminho_733" data-name="Caminho 733" d="M397.265,700.909c-2.1.335-4.446.63-5.807,2.266-1.726,2.074-.991,5.166-.168,7.735A2.508,2.508,0,0,0,394.216,713c1.916.121,3.955.216,5.629-.724a24.661,24.661,0,0,0,2.187-1.625,14.021,14.021,0,0,1,4.021-1.838,40.655,40.655,0,0,1,8.071-1.663,12.552,12.552,0,0,0,3.179-.56,3.523,3.523,0,0,0,2.239-2.174c.388-1.373-.41-2.772-1.175-3.976a15.863,15.863,0,0,0-3.384-4.183c-2.073-1.611-3.1-.374-5.188.656A44.015,44.015,0,0,1,397.265,700.909Z" transform="translate(-320.525 -487.469)" fill="#a0616a"/>
      <path id="Caminho_734" data-name="Caminho 734" d="M342.906,707.705l-13.341-3.943a17.656,17.656,0,0,0-4.965-.962,5.96,5.96,0,0,0-4.559,1.844,8.881,8.881,0,0,0-1.588,4.448l-.552,3.367a16.911,16.911,0,0,0-.309,5.171,5.717,5.717,0,0,0,2.65,4.26c1.846,1.007,4.109.515,6.169.094a67.167,67.167,0,0,1,12.643-1.356,10.148,10.148,0,0,0,4.683-.747,5.846,5.846,0,0,0,2.853-4.659C346.852,712.345,345.894,708.588,342.906,707.705Z" transform="translate(-271.658 -492.373)" fill="#2f2e41"/>
      <path id="Caminho_735" data-name="Caminho 735" d="M521.482,701.817c1.729-.3,3.256-1.286,4.913-1.866a21.854,21.854,0,0,1,7.332-.808,4.708,4.708,0,0,1,2.629.526c1.089.725,1.368,2.175,1.553,3.47l1.117,7.811a12.259,12.259,0,0,1,.091,4.425,4.163,4.163,0,0,1-2.751,3.216c-1.745.453-3.455-.661-5.1-1.393-4.117-1.83-8.9-1.362-13.2-2.73a2.957,2.957,0,0,1-1.975-1.412,3.213,3.213,0,0,1-.154-1.35c.073-2.511-.456-5.939.3-8.339C516.92,701.211,519.552,701.817,521.482,701.817Z" transform="translate(-404.585 -489.92)" fill="#2f2e41"/>
      <path id="Caminho_736" data-name="Caminho 736" d="M505.572,592.034a23.168,23.168,0,0,1,8.161-.558,10.241,10.241,0,0,1,6.023,2.358c1.939,1.838,2.562,4.681,2.614,7.352a22.968,22.968,0,0,1-4.992,14.668,13.308,13.308,0,0,1-2.854,2.747,18.783,18.783,0,0,1-3.713,1.79l-28.825,11.37c-7.583,2.991-15.193,5.991-23.1,7.963a1.8,1.8,0,0,1-2.423-.878,59.719,59.719,0,0,1-6.318-11.557.779.779,0,0,1,.344-1.228l20.388-11.714a20.619,20.619,0,0,0,4.15-2.859,10.3,10.3,0,0,0,2.131-2.966c.423-.883.462-2.966,1-3.618s2.337-.69,3.172-.941a28.77,28.77,0,0,0,3.453-1.305c4.561-2.04,8.622-5,12.994-7.394A33.338,33.338,0,0,1,505.572,592.034Z" transform="translate(-360.442 -417.669)" fill="#2f2e41"/>
      <path id="Caminho_737" data-name="Caminho 737" d="M517.026,615.439c-3.5,2.631-8.038,5.049-11.51,7.749-1.185.922-20.936,12.026-21.216,13.5,3.239.546,23.871-13.888,26.822-15.328a47.67,47.67,0,0,0,8.162-5.487c.661-.514,3.461-2.058,1.564-2.632C519.781,612.918,517.815,614.913,517.026,615.439Z" transform="translate(-383.455 -432.325)" opacity="0.1"/>
      <path id="Caminho_738" data-name="Caminho 738" d="M437.709,360.015H406.961a4.71,4.71,0,0,0-4.71,4.71v1.725h-.334v3.857h.334v2.7h-.334v2.314h.334v28.462a4.71,4.71,0,0,0,4.71,4.71h30.748a4.71,4.71,0,0,0,4.71-4.71V364.725a4.71,4.71,0,0,0-4.71-4.71Z" transform="translate(-328.24 -262.632)" fill="#3f3d56"/>
      <path id="Caminho_739" data-name="Caminho 739" d="M262.242,168.372l-15.6-8.169-21.536,3.342-4.456,19.68,11.092-.427,3.1-7.23v7.111l5.118-.2,2.971-11.511,1.856,12.253,18.195-.371Z" transform="translate(-147.886 -107.371)" fill="#2f2e41"/>
      <path id="Caminho_740" data-name="Caminho 740" d="M358.352,483.726a8.1,8.1,0,0,0,2.911,2.9,5.693,5.693,0,0,0,5-.134,8.808,8.808,0,0,0,3.611-3.621,18.02,18.02,0,0,0,1.834-10.007c-.212-3.433-.945-6.813-1.269-10.238-.236-2.489-.255-4.993-.274-7.493a2.492,2.492,0,0,1,.315-1.515,2.975,2.975,0,0,1,1.672-.835c3.421-1.016,5.691-4.223,7.319-7.4a12.822,12.822,0,0,0,1.823-6.812c-.21-2.374-1.916-4.765-4.286-5.007-1.954-.2-3.759,1.042-5.168,2.41a22.162,22.162,0,0,0-6.489,12.968c-.309,2.413-.221,4.892-.877,7.235-1.4,5-5.787,8.07-7.972,12.571C354.1,473.706,355.426,479.337,358.352,483.726Z" transform="translate(-296.968 -311.91)" fill="#a0616a"/>
      <path id="Caminho_741" data-name="Caminho 741" d="M518.818,434.3a9.454,9.454,0,0,1-5.3,5.094,7.322,7.322,0,0,1-4.609.282,5.111,5.111,0,0,1-3.376-3.02,8.136,8.136,0,0,1-.38-2.268,23.374,23.374,0,0,1,1.091-10c.473-1.215,1.11-2.368,1.483-3.617a18.14,18.14,0,0,0,.558-4.414l.4-9.2a5.992,5.992,0,0,0-.137-2c-.4-1.332-1.647-2.2-2.789-2.992-2.758-1.918-5.484-4.156-6.821-7.239a5.078,5.078,0,0,1-.471-3c.377-1.828,2.221-3.011,4.045-3.41a9.047,9.047,0,0,1,10.846,7.29c.18,1.039.178,2.1.283,3.149.224,2.225.93,4.37,1.372,6.563,1.089,5.4.524,10.982,1.6,16.382C517.516,426.41,520.91,429.356,518.818,434.3Z" transform="translate(-392.902 -281.591)" fill="#a0616a"/>
      <circle id="Elipse_115" data-name="Elipse 115" cx="3.857" cy="3.857" r="3.857" transform="translate(90.65 110.376)" fill="#d0cde1"/>
      <circle id="Elipse_116" data-name="Elipse 116" cx="3.672" cy="3.672" r="3.672" transform="translate(247.019 57.211)" fill="#ff3940"/>
      <path id="Caminho_743" data-name="Caminho 743" d="M924.613,221.5h-9.18a4.6,4.6,0,0,0-4.59,4.59v9.18a4.6,4.6,0,0,0,4.59,4.59h9.18a4.6,4.6,0,0,0,4.59-4.59v-9.18a4.6,4.6,0,0,0-4.59-4.59Zm-4.59,14.688a5.508,5.508,0,1,1,5.508-5.508,5.508,5.508,0,0,1-5.508,5.508Zm5.967-10.1a1.373,1.373,0,1,1,.975-.4,1.377,1.377,0,0,1-.975.4Z" transform="translate(-669.331 -169.794)" fill="#ff3940"/>
      <path id="Caminho_744" data-name="Caminho 744" d="M893.69,183.859a21.786,21.786,0,1,0,21.786,21.786A21.786,21.786,0,0,0,893.69,183.859Zm11.252,26.183a6.445,6.445,0,0,1-6.426,6.426h-9.18a6.445,6.445,0,0,1-6.426-6.426v-9.18a6.445,6.445,0,0,1,6.426-6.426h9.18a6.445,6.445,0,0,1,6.426,6.426Z" transform="translate(-643.234 -144.569)" fill="#ff3940"/>
      <path id="Caminho_745" data-name="Caminho 745" d="M626.436,64.718a21.436,21.436,0,1,0,21.436,21.436A21.436,21.436,0,0,0,626.436,64.718Zm6.759,12.971h-2.744c-1.873,0-2.231.886-2.231,2.192v2.775h4.462l-.583,4.353H628.22V98.825h-4.975V87.009h-3.568V82.656h3.568V79.438c0-3.856,2.674-5.954,6.118-5.954,1.648,0,3.42.124,3.832.179Z" transform="translate(-464.35 -64.718)" fill="#0090ff"/>
    </g>
    <path id="Icon_ionic-logo-whatsapp" data-name="Icon ionic-logo-whatsapp" d="M23.071,2.25A20,20,0,0,0,2.993,22.174,19.718,19.718,0,0,0,5.874,32.462L2.25,43.151l11.117-3.532A20.113,20.113,0,0,0,43.151,22.174,20,20,0,0,0,23.071,2.25Zm9.984,27.49c-.472,1.171-2.609,2.24-3.551,2.289s-.968.73-6.1-1.5-8.221-7.655-8.465-8a9.847,9.847,0,0,1-1.894-5.337A5.689,5.689,0,0,1,15,13.014a1.966,1.966,0,0,1,1.391-.585c.4-.007.666-.012.965,0s.748-.063,1.137.971,1.319,3.575,1.438,3.833a.93.93,0,0,1,.009.892,3.487,3.487,0,0,1-.544.829c-.268.287-.564.643-.8.863-.267.243-.545.509-.265,1.029a15.365,15.365,0,0,0,2.719,3.628,14.009,14.009,0,0,0,4.026,2.677c.5.274.8.244,1.116-.085s1.336-1.438,1.7-1.933.7-.4,1.163-.213,2.936,1.512,3.439,1.785.839.413.96.63A4.217,4.217,0,0,1,33.056,29.74Z" transform="translate(311 2215.849)" fill="#00be59"/>
  </g>
</svg>
