<svg xmlns="http://www.w3.org/2000/svg" width="244" height="154.411" viewBox="0 0 244 154.411"><g transform="translate(0.003)"><g transform="translate(177.703 11.62)" opacity="0.8"><path d="M941.627,696.959q-2.521,1.518-5.142,2.941c-.271.147-.542.294-.814.445q-1.97,1.056-4,2.054.015-.16.04-.32a9.688,9.688,0,0,1,1.018-3.161,7.967,7.967,0,0,1,.867-1.334,5.534,5.534,0,0,1,5.035-2.305A4.89,4.89,0,0,1,941.627,696.959Z" transform="translate(-913.645 -575.127)" fill="#00be59"/><path d="M949.2,661.854c-.033.238-.076.471-.127.7q-1.456.936-2.954,1.825-2.521,1.518-5.142,2.941c-.271.147-.542.293-.814.445a5.409,5.409,0,0,1-.889-.82,6.887,6.887,0,0,1-1.18-1.932,9.63,9.63,0,0,1,1.334-9.321,5.116,5.116,0,0,1,9.219,1.323A9.29,9.29,0,0,1,949.2,661.854Z" transform="translate(-918.139 -542.549)" fill="#00be59"/><ellipse cx="7.705" cy="5.887" rx="7.705" ry="5.887" transform="translate(19.661 115.941) rotate(-81.82)" fill="#00be59"/><path d="M916.591,187.056a28.082,28.082,0,0,1-4.224,11.3l-16.539-2.5,14.948,4.715a28.6,28.6,0,0,1-2.63,2.89,28.2,28.2,0,0,1-4.957,34.506,28.058,28.058,0,0,1,3.759,15.223,115.015,115.015,0,0,1-25.416,21.786q-1.463.927-2.961,1.816-2.521,1.518-5.142,2.941c-.576-.111-1.143-.238-1.7-.385-.7-.176-1.378-.38-2.047-.607a28.195,28.195,0,0,1-10.364-47.077q-.427-.736-.807-1.5h0c-.076-.147-.147-.293-.222-.445a28.058,28.058,0,0,1-2.712-13.761l.033-.491c.02-.265.044-.531.071-.8.04-.373.087-.749.14-1.125v-.036a27.992,27.992,0,0,1,2.752-8.7l20.165,10.155-18.387-13.178a28.233,28.233,0,0,1,3.913-4.633,28.195,28.195,0,1,1,50.59-24.625L892.2,184.644l23.867-8.33A28.117,28.117,0,0,1,916.591,187.056Z" transform="translate(-850.588 -154.959)" fill="#00be59"/><path d="M906.94,457.14a115.013,115.013,0,0,1-25.416,21.786q-1.456.936-2.954,1.825-2.521,1.518-5.142,2.941c-.576-.111-1.143-.238-1.7-.385-.7-.176-1.378-.38-2.047-.607a28.195,28.195,0,0,1-10.364-47.077q-.427-.736-.807-1.5h0c-.076-.147-.147-.293-.222-.445a28.058,28.058,0,0,1-2.712-13.761l.033-.491c.02-.265.044-.531.071-.8.04-.373.087-.749.14-1.125v-.036c.173-.6,2.468-.1,5.962,1.112h0l.738.262c.774.278,1.6.585,2.465.92h0c1.892.729,3.982,1.59,6.187,2.541h0l.144.062h0l.307.133h0c14.828,6.429,34.333,16.744,31.536,19.407A28.06,28.06,0,0,1,906.94,457.14Z" transform="translate(-850.588 -358.919)" fill="#00be59" opacity="0.1"/></g><g transform="translate(-0.003 9.396)" opacity="0.8"><path d="M338.25,743.272q-1.4-.484-2.781-1-3.215-1.183-6.329-2.5a4.62,4.62,0,0,1,1.412-.783,5.632,5.632,0,0,1,5.542,1.434A9.4,9.4,0,0,1,338.25,743.272Z" transform="translate(-267.354 -606.741)" fill="#00be59"/><path d="M317.067,707.452a7.427,7.427,0,0,1-.625,1.85q-3.215-1.183-6.329-2.5-2.71-1.14-5.335-2.381a10.116,10.116,0,0,1-.1-1.6,8.989,8.989,0,0,1,.178-1.663,5.78,5.78,0,0,1,3.557-4.562,5.626,5.626,0,0,1,5.542,1.436,8.763,8.763,0,0,1,1.1,1.169,10.359,10.359,0,0,1,1.663,3.13A10.015,10.015,0,0,1,317.067,707.452Z" transform="translate(-248.327 -573.767)" fill="#00be59"/><ellipse cx="6.073" cy="8.125" rx="6.073" ry="8.125" transform="translate(51.265 115.196) rotate(-17.54)" fill="#00be59"/><ellipse cx="6.051" cy="8.095" rx="6.051" ry="8.095" transform="translate(47.735 105.376) rotate(-17.526)" fill="#00be59"/><path d="M117.919,270.39q-.927.542-1.9,1.016a28.794,28.794,0,0,1-3.23,1.334,28.283,28.283,0,0,1-3.07.869q-1.083.245-2.167.4-1.347.193-2.688.253a126.221,126.221,0,0,1-28.615-19.316c-.118-.316-.222-.634-.336-.956a30.3,30.3,0,0,1,.1-19.474A29.715,29.715,0,0,1,64.337,219.09a30.4,30.4,0,0,1-1.556-9.559H86.062l-23.055-3.686a30.234,30.234,0,0,1,1.432-6.225A29.7,29.7,0,0,1,52.763,184.2c-5.171-15.586,2.959-32.456,18.158-37.689A28.613,28.613,0,0,1,99.414,152.4l-15.15,22.177L102.3,155.389a30.011,30.011,0,0,1,5.5,9.875,30.365,30.365,0,0,1,1.4,12.671l-16.368,5.491,15.939-2.652a30.054,30.054,0,0,1-1.069,3.966,29.711,29.711,0,0,1,11.675,15.421,30.411,30.411,0,0,1,1.556,9.3v1.069a30.232,30.232,0,0,1-1.647,9.115,29.344,29.344,0,0,1,6,5.346c.044.049.087.1.127.149a30.2,30.2,0,0,1-7.489,45.248Z" transform="translate(-51.207 -144.958)" fill="#00be59"/><path d="M163.8,518.438q-.927.542-1.9,1.016a28.794,28.794,0,0,1-3.23,1.334,28.257,28.257,0,0,1-3.07.869q-1.083.244-2.167.4-1.347.194-2.688.253a126.221,126.221,0,0,1-28.615-19.316c-.118-.316-.222-.634-.336-.956a30.3,30.3,0,0,1,.1-19.474,29.716,29.716,0,0,1-11.675-15.423c-.8-2.405,32.483-4.346,47.642-2.485l.353.044c4.6.594,7.427,1.556,6.936,2.981a29.344,29.344,0,0,1,6,5.346c.044.049.087.1.127.149a30.222,30.222,0,0,1-7.478,45.263Z" transform="translate(-97.091 -393.007)" fill="#00be59" opacity="0.1"/></g><path d="M373.343,324.209a1.054,1.054,0,0,0,.191-.587c0-1.278-2.6-2.312-5.813-2.312s-5.809,1.043-5.809,2.312a1.112,1.112,0,0,0,.238.667c-3.572.4-5.98,1.147-5.98,2,0,1.276,5.335,2.31,11.9,2.31s11.9-1.034,11.9-2.31C379.977,325.374,377.273,324.587,373.343,324.209Z" transform="translate(-288.379 -272.71)" fill="#00be59" opacity="0.8"/><path d="M752.971,107.294a1.692,1.692,0,0,0,.3-.936c0-2.025-4.13-3.668-9.226-3.668s-9.226,1.643-9.226,3.668a1.736,1.736,0,0,0,.38,1.043c-5.673.634-9.495,1.821-9.495,3.181,0,2.025,8.448,3.668,18.9,3.668s18.9-1.643,18.9-3.668C763.5,109.139,759.209,107.892,752.971,107.294Z" transform="translate(-575.768 -102.69)" fill="#00be59" opacity="0.8"/><path d="M419.971,107.294a1.692,1.692,0,0,0,.3-.936c0-2.025-4.13-3.668-9.226-3.668s-9.226,1.643-9.226,3.668a1.736,1.736,0,0,0,.38,1.043c-5.673.634-9.495,1.821-9.495,3.181,0,2.025,8.459,3.668,18.9,3.668s18.9-1.643,18.9-3.668C430.5,109.139,426.209,107.892,419.971,107.294Z" transform="translate(-316.796 -102.69)" fill="#00be59" opacity="0.8"/><path d="M540.534,153.876c-.952.8-1.623,1.816-2.668,2.534a15.916,15.916,0,0,1-4.446,1.661c-1.536.465-3.112,1.194-3.73,2.459-.525,1.083-.222,2.339-.667,3.446-.478,1.176-1.718,2-2.668,2.95a7.614,7.614,0,0,0-2.223,6.847,42.065,42.065,0,0,0,1.8,4.815,22.1,22.1,0,0,1,.854,6.118c.173,3.861.345,7.761-.525,11.56-.222.954-.823,15.455-1.985,15.426,3.086-.265,6.189-.293,9.29-.325l46.462-.445c-2.141-2.8-3.508-19.354-3.961-22.655-.783-5.691,1.112-11.389,1.334-17.117a4.854,4.854,0,0,0-.273-2.19,18.176,18.176,0,0,1-1.174-2.1c-.307-1.078.309-2.183.329-3.29.04-2.223-2.223-3.928-4.017-5.575-1.73-1.585-3.168-3.386-4.953-4.931a11.956,11.956,0,0,0-6.58-3.092,17.816,17.816,0,0,0-6.187.889c-2.394.64-4.668,1.449-7.209,1.409C544.531,152.22,542.8,152.454,540.534,153.876Z" transform="translate(-418.896 -139.429)" fill="#2f2e41"/><g transform="translate(108.324 22.455)" opacity="0.1"><path d="M742.071,204.449a3.1,3.1,0,0,0,.28.7,4.1,4.1,0,0,0-.358-1.447A2.672,2.672,0,0,0,742.071,204.449Z" transform="translate(-696.754 -203.7)"/><path d="M538.758,367.64l-.258.022A1.217,1.217,0,0,0,538.758,367.64Z" transform="translate(-538.5 -331.195)"/></g><path d="M586.079,629.552a1.959,1.959,0,0,1-.978.4,117.605,117.605,0,0,1-17.215,2.479,148.145,148.145,0,0,1-15.357-.222,98.791,98.791,0,0,1-15.219-1.538,38.787,38.787,0,0,0,3.846-13.3,39.247,39.247,0,0,0,.153-6.113,6.85,6.85,0,0,0-.089-.731c-.238-1.463-.825-3.581-.291-4.64.685-1.36,3.315-1.405,4.6-1.658,2.183-.429,4.377-.787,6.58-1.087a251.546,251.546,0,0,1,26.385-1.725c1.183-.036,2.592.044,3.208,1.056a3.511,3.511,0,0,1,.309,1.938q-.06,2.159.042,4.317a57.743,57.743,0,0,0,4.041,18.6C586.388,628.056,586.657,629.008,586.079,629.552Z" transform="translate(-429.25 -490.543)" fill="#fbbebe"/><path d="M571.108,345.391a10.722,10.722,0,0,1-3.557,2.59,44.432,44.432,0,0,1-4.857,2.152,1.75,1.75,0,0,0,.222,1.727c2.608,5.064,6.1,10.1,11.362,12.273a29.189,29.189,0,0,0,8.577,1.649,8.3,8.3,0,0,0,2.717-.058,7,7,0,0,0,2.445-1.3,22.811,22.811,0,0,0,8.83-15.057c.071-.531.071-1.183-.385-1.467a1.781,1.781,0,0,0-.958-.136,5.951,5.951,0,0,1-5.006-3.443,17.519,17.519,0,0,1-1.489-6.182c0-.047-12.534-.311-13.665-.32-1.765-.016-2.348.191-2.519,2C572.644,341.814,572.422,343.764,571.108,345.391Z" transform="translate(-448.87 -285.547)" fill="#fbbebe"/><path d="M571.108,345.391a10.722,10.722,0,0,1-3.557,2.59,44.432,44.432,0,0,1-4.857,2.152,1.75,1.75,0,0,0,.222,1.727c2.608,5.064,6.1,10.1,11.362,12.273a29.189,29.189,0,0,0,8.577,1.649,8.3,8.3,0,0,0,2.717-.058,7,7,0,0,0,2.445-1.3,22.811,22.811,0,0,0,8.83-15.057c.071-.531.071-1.183-.385-1.467a1.781,1.781,0,0,0-.958-.136,5.951,5.951,0,0,1-5.006-3.443,17.519,17.519,0,0,1-1.489-6.182c0-.047-12.534-.311-13.665-.32-1.765-.016-2.348.191-2.519,2C572.644,341.814,572.422,343.764,571.108,345.391Z" transform="translate(-448.87 -285.547)" opacity="0.1"/><circle cx="17.117" cy="17.117" r="17.117" transform="translate(115.082 23.242)" fill="#fbbebe"/><path d="M439.346,373.206c.189,2.4-25.614,4.648-26.588,1.687a2.293,2.293,0,0,1-2.483.445,18.613,18.613,0,0,1-2.356-1.274,14.411,14.411,0,0,0-4.315-1.2c-2.408-.407-5.2-.7-6.987.965-.616.576-1.036,1.334-1.654,1.912-1.08,1-2.608,1.318-4,1.778a46.645,46.645,0,0,0-5.767,2.668,51.1,51.1,0,0,1-14.047,4.539c-1.038.176-2.083.318-3.112.565a7.345,7.345,0,0,0-3.875,2.054,9.14,9.14,0,0,0,4.582,2.854l17.14,5.6a29.812,29.812,0,0,1,7.454,3.212c3.759,2.508,6.2,6.629,7.543,10.944a59.846,59.846,0,0,1,2.016,13.374,12.478,12.478,0,0,1-.493,5.815,45.008,45.008,0,0,0,12-.2c3.826-.582,7.609-1.663,11.48-1.627,4.224.042,8.316,1.412,12.48,2.152s8.759.763,12.267-1.6a6.518,6.518,0,0,1-.889-3.695l-.089-5.92a8.786,8.786,0,0,1,.142-2.134,20.235,20.235,0,0,1,1.672-3.515c1.034-2.287.889-4.9.947-7.412s.409-5.206,2.105-7.043a8.742,8.742,0,0,1,4.246-2.3,44.182,44.182,0,0,1,8.31-.965,74.4,74.4,0,0,0,26.232-6.831,5.145,5.145,0,0,0-2.688-2.119c-2.476-1.145-5.1-2.319-7.816-2.063a18,18,0,0,1-3.924.416,26.26,26.26,0,0,1-3.544-1.2,23.7,23.7,0,0,0-2.808-.433,25,25,0,0,1-6.2-2.105l-5.06-2.223a9.234,9.234,0,0,1-3.639-2.356c-.3-.371-.538-.789-.863-1.138a4.829,4.829,0,0,0-2.11-1.2,6.834,6.834,0,0,0-3.039-.333,17.869,17.869,0,0,0-2.079.545C446.2,374.751,442.747,373.813,439.346,373.206Z" transform="translate(-294.593 -312.553)" fill="#e9e9e9"/><path d="M567.693,722.97a165.594,165.594,0,0,1-27.744,4.224H516.443q-6.3-.429-12.423-1.312a44.147,44.147,0,0,1,4.937-10.159,5.322,5.322,0,0,0,.769-1.472,7.756,7.756,0,0,0,.149-1.492,7.222,7.222,0,0,1,1.7-4.166q.694.378,1.4.727a44.833,44.833,0,0,0,17.1,4.591,65.87,65.87,0,0,0,9.388-.189c7.038-.567,14.356-1.874,20.025-6.024q.357-.26.707-.538c2.754,2.445,4.348,6.193,5.489,9.7C566.365,718.907,566.992,720.952,567.693,722.97Z" transform="translate(-403.361 -572.784)" fill="#2f2e41"/><path d="M645.1,714.66a2.461,2.461,0,0,0,.338,2.141,1.732,1.732,0,0,0-.36-1.938Z" transform="translate(-512.991 -578.616)" opacity="0.1"/><path d="M546.018,388.242a6.1,6.1,0,0,1,2.777-.9,6,6,0,0,1,3.89,1.885,19.921,19.921,0,0,1,2.73,3.028,3.751,3.751,0,0,1,.843,1.816,1.478,1.478,0,0,1-.967,1.592,1.705,1.705,0,0,1-1.2-.242c-1.521-.836-2.648-2.75-4.373-2.563-1.183.127-1.983,1.227-2.63,2.223a9.714,9.714,0,0,0-1.416,2.83,3.281,3.281,0,0,0,.582,3,5.7,5.7,0,0,0,2.125,1.2,14.813,14.813,0,0,1,4.528,2.939,3.758,3.758,0,0,1,1.334,2.223,1.584,1.584,0,0,1-1.465,1.805,2.346,2.346,0,0,1-1.087-.474,15.136,15.136,0,0,0-5.084-2.541,16.422,16.422,0,0,0-5.78.293q-3.152.471-6.336.671a5.3,5.3,0,0,1-1.883-.122c-2.1-.649-2.71-3.319-2.465-5.249.26-2.063,1.778-2.532,3.366-3.557C537.972,395.178,541.285,390.821,546.018,388.242Z" transform="translate(-423.637 -324.061)" fill="#fbbebe"/><path d="M639.865,388.242a6.109,6.109,0,0,0-2.779-.9,6,6,0,0,0-3.89,1.885,19.916,19.916,0,0,0-2.728,3.028,3.766,3.766,0,0,0-.84,1.816,1.476,1.476,0,0,0,.965,1.592,1.711,1.711,0,0,0,1.2-.242c1.521-.836,2.648-2.75,4.371-2.563,1.185.127,1.985,1.227,2.63,2.223a9.663,9.663,0,0,1,1.416,2.83,3.288,3.288,0,0,1-.582,3,5.684,5.684,0,0,1-2.125,1.2,14.837,14.837,0,0,0-4.53,2.939,3.769,3.769,0,0,0-1.334,2.223,1.583,1.583,0,0,0,1.465,1.805,2.335,2.335,0,0,0,1.087-.474,15.135,15.135,0,0,1,5.084-2.541,16.421,16.421,0,0,1,5.78.293c2.1.329,4.211.558,6.329.685a5.31,5.31,0,0,0,1.885-.122c2.1-.649,2.708-3.319,2.465-5.249-.262-2.063-1.778-2.532-3.368-3.557C647.91,395.178,644.6,390.821,639.865,388.242Z" transform="translate(-501.041 -324.061)" fill="#fbbebe"/><path d="M580.191,212.827c1-1.574,2.179-3.281,3.795-3.464,2.256-.256,4.019,2.565,6.264,2.93,2.89.471,5.731-3.228,8.448-1.876,1.334.667,2.33,2.516,3.779,2.481,1-.022,1.818-.963,2.483-1.885a35.173,35.173,0,0,0,2.968-4.917c-2.759-3.163-6.771-3.886-10.517-4.462l-6.3-.967a12.633,12.633,0,0,0-4.566-.142,12.467,12.467,0,0,0-3.868,1.8c-1.472.925-4.933,2.41-5.835,4.13-.629,1.194.236,1.75,1.047,2.952Q579.036,211.115,580.191,212.827Z" transform="translate(-459.827 -178.652)" fill="#2f2e41"/><path d="M375.239,430.22a33.119,33.119,0,0,1-8.3.591,22.384,22.384,0,0,0-3.275-.069,26.842,26.842,0,0,0-3.85.874c-6.622,1.63-13.543.038-20.3-.856a11.169,11.169,0,0,0-3.6-.062,10.231,10.231,0,0,0-3.041,1.263,36.729,36.729,0,0,0-4.446,2.977c-1.474,1.152-2.961,2.619-3.063,4.484a5.546,5.546,0,0,0,2.074,4.175c3.2,2.963,7.954,3.855,12.24,3.052,1.629-.3,3.219-.829,4.866-1.012,1.687-.187,3.392,0,5.089-.08,3.446-.153,6.745-1.352,10.09-2.185a48.6,48.6,0,0,1,15.993-1.254.345.345,0,0,1-.473-.242,9.821,9.821,0,0,1-.407-3.419C374.85,435.658,374.981,433.008,375.239,430.22Z" transform="translate(-264.414 -357.409)" opacity="0.1"/><path d="M373.239,431.22a33.121,33.121,0,0,1-8.3.591,22.393,22.393,0,0,0-3.275-.069,26.843,26.843,0,0,0-3.85.874c-6.622,1.629-13.543.038-20.3-.856a11.168,11.168,0,0,0-3.6-.062,10.227,10.227,0,0,0-3.041,1.263,36.731,36.731,0,0,0-4.446,2.977c-1.474,1.152-2.961,2.619-3.063,4.484a5.546,5.546,0,0,0,2.074,4.175c3.2,2.963,7.954,3.855,12.24,3.052,1.629-.3,3.219-.829,4.866-1.011,1.687-.187,3.392,0,5.089-.08,3.446-.153,6.745-1.352,10.09-2.185a48.6,48.6,0,0,1,15.993-1.254.344.344,0,0,1-.473-.242,9.82,9.82,0,0,1-.407-3.419C372.85,436.658,372.981,434.008,373.239,431.22Z" transform="translate(-262.858 -358.186)" fill="#e9e9e9"/><path d="M730,424.253c3.388.771,11.542,1.111,15.014,1,1.585-.049,3.166-.191,4.751-.187,2.717,0,5.429.445,8.139.265,3.5-.24,6.94-1.527,10.433-1.2a22.807,22.807,0,0,1,5,1.258,7.449,7.449,0,0,1,6.38,6.976,6.675,6.675,0,0,1,.222,2.7c-.331,1.692-1.89,2.837-3.386,3.69a11.426,11.426,0,0,1-5.78,1.838,12.908,12.908,0,0,1-3.557-.742c-3.319-1.043-6.711-2.223-10.179-1.963-2.425.187-4.848,1.08-7.234.6a27.835,27.835,0,0,1-4-1.521c-3.25-1.189-11.5-.874-14.946-.545.2-1.936.176-3.888.376-5.827a10.469,10.469,0,0,0-.171-4.433A3.676,3.676,0,0,0,730,424.253Z" transform="translate(-579.105 -352.631)" opacity="0.1"/><path d="M731,426.253c3.388.771,11.542,1.112,15.015,1,1.585-.049,3.166-.191,4.751-.187,2.717,0,5.429.445,8.139.265,3.5-.24,6.94-1.527,10.433-1.2a22.809,22.809,0,0,1,5,1.258,7.448,7.448,0,0,1,6.38,6.976,6.668,6.668,0,0,1,.222,2.7c-.331,1.692-1.89,2.837-3.386,3.69a11.426,11.426,0,0,1-5.78,1.838,12.91,12.91,0,0,1-3.557-.742c-3.319-1.043-6.711-2.223-10.179-1.963-2.425.187-4.848,1.08-7.234.6a27.812,27.812,0,0,1-4-1.521c-3.25-1.189-11.5-.874-14.946-.545.2-1.936.176-3.888.376-5.827a10.474,10.474,0,0,0-.171-4.433A3.677,3.677,0,0,0,731,426.253Z" transform="translate(-579.882 -354.186)" fill="#e9e9e9"/><path d="M561.365,270.475c-.52-.136-.72-.794-1.189-1.058a1.148,1.148,0,0,0-1.394.338,2.4,2.4,0,0,0-.485,1.445,5.464,5.464,0,0,0,3.423,5.273,22.271,22.271,0,0,1-.533-6.176Z" transform="translate(-445.569 -232.261)" fill="#fbbebe"/><path d="M718.428,270.475c.52-.136.718-.794,1.187-1.058a1.148,1.148,0,0,1,1.394.338,2.39,2.39,0,0,1,.484,1.445,5.464,5.464,0,0,1-3.423,5.273,22.274,22.274,0,0,0,.534-6.176Z" transform="translate(-569.827 -232.261)" fill="#fbbebe"/><g transform="translate(126.315 87.51)" opacity="0.1"><path d="M620.408,496.34a17.289,17.289,0,0,1,.611,4.757,13.416,13.416,0,0,1-1.367,6.542c-.069.622-.147,1.24-.222,1.847,1.154-.889,2-3.81,2-7.278A15.347,15.347,0,0,0,620.408,496.34Z" transform="translate(-619.43 -496.34)"/></g><g transform="translate(132.533 87.51)" opacity="0.1"><path d="M648.423,496.34a17.278,17.278,0,0,0-.614,4.757,13.413,13.413,0,0,0,1.369,6.542c.069.622.144,1.24.222,1.847-1.154-.889-2-3.81-2-7.278A14.931,14.931,0,0,1,648.423,496.34Z" transform="translate(-647.4 -496.34)"/></g><path d="M604.851,228.546c-.667.923-1.481,1.863-2.483,1.885-1.452.036-2.445-1.81-3.779-2.481-2.705-1.352-5.54,2.348-8.448,1.876-2.245-.365-4-3.186-6.265-2.93-1.616.182-2.8,1.89-3.795,3.464q-1.156-1.71-2.31-3.423a14.854,14.854,0,0,1-1.143-1.638c-.431,1.058.378,1.618,1.143,2.75s1.538,2.283,2.31,3.423c1-1.574,2.179-3.281,3.795-3.464,2.256-.256,4.019,2.565,6.265,2.93,2.89.471,5.731-3.228,8.448-1.876,1.334.667,2.33,2.516,3.779,2.481,1-.022,1.818-.963,2.483-1.885a35.164,35.164,0,0,0,2.968-4.917c-.12-.138-.244-.271-.371-.4A35.476,35.476,0,0,1,604.851,228.546Z" transform="translate(-459.735 -197.297)" opacity="0.1"/></g></svg>