<svg xmlns="http://www.w3.org/2000/svg" width="369.19" height="280.439" viewBox="0 0 369.19 280.439">
  <g id="Grupo_191" data-name="Grupo 191" transform="translate(-67.002 -102.742)">
    <path id="Caminho_518" data-name="Caminho 518" d="M297.587,124.066c-65.155-42.047-95.433-7.847-114.254,57.037-32.122,110.853,33.594,150.421,33.594,150.421S269.5,354.19,326.224,346.7c36.085,26.617,124.16,75.995,139.855-5.537,18.244-59.928,135.223-166.788,30.844-187.412S325.028,134.059,297.587,124.066Z" transform="translate(-103.549 -2.836)" fill="#fff"/>
    <g id="undraw_unlock_24mb" transform="translate(67.002 112.515)">
      <path id="Caminho_411" data-name="Caminho 411" d="M458.488,608.429q-28.129-4.12-54.1-7.1l6.847-11.08c-2.308-.682-12.451,5.635-12.451,5.635l8.989-32.214c-11.61,1.118-17.517,34.026-17.517,34.026l-12.971-11.2,6.278,12.548c-53-5.47-98.77-7.62-137.269-7.867l5.861-9.484c-2.308-.682-12.451,5.635-12.451,5.635l8.989-32.214c-11.61,1.119-17.517,34.026-17.517,34.026l-12.969-11.2,6.649,13.29c-32.275.391-58.6,2.114-78.911,4.122C151.869,580.57,172,566.572,172,566.572c-15.375,3.757-23.441,10.135-27.656,16.1A221,221,0,0,1,162.3,492.991s-31.787,57.749-27.738,96.63l.484,6.9c-26.942,3.1-40.487,6.4-40.487,6.4Z" transform="translate(-94.554 -346.598)" fill="#3f3d56"/>
      <path id="Caminho_412" data-name="Caminho 412" d="M426.382,96.845V330.2a10.491,10.491,0,0,1-10.487,10.48H321.158a10.469,10.469,0,0,1-10.487-10.48V96.845a10.486,10.486,0,0,1,10.488-10.487h14.176v1.818a8.636,8.636,0,0,0,8.634,8.637h48.183a8.565,8.565,0,0,0,5.119-1.685,8.023,8.023,0,0,0,.85-.713,8.61,8.61,0,0,0,2.664-6.239V86.358H415.9A10.484,10.484,0,0,1,426.382,96.845Z" transform="translate(-232.866 -86.358)" fill="#3f3d56"/>
      <circle id="Elipse_70" data-name="Elipse 70" cx="2.52" cy="2.52" r="2.52" transform="translate(101.677 36.361)" fill="#f2f2f2"/>
      <path id="Caminho_413" data-name="Caminho 413" d="M552.071,108.738a8.015,8.015,0,0,1-.85.713,45.091,45.091,0,0,0,29.111,21.669V130A44.029,44.029,0,0,1,552.071,108.738Z" transform="translate(-386.816 -100.681)" fill="#f9a826"/>
      <path id="Caminho_414" data-name="Caminho 414" d="M491.672,115.4h-1.181a65.4,65.4,0,0,0,50.974,40.7v-1.116A64.28,64.28,0,0,1,491.672,115.4Z" transform="translate(-347.949 -104.943)" fill="#f9a826"/>
      <path id="Caminho_415" data-name="Caminho 415" d="M431.329,115.4h-1.138A86.234,86.234,0,0,0,502.874,177v-1.1A85.138,85.138,0,0,1,431.329,115.4Z" transform="translate(-309.358 -104.943)" fill="#f9a826"/>
      <path id="Caminho_416" data-name="Caminho 416" d="M263.866,158.656h-.656V158h-.128v.656h-.656v.128h.656v.656h.128v-.656h.656Z" transform="translate(-167.95 -101.118)" fill="#f2f2f2"/>
      <path id="Caminho_417" data-name="Caminho 417" d="M386.866,67.656h-.656V67h-.128v.656h-.656v.128h.656v.656h.128v-.656h.656Z" transform="translate(-246.668 -42.879)" fill="#f2f2f2"/>
      <path id="Caminho_418" data-name="Caminho 418" d="M281.866,230.656h-.656V230h-.128v.656h-.656v.128h.656v.656h.128v-.656h.656Z" transform="translate(-179.469 -147.197)" fill="#f2f2f2"/>
      <path id="Caminho_419" data-name="Caminho 419" d="M365.866,177.656h-.656V177h-.128v.656h-.656v.128h.656v.656h.128v-.656h.656Z" transform="translate(-233.228 -113.278)" fill="#f2f2f2"/>
      <path id="Caminho_420" data-name="Caminho 420" d="M485.866,210.656h-.656V210h-.128v.656h-.656v.128h.656v.656h.128v-.656h.656Z" transform="translate(-310.027 -134.398)" fill="#f2f2f2"/>
      <circle id="Elipse_71" data-name="Elipse 71" cx="1.44" cy="1.44" r="1.44" transform="translate(166.839 43.561)" fill="#ff6584"/>
      <path id="Caminho_421" data-name="Caminho 421" d="M417.228,305.158l-.817.126c.256,1.634.457,3.3.6,4.957l.824-.072C417.693,308.5,417.488,306.811,417.228,305.158Z" transform="translate(-300.539 -226.387)" fill="#e6e6e6"/>
      <path id="Caminho_422" data-name="Caminho 422" d="M411.063,277.818l-.792.241c.479,1.584.907,3.208,1.271,4.824l.81-.184C411.981,281.065,411.545,279.424,411.063,277.818Z" transform="translate(-296.609 -208.89)" fill="#e6e6e6"/>
      <path id="Caminho_423" data-name="Caminho 423" d="M401.224,251.6l-.753.346c.691,1.508,1.339,3.057,1.926,4.6l.774-.292C402.577,254.691,401.925,253.121,401.224,251.6Z" transform="translate(-290.337 -192.11)" fill="#e6e6e6"/>
      <path id="Caminho_424" data-name="Caminho 424" d="M387.919,227.018l-.7.443c.889,1.4,1.742,2.844,2.534,4.295l.727-.4C389.684,229.891,388.819,228.429,387.919,227.018Z" transform="translate(-281.857 -176.379)" fill="#e6e6e6"/>
      <path id="Caminho_425" data-name="Caminho 425" d="M371.381,204.488l-.63.536c1.073,1.26,2.117,2.578,3.1,3.91l.662-.493C373.523,207.094,372.468,205.762,371.381,204.488Z" transform="translate(-271.317 -161.96)" fill="#e6e6e6"/>
      <path id="Caminho_426" data-name="Caminho 426" d="M351.942,184.428l-.551.616c1.238,1.105,2.452,2.268,3.607,3.453l.594-.58C354.422,186.718,353.195,185.544,351.942,184.428Z" transform="translate(-258.927 -149.122)" fill="#e6e6e6"/>
      <path id="Caminho_427" data-name="Caminho 427" d="M329.975,167.208l-.464.684c1.375.925,2.736,1.912,4.043,2.93l.511-.652C332.74,169.141,331.365,168.144,329.975,167.208Z" transform="translate(-244.924 -138.101)" fill="#e6e6e6"/>
      <path id="Caminho_428" data-name="Caminho 428" d="M310.671,155.248v.936c.86.45,1.714.922,2.549,1.4l.414-.716Q312.176,156.029,310.671,155.248Z" transform="translate(-232.866 -130.447)" fill="#e6e6e6"/>
      <path id="Caminho_429" data-name="Caminho 429" d="M418.161,516.819c.134-.8.257-1.627.365-2.443l.821.109c-.109.825-.234,1.656-.369,2.47Z" transform="translate(-301.659 -360.284)" fill="#e6e6e6"/>
      <path id="Caminho_430" data-name="Caminho 430" d="M411.752,539.579l.791.246c.5-1.6.946-3.239,1.335-4.872l-.806-.191C412.686,536.379,412.245,538,411.752,539.579Z" transform="translate(-297.557 -373.332)" fill="#e6e6e6"/>
      <path id="Caminho_431" data-name="Caminho 431" d="M401.71,565.816l.751.352c.714-1.515,1.383-3.076,1.989-4.638l-.772-.3C403.078,562.774,402.417,564.319,401.71,565.816Z" transform="translate(-291.13 -390.27)" fill="#e6e6e6"/>
      <path id="Caminho_432" data-name="Caminho 432" d="M388.2,590.6l.694.451c.916-1.4,1.794-2.859,2.612-4.324l-.722-.4C389.976,587.771,389.1,589.209,388.2,590.6Z" transform="translate(-282.483 -406.329)" fill="#e6e6e6"/>
      <path id="Caminho_433" data-name="Caminho 433" d="M371.482,613.447l.627.544c1.1-1.27,2.169-2.592,3.181-3.928l-.663-.5C373.63,610.888,372.573,612.193,371.482,613.447Z" transform="translate(-271.785 -421.206)" fill="#e6e6e6"/>
      <path id="Caminho_434" data-name="Caminho 434" d="M351.907,633.914l.545.622c1.266-1.1,2.5-2.269,3.687-3.453l-.586-.587C354.384,631.668,353.157,632.818,351.907,633.914Z" transform="translate(-259.257 -434.6)" fill="#e6e6e6"/>
      <path id="Caminho_435" data-name="Caminho 435" d="M329.855,651.645l.457.693c1.4-.923,2.786-1.907,4.118-2.92l-.5-.661C332.611,649.761,331.239,650.733,329.855,651.645Z" transform="translate(-245.144 -446.286)" fill="#e6e6e6"/>
      <path id="Caminho_436" data-name="Caminho 436" d="M313.728,664.734c-1,.565-2.023,1.112-3.056,1.631v-.929c.893-.454,1.778-.932,2.646-1.418Z" transform="translate(-232.866 -456.054)" fill="#e6e6e6"/>
      <path id="Caminho_437" data-name="Caminho 437" d="M418.836,333.437l.828-.015c.015.836.016,1.676,0,2.5l-.827-.013C418.852,335.094,418.851,334.263,418.836,333.437Z" transform="translate(-302.091 -244.476)" fill="#e6e6e6"/>
      <path id="Caminho_438" data-name="Caminho 438" d="M226.216,301.632h84.679a23.761,23.761,0,0,1,23.761,23.761v3.145H249.977a23.761,23.761,0,0,1-23.761-23.761v-3.145Z" transform="translate(-144.776 -193.041)" fill="#fff"/>
      <path id="Caminho_439" data-name="Caminho 439" d="M471.671,628.667c-.083-.135-2.031-3.388-2.706-10.142-.619-6.2-.221-16.642,5.2-31.212,10.262-27.6-2.365-49.874-2.494-50.1l.623-.362a55.291,55.291,0,0,1,5.216,14.776,64.466,64.466,0,0,1-2.67,35.932c-10.245,27.556-2.628,40.6-2.55,40.729Z" transform="translate(-334.033 -374.671)" fill="#f2f2f2"/>
      <circle id="Elipse_72" data-name="Elipse 72" cx="4.68" cy="4.68" r="4.68" transform="translate(128.945 151.565)" fill="#f9a826"/>
      <circle id="Elipse_73" data-name="Elipse 73" cx="4.68" cy="4.68" r="4.68" transform="translate(143.706 168.846)" fill="#f2f2f2"/>
      <circle id="Elipse_74" data-name="Elipse 74" cx="4.68" cy="4.68" r="4.68" transform="translate(133.626 180.366)" fill="#f9a826"/>
      <circle id="Elipse_75" data-name="Elipse 75" cx="4.68" cy="4.68" r="4.68" transform="translate(145.866 190.086)" fill="#f9a826"/>
      <circle id="Elipse_76" data-name="Elipse 76" cx="4.68" cy="4.68" r="4.68" transform="translate(130.026 205.207)" fill="#f2f2f2"/>
      <path id="Caminho_440" data-name="Caminho 440" d="M483.393,756.519s-4.68-11.52,9.36-20.161Z" transform="translate(-342.927 -502.35)" fill="#f2f2f2"/>
      <path id="Caminho_441" data-name="Caminho 441" d="M435.643,770.184s-2.13-12.251-18.616-12.146Z" transform="translate(-300.933 -516.225)" fill="#f2f2f2"/>
      <circle id="Elipse_77" data-name="Elipse 77" cx="28.801" cy="28.801" r="28.801" transform="translate(87.276 93.243)" fill="#f9a826" opacity="0.2"/>
      <circle id="Elipse_78" data-name="Elipse 78" cx="20.282" cy="20.282" r="20.282" transform="translate(95.795 101.762)" fill="#f9a826" opacity="0.2"/>
      <circle id="Elipse_79" data-name="Elipse 79" cx="13.386" cy="13.386" r="13.386" transform="translate(102.691 108.658)" fill="#f9a826"/>
      <path id="Caminho_442" data-name="Caminho 442" d="M415.087,413.01a2.434,2.434,0,1,0-3.971,1.886l-.9,6.275h4.868l-.9-6.275A2.429,2.429,0,0,0,415.087,413.01Z" transform="translate(-296.576 -293.853)" fill="#fff"/>
      <path id="Caminho_443" data-name="Caminho 443" d="M701.086,136.266s-8.029-7.2-18.826,6.368-27.686,20.211-31.562,25.471c0,0,16.058-6.645,21.6-9.413s5.26-2.215,5.26-2.215-7.475,5.26-8.86,10.521-.277,9.69-2.769,14.951,47.62,3.6,47.62,3.6,4.983-8.583,3.6-17.442S716.59,137.373,701.086,136.266Z" transform="translate(-450.479 -117.077)" fill="#2f2e41"/>
      <path id="Caminho_444" data-name="Caminho 444" d="M728.984,202.56s1.746,12.221-5.737,14.965-4.739,6.485-4.739,6.485l11.224,5.487,11.972-3.741,3.991-5.986s-6.485-1.5-4.739-5.986S743.2,207.8,743.2,207.8Z" transform="translate(-493.564 -160.726)" fill="#ffb9b9"/>
      <path id="Caminho_445" data-name="Caminho 445" d="M728.984,202.56s1.746,12.221-5.737,14.965-4.739,6.485-4.739,6.485l11.224,5.487,11.972-3.741,3.991-5.986s-6.485-1.5-4.739-5.986S743.2,207.8,743.2,207.8Z" transform="translate(-493.564 -160.726)" opacity="0.1"/>
      <path id="Caminho_446" data-name="Caminho 446" d="M817.592,299.551s-1.746,22.946-1.247,23.944,0,35.666,0,35.666,3.492,18.706-1,19.7-3.492-20.951-3.492-20.951l-4.489-28.932.5-28.683Z" transform="translate(-550.745 -222.799)" fill="#ffb9b9"/>
      <path id="Caminho_447" data-name="Caminho 447" d="M817.592,299.551s-1.746,22.946-1.247,23.944,0,35.666,0,35.666,3.492,18.706-1,19.7-3.492-20.951-3.492-20.951l-4.489-28.932.5-28.683Z" transform="translate(-550.745 -222.799)" opacity="0.1"/>
      <path id="Caminho_448" data-name="Caminho 448" d="M686.478,491.454s-8.23,31.177-7.981,46.391,3.492,36.414,3.492,36.414.5,9.228-.249,10.226,3.741,5.238,3.741,5.238l4.739-2.744,1.746-2v-1.746s-2.744-8.48-.5-15.214,3.492-23.694,1.247-28.932L708.177,493.2Z" transform="translate(-468.267 -345.615)" fill="#ffb9b9"/>
      <path id="Caminho_449" data-name="Caminho 449" d="M670.254,748.432s-2.993-3.741-4.988-2.494-5.238,9.727-5.238,9.727-11.224,10.725-3.242,11.224,11.473-2.245,12.471-4.24,10.226-7.233,10.226-7.233-1-9.478-2.494-9.727-3.741,3.741-3.741,3.741Z" transform="translate(-452.542 -508.314)" fill="#2f2e41"/>
      <path id="Caminho_450" data-name="Caminho 450" d="M769.983,483.695v30.927a95.607,95.607,0,0,0,.748,11.224c.748,5.487-4.24,46.391-4.24,46.391l.5,7.233,6.235-.5.748-6.235,8.979-27.435s2.993-16.711,1.5-22.946,7.732-46.141,7.732-46.141Z" transform="translate(-524.586 -335.86)" fill="#ffb9b9"/>
      <path id="Caminho_451" data-name="Caminho 451" d="M761.391,753.093l1.847-.4s1.4-3.09,3.141-2.342a18.825,18.825,0,0,1,3.472,2.08l.768,1.412a29.808,29.808,0,0,0,3.991,6.235c2.245,2.494,4.739,7.981,1,8.48s-8.729.748-10.226-.5-.5-3.242-2-3.741-2.744-2-2.494-2.494S761.391,753.093,761.391,753.093Z" transform="translate(-520.982 -511.23)" fill="#2f2e41"/>
      <circle id="Elipse_80" data-name="Elipse 80" cx="11.085" cy="11.085" r="11.085" transform="translate(234.312 28.255)" fill="#ffb9b9"/>
      <path id="Caminho_452" data-name="Caminho 452" d="M718,247.625l3.294-1.15s-1.3,2.148,5.684,3.395,14.216,1.689,17.459-2.4c0,0,1.247-.595,2.993,1.151s2.743,1.247,2.743,1.247l-1.247,6.485-2.494,11.972-3.242,8.979-9.228-2-9.977-7.233-3.741-9.727v-8.979Z" transform="translate(-493.55 -188.831)" fill="#f9a826"/>
      <path id="Caminho_453" data-name="Caminho 453" d="M726.255,252.768l2.494-1.746s8.48,1.5,8.979,5.487l-6.485,12.471a14.2,14.2,0,0,1-.25,10.725c-2.494,5.737-2.245,6.984-2.245,6.984L727,294.17l-31.676,2.494a22.445,22.445,0,0,0-1.746-3.492c-.5-.5-.5-2.245,0-2.245s0-.748-.5-1.5-.748-1,0-2-1.247-9.977-1.247-9.977v-9.727l-8.48-11.224s2.993-4.489,4.489-4.988,8.615-2.466,8.615-2.466l1.611,2.372,2.245,18.052,3.242,10.974,13.652-2.32,5.3-8.9,3.492-10.475Z" transform="translate(-471.38 -190.482)" fill="#f9a826"/>
      <path id="Caminho_454" data-name="Caminho 454" d="M817.746,265.6l2,1.5s1.746,13.967,1.247,14.965-9.228,2-9.478,1.5S817.746,265.6,817.746,265.6Z" transform="translate(-553.394 -201.073)" fill="#f9a826"/>
      <path id="Caminho_455" data-name="Caminho 455" d="M702.556,244.432l2.494,16.461s-2.245,24.442-1.746,29.431l.5,1.5s-1-.5-1.247.5a23.336,23.336,0,0,0,0,4.24s-1.5,1.5-2,9.727-6.485,27.934-4.24,28.683,15.713,4.489,22.946,3.741,33.172-9.478,32.923-11.723-12.72-33.92-12.72-33.92a32.77,32.77,0,0,1-2.245-4.24c0-.5,2.993-2.494,2.245-4.489s-4.739-22.946-4.739-22.946l2.743-14.965-3.741-1L730.989,259.9s-10.725,5.238-21.948.5l-2.494-16.96Z" transform="translate(-479.356 -186.885)" fill="#2f2e41"/>
      <path id="Caminho_456" data-name="Caminho 456" d="M747.864,164.667s18.457,12.72,23.445,6.984-8.729-10.725-8.729-10.725l-11.473-1.247Z" transform="translate(-512.665 -133.283)" fill="#2f2e41"/>
      <path id="Caminho_457" data-name="Caminho 457" d="M591.223,518.227a9.73,9.73,0,1,0-3.052-3.789l-25.455,21.194-3.389-4.023-1.523,1.018-1.695-2.011,1.392-1.173-1.695-2.011-2.166,1.825,1.043,1.238-2.321,1.955-1.043-1.238-3.4,2.868,1.564,1.857,1.238-1.043,1.695,2.011-1.547,1.3,3.129,3.713-3.713,3.129,3.78,4.487Zm6.356-14.218a6.438,6.438,0,1,1-6.962,5.866A6.438,6.438,0,0,1,597.578,504.009Z" transform="translate(-384.7 -351.526)" fill="#f9a826"/>
      <path id="Caminho_458" data-name="Caminho 458" d="M678.424,307.864s1.746,22.946,1.247,23.944,0,35.666,0,35.666-3.492,18.706,1,19.7,3.492-20.951,3.492-20.951l4.489-28.932-.5-28.683Z" transform="translate(-468.194 -228.119)" fill="#ffb9b9"/>
      <path id="Caminho_459" data-name="Caminho 459" d="M680.174,267.682l-2,.748s-3.741,15.713-2.744,15.713,12.97,1.5,12.97,1-2.245-12.72-2.245-12.72Z" transform="translate(-466.203 -202.403)" fill="#f9a826"/>
    </g>
  </g>
</svg>
