<svg xmlns="http://www.w3.org/2000/svg" width="188.885" height="143.709" viewBox="0 0 188.885 143.709"><g transform="translate(0)"><path d="M310.816,169.3h-.689V150.425A10.925,10.925,0,0,0,299.2,139.5H259.209a10.925,10.925,0,0,0-10.925,10.925V253.984a10.925,10.925,0,0,0,10.925,10.925H299.2a10.925,10.925,0,0,0,10.925-10.925V182.739h.689Z" transform="translate(-235.235 -139.5)" fill="#3f3d56"/><path d="M309.655,151.783h-5.22a3.876,3.876,0,0,1-3.589,5.34H277.934a3.876,3.876,0,0,1-3.589-5.34H269.47a8.159,8.159,0,0,0-8.159,8.159V263.348a8.159,8.159,0,0,0,8.159,8.159h40.185a8.159,8.159,0,0,0,8.159-8.159h0V159.941a8.159,8.159,0,0,0-8.159-8.159Z" transform="translate(-245.247 -148.94)" fill="#fff"/><path d="M280.292,679.963H192.123a.231.231,0,0,1,0-.463h88.169a.231.231,0,1,1,0,.463Z" transform="translate(-191.892 -554.536)" fill="#cbcbcb"/><circle cx="19.542" cy="19.542" r="19.542" transform="translate(24.774 40.911)" fill="#fa0"/><path d="M352.994,383.584a2.026,2.026,0,0,1-1.219-.405l-.022-.016-4.593-3.513a2.041,2.041,0,1,1,2.484-3.239l2.975,2.281,7.029-9.171a2.04,2.04,0,0,1,2.86-.378h0l-.044.061.045-.061a2.043,2.043,0,0,1,.377,2.861l-8.268,10.782a2.041,2.041,0,0,1-1.623.8Z" transform="translate(-310.615 -315.676)" fill="#fff"/><path d="M882.813,609.14a6.075,6.075,0,0,1,.834-1.063c.131-.135.268-.263.411-.387a6.512,6.512,0,0,1,10.738,3.7c.954-3.53-1.53-7.006-4.028-9.677s-5.356-5.6-5.341-9.256a7.047,7.047,0,0,1,2.506-5.2c.046-.041.093-.082.14-.121a9.5,9.5,0,0,1,6.546-2.281c4.443.238,8.322,3.224,11.016,6.766,4.336,5.7,6.237,13.7,3.2,20.187-2.67,5.706-8.365,9.094-14.178,11.818q-1.217.571-2.43,1.107l-.016.007c-.039.017-.078.034-.114.052l-.5.22.077.05.239.155-.248-.149-.075-.045c-2.855-1.713-5.749-3.525-7.721-6.2C881.825,616.052,881,612.075,882.813,609.14Z" transform="translate(-722.155 -481.792)" fill="#f1f1f1"/><path d="M907.955,610.27a16.153,16.153,0,0,1,1.244,4.52,14.028,14.028,0,0,1-.169,4.168,17.975,17.975,0,0,1-3.6,7.711,25.87,25.87,0,0,1-4.67,4.54q-1.217.571-2.43,1.107l-.017.007c-.039.017-.078.034-.114.052l-.5.22.077.05.239.155-.248-.149-.075-.045a14.174,14.174,0,0,0-7.944-16.951c.131-.135.268-.263.41-.387a14.961,14.961,0,0,1,2.292,1.309,14.652,14.652,0,0,1,5.544,7.345,14.981,14.981,0,0,1,.325,8.375c.143-.094.287-.19.427-.286a26.267,26.267,0,0,0,6.956-6.589,16.723,16.723,0,0,0,2.967-7.541,15.114,15.114,0,0,0-1.715-8.54,35,35,0,0,0-5.484-7.792,39.778,39.778,0,0,0-7.354-6.323.286.286,0,0,1-.085-.385.243.243,0,0,1,.14-.121.212.212,0,0,1,.18.037c.333.222.664.447.99.678a40.223,40.223,0,0,1,7.351,6.715A32.387,32.387,0,0,1,907.955,610.27Z" transform="translate(-728.25 -489.37)" fill="#fff"/><circle cx="4.15" cy="4.15" r="4.15" transform="translate(117.352 0.773)" fill="#f1f1f1"/><circle cx="2.53" cy="2.53" r="2.53" transform="translate(170.578 59.553)" fill="#f1f1f1"/><circle cx="2.53" cy="2.53" r="2.53" transform="translate(96.525 66.495)" fill="#f1f1f1"/><path d="M625.339,758.963h88.169a.231.231,0,0,0,0-.463H625.339a.231.231,0,1,0,0,.463Z" transform="translate(-524.856 -615.254)" fill="#cbcbcb"/><path d="M919.674,223.3a3.391,3.391,0,0,0-6.511-1.719l-7.155,8.2,2.1,5.863,7.2-9.584a3.372,3.372,0,0,0,4.371-2.763Z" transform="translate(-740.752 -200.938)" fill="#ffb7b7"/><path d="M614.318,133.452l23.75-25.347-3.2-5.093L605.076,128.2Z" transform="translate(-465.053 -79.174)" fill="#3f3d56"/><circle cx="8.331" cy="8.331" r="8.331" transform="translate(135.634 22.216)" fill="#2f2e41"/><path d="M816.894,235.12a17.469,17.469,0,0,1,6.355-4.11,8.942,8.942,0,0,1,4.815-.6,4.589,4.589,0,0,1,3.573,3.01,5.682,5.682,0,0,1-.581,3.889c-.569,1.213-1.328,2.338-1.788,3.6a8.208,8.208,0,0,0,8.259,11.007,40.858,40.858,0,0,0-4.575,1.348c-1.543.395-3.363.368-4.509-.737-1.213-1.169-1.237-3.07-1.178-4.754l.261-7.508a9.538,9.538,0,0,0-.378-3.785,3.251,3.251,0,0,0-2.831-2.224,4.645,4.645,0,0,0-2.6,1.173,5.313,5.313,0,0,1-2.562,1.281c-.964.086-2.065-.627-1.993-1.593Z" transform="translate(-672.259 -209.279)" fill="#2f2e41"/><path d="M662.992,465.411a3.391,3.391,0,0,1-2.555-6.231l7.2-8.165,6.087,1.315-8.562,8.386a3.372,3.372,0,0,1-2.168,4.695Z" transform="translate(-550.668 -378.925)" fill="#ffb7b7"/><path d="M509.961,204.831l-17.938,22.517-5.468-2.51,21.084-32.825Z" transform="translate(-373.959 -147.578)" fill="#3f3d56"/><path d="M511.649,540.988l-4.275-.067.514,14.571h3.76Z" transform="translate(-389.96 -415.744)" fill="#ffb7b7"/><path d="M681.611,738.081h-7.406a4.72,4.72,0,0,0-4.719,4.719v.154h12.125Z" transform="translate(-558.964 -599.56)" fill="#2f2e41"/><path d="M632.654,524.511l-4.67,3,9.342,11.239,3.164-2.032Z" transform="translate(-482.659 -403.131)" fill="#ffb7b7"/><path d="M846.635,710.049l-6.232,4h0a4.72,4.72,0,0,0-1.422,6.521l.083.129,10.2-6.551Z" transform="translate(-688.66 -578.016)" fill="#2f2e41"/><path d="M725.794,355.674s-10.377-34.464-13.711-34.93-8.708,8.843-8.708,8.843c-6.966,8.888-14.15,37.679-14.15,37.679s11.975.749,20.729,5.407,19.084-.236,19.084-.236Z" transform="translate(-574.135 -278.788)" fill="#3f3d56"/><path d="M725.794,355.674s-10.377-34.464-13.711-34.93-7.343,8.938-7.343,8.938c-3.471,14.348-15.514,37.585-15.514,37.585s11.975.749,20.729,5.407,19.084-.236,19.084-.236Z" transform="translate(-574.135 -278.789)" opacity="0.1"/><path d="M528.494,279.7V297.02l2.038,25.086,10.182,18.976-4.86,3.471L521.97,326.5l-5.492-17.923-8.625,39.676-6.48-.463,4.5-55.01,8.539-15.484Z" transform="translate(-385.349 -213.129)" fill="#2f2e41"/><path d="M752.184,328.668c-3.24,3.24-.231,6.711-.231,6.711l-3.7,8.331,14.579,3.934,5.095-22.766-3.471-3.7c-6.943-.231-6.946-.375-6.946-.375C756.29,321.99,752.184,328.668,752.184,328.668Z" transform="translate(-619.501 -278.844)" fill="#fa0"/><path d="M791.292,324.191a6.221,6.221,0,0,0-8.742,1.368c-3.665,5.1-7.054,13.344-2.385,23.621,7.5,16.5,14.022,24.95,16.674,24.949a1.054,1.054,0,0,0,.341-.054c1.633-.554,3.993-3.317,4.421-5.751a2.917,2.917,0,0,0-.926-2.919c-2.994-2.394-8.367-9.849-10.044-19.662a21.751,21.751,0,0,1,2.54-13.549,6.22,6.22,0,0,0-1.8-7.944h0Z" transform="translate(-642.281 -280.517)" fill="#3f3d56"/><circle cx="6.133" cy="6.133" r="6.133" transform="translate(133.128 30.239) rotate(-28.663)" fill="#ffb7b7"/><path d="M765.872,256.317h8.855l.091-1.271.454,1.271h1.364l.18-2.52.9,2.52h2.638v-.125a6.624,6.624,0,0,0-6.617-6.617h-1.248a6.624,6.624,0,0,0-6.617,6.617Z" transform="translate(-633.045 -224.102)" fill="#2f2e41"/><path d="M811.515,263.9l3.779-1.226V253.5h-7.138l.177.176C810.791,256.132,813.526,264.844,811.515,263.9Z" transform="translate(-665.544 -227.119)" fill="#2f2e41"/></g></svg>