<svg xmlns="http://www.w3.org/2000/svg" width="143.703" height="143.709" viewBox="0 0 143.703 143.709"><g transform="translate(0)"><path d="M405.7,183.852a71.608,71.608,0,0,1-5.786,28.294l-.238.548a71.971,71.971,0,0,1-78.295,41.931q-.647-.115-1.292-.238a71.208,71.208,0,0,1-13-3.833q-1.024-.411-2.032-.852c-.459-.2-.918-.406-1.373-.619A71.859,71.859,0,1,1,405.7,183.852Z" transform="translate(-262 -112)" fill="#fa0"/><path d="M428.387,424.984q-.647-.115-1.292-.238a295.464,295.464,0,0,0-4.528-42.365,157.182,157.182,0,0,0-7.748-28.182,87.717,87.717,0,0,0-4.054-8.894c-3.495-6.6-7.734-12.157-12.874-15.922l.757-1.033a44.457,44.457,0,0,1,11.526,13.2q1.534,2.545,2.946,5.429,1.515,3.087,2.889,6.554.877,2.207,1.694,4.566a165.742,165.742,0,0,1,6.05,23.379q.552,2.9,1.05,5.946A301.479,301.479,0,0,1,428.387,424.984Z" transform="translate(-369.003 -282.359)" opacity="0.2"/><path d="M414.955,629.79c-.459-.2-.918-.406-1.373-.619a104.366,104.366,0,0,0-2.753-16.494,54.112,54.112,0,0,0-2.511-7.483c-1.7-3.986-3.907-7.374-6.758-9.464l.757-1.031c2.985,2.185,5.287,5.64,7.066,9.681a66.405,66.405,0,0,1,4.232,14.917C414.276,623.058,414.693,626.691,414.955,629.79Z" transform="translate(-371.893 -492.088)" opacity="0.2"/><circle cx="6.396" cy="6.396" r="6.396" transform="translate(15.343 34.203)" opacity="0.2"/><circle cx="6.396" cy="6.396" r="6.396" transform="translate(17.402 89.262)" opacity="0.2"/><path d="M482.408,304.885a28.411,28.411,0,0,0,1.638,14.581,25.892,25.892,0,0,0,4.912-27.711A28.413,28.413,0,0,0,482.408,304.885Z" transform="translate(-435.276 -253.543)" opacity="0.2"/><path d="M340.015,404.708a28.552,28.552,0,0,0,14.633.956A26.051,26.051,0,0,0,328.217,396,28.551,28.551,0,0,0,340.015,404.708Z" transform="translate(-314.141 -335.201)" opacity="0.2"/><path d="M347.29,644.2a19.914,19.914,0,0,0,10.264.65,18.148,18.148,0,0,0-18.526-6.774A19.913,19.913,0,0,0,347.29,644.2Z" transform="translate(-322.653 -525.935)" opacity="0.2"/><circle cx="28.012" cy="28.012" r="28.012" transform="translate(43.693 31.74)" fill="#d0cde1"/><path d="M547.833,461.54s3.5,16.632,3.5,18.383,16.632,9.629,16.632,9.629l14.881-2.626,5.252-15.757s-8.754-13.13-8.754-18.383Z" transform="translate(-487.071 -380.343)" fill="#d0cde1"/><path d="M498.534,531.272l-.238.548A71.971,71.971,0,0,1,420,573.752q-.647-.115-1.292-.238a71.2,71.2,0,0,1-13-3.833q-1.024-.411-2.032-.852c-.459-.2-.918-.406-1.373-.619a71.76,71.76,0,0,1-11.745-6.862l-3.32-9.632,1.866-1.424,3.839-2.932,4.1-3.127,1.065-.814,16.073-12.27,1.186-.906,8.354-6.377,0,0s9.035,14.721,22.166,10.344a18.107,18.107,0,0,0,12.844-16.928Z" transform="translate(-360.617 -431.126)" fill="#2f2e41"/><path d="M460.633,229.543s8.894-19.269,25.94-14.823,26.681,11.117,27.422,17.787-.37,16.675-.37,16.675-1.853-13.711-13.711-10.746-30.386.741-30.386.741l-2.965,26.681s-3.335-4.817-7.041-1.853S448.774,235.472,460.633,229.543Z" transform="translate(-413.22 -192.36)" fill="#2f2e41"/><path d="M392.545,697.235q-1.024-.411-2.032-.852c-.459-.2-.918-.406-1.373-.619a72.028,72.028,0,0,1-18.62-12.478,25.19,25.19,0,0,1,3.554-4.016h13.131l1.969,6.62Z" transform="translate(-347.451 -558.68)" fill="#2f2e41"/><path d="M853.7,576.32l11.265,1.99A71.841,71.841,0,0,1,852.9,597.138Z" transform="translate(-727.287 -477.615)" fill="#2f2e41"/></g></svg>