<svg id="Logo-Original" xmlns="http://www.w3.org/2000/svg" width="85.22" height="39.489" viewBox="0 0 85.22 39.489">
  <g id="_2c2c2bff" data-name="#2c2c2bff">
    <path id="Caminho_48" data-name="Caminho 48" d="M349.04,441.45c2.776-.2,5.54-.564,8.321-.68-.383,2.828-.816,5.656-.934,8.509a7.744,7.744,0,0,1,5.2,2.016,7.908,7.908,0,0,1,1.726,3.485c.087-1.108.106-2.219.122-3.33,1.51.048,3.011.209,4.517.3a42.879,42.879,0,0,0-.242,9.22c.157-1.289-.085-2.625.331-3.881a5.522,5.522,0,0,1,3.238-3.539,7.541,7.541,0,0,1,7.105.657,2.389,2.389,0,0,0,1.167.381c-.2-2.578-.479-5.157-.532-7.743,2.062.091,4.127.16,6.193.174a53.231,53.231,0,0,0-.653,6.62,8.394,8.394,0,0,0,1.5-2.691,9.533,9.533,0,0,0,.166-3.17c2.1.162,4.2.161,6.292.412a17.2,17.2,0,0,1-.9,4.444,15.434,15.434,0,0,1-3.489,4.933,8.284,8.284,0,0,1,2.459,3.758,17.971,17.971,0,0,0,1.45,4.152,7.529,7.529,0,0,0,3.079.139,9.431,9.431,0,0,0,2.642-1.423,30.452,30.452,0,0,1,4.511-2.26c1.656-.675,3.251-1.51,4.958-2.053-1.14,1.691-2.43,3.278-3.63,4.927a24.462,24.462,0,0,1-2.567,3.046,13.279,13.279,0,0,1-3.058,2.552,8.869,8.869,0,0,1-5.279.827,24.511,24.511,0,0,1-6.692-2.031,36.946,36.946,0,0,0-9.332-2.445,90.633,90.633,0,0,0-10.229-.883,53.079,53.079,0,0,0-6.746.037,16.6,16.6,0,0,0-8.69,2.946c-2.64,1.711-4.809,4.109-7.683,5.459a24.181,24.181,0,0,1-6.844,2.028,11.588,11.588,0,0,1-6.529-1.15,14.246,14.246,0,0,1-7.461-16.292,14.894,14.894,0,0,1,5.478-7.869,17.1,17.1,0,0,1,7.8-3.193,10.6,10.6,0,0,1,5.946.717,6.214,6.214,0,0,1,3.73,4.97,9.73,9.73,0,0,1-.35,4.583,6.7,6.7,0,0,1-4.272,4.032,7.549,7.549,0,0,1-4.413-.16,2.888,2.888,0,0,1-1.657-2.8,6.426,6.426,0,0,1,1.684-4.121,8.473,8.473,0,0,1,2.7-1.946c-1.718-.644-3.587-.178-5.273.346a10.483,10.483,0,0,0-7.007,7.476,8.9,8.9,0,0,0,1.3,6.4,8.624,8.624,0,0,0,6.788,4.27,16.675,16.675,0,0,0,5.277-1.171,13.127,13.127,0,0,0,3.765-2.211,10.656,10.656,0,0,0,2.339-2.115c2.335-3.717,4.235-7.879,4.453-12.324a38.332,38.332,0,0,0-.584-8.5c-.247-1.32-.9-2.517-1.2-3.825m3.537.76a37.064,37.064,0,0,1,.779,4.2,38.29,38.29,0,0,1,.019,8.725,28.734,28.734,0,0,1-3.816,9.9,7.928,7.928,0,0,1-1.823,2.437,27.518,27.518,0,0,1-4.279,3.068,20.144,20.144,0,0,1-4.875,1.685,9.594,9.594,0,0,1-3.4.288,10.858,10.858,0,0,1-4.923-2.047,11.838,11.838,0,0,1-4.162-6.481,9.846,9.846,0,0,1,.439-6.114,12.5,12.5,0,0,1,7.786-7.111,11.517,11.517,0,0,1,5.428-.6,4.394,4.394,0,0,1,3.112,1.918c.348.5-.073,1.05-.238,1.531a5.867,5.867,0,0,0-3.866,1.784,4.034,4.034,0,0,0-1.053,3.539c.093.447.618.495.984.593a5.139,5.139,0,0,0,3.759-.626,4.743,4.743,0,0,0,2.119-3.79,9.946,9.946,0,0,0-.307-3.491A5.57,5.57,0,0,0,340,448.774a13.425,13.425,0,0,0-6.67,1.011,13.646,13.646,0,0,0-7.908,8.126,12.4,12.4,0,0,0,5.571,14.342,10,10,0,0,0,6.431,1.326,22.288,22.288,0,0,0,5.677-1.656c2.876-1.251,5-3.647,7.6-5.343a18.968,18.968,0,0,1,9.829-3.443,95.775,95.775,0,0,1,14.106.476,53.956,53.956,0,0,1,11.265,2.263c2.853,1.129,5.692,2.561,8.818,2.7a6.288,6.288,0,0,0,4.656-1.645,14.427,14.427,0,0,0,2.952-3.334c-1.711.448-3.038,1.68-4.571,2.492a7.44,7.44,0,0,1-4.569.425c-.57-.118-1.266-.176-1.606-.719-1.052-1.571-1.363-3.471-1.939-5.236A7.31,7.31,0,0,0,386,456.865c2.513-1.975,4.97-4.548,5.381-7.859a15.559,15.559,0,0,0-2.225-.106,12.065,12.065,0,0,1-5.814,8.323c.245-3.081.276-6.178.709-9.243a16.4,16.4,0,0,0-2.09-.066c.093,2.406.35,4.8.481,7.208a13.932,13.932,0,0,1-1.314,6.9c-.278.474-.624,1.179-1.293,1.026-1.417-.176-2.822-.466-4.249-.568-1-.114-2.134-.037-2.952-.737a4.163,4.163,0,0,1-1.34-3.732,3.063,3.063,0,0,1,1.282-2.414,5.277,5.277,0,0,1,3.381-.709c-.518.719-1.268,1.628-.769,2.551a2.2,2.2,0,0,0,2.783-.893c.34-.58.613-1.562-.114-1.966a5.64,5.64,0,0,0-4.067-.479,3.921,3.921,0,0,0-3.044,2.731,6.6,6.6,0,0,0,.936,5.281c-1.589-.137-3.184-.147-4.776-.22-.066-.98-.095-1.962-.2-2.938a47.548,47.548,0,0,1,.135-6.319c-.143-.027-.429-.079-.574-.1-.066.605-.12,1.212-.17,1.821a50.761,50.761,0,0,1-1.367,7.508,7.392,7.392,0,0,1-2.045-.014,2.023,2.023,0,0,1-.789-2.238,16.643,16.643,0,0,0,.387-5.64,3.935,3.935,0,0,0-2.051-3.015,6.889,6.889,0,0,0-4.931-.365c.153-2.9.5-5.774.766-8.658q-1.748.11-3.489.282m26.56,14.578a4.12,4.12,0,0,1-1.954,3.011,4.071,4.071,0,0,1-3.328.323,5.531,5.531,0,0,1-1.67-1.4,3.322,3.322,0,0,0,.41,2.277c.34.433.937.423,1.432.489,1.546.122,3.081.354,4.618.559a12.671,12.671,0,0,0,1.034-6.514C379.12,455.7,379.246,456.341,379.137,456.788Z" transform="translate(-322.049 -440.77)" fill="#2c2c2b"/>
  </g>
  <g id="_fac113ff" data-name="#fac113ff" transform="translate(2.794 1.158)">
    <path id="Caminho_49" data-name="Caminho 49" d="M364.237,447.042q1.743-.171,3.489-.282c-.263,2.884-.613,5.762-.765,8.657a6.888,6.888,0,0,1,4.931.365,3.935,3.935,0,0,1,2.051,3.015,16.644,16.644,0,0,1-.387,5.64,2.023,2.023,0,0,0,.789,2.238,7.393,7.393,0,0,0,2.045.014,50.757,50.757,0,0,0,1.367-7.508c.095-.037.286-.108.381-.143a44.686,44.686,0,0,0,.108,6.21c.046-.489.095-.976.12-1.465.106.976.135,1.958.2,2.938,1.593.073,3.187.083,4.776.22a6.6,6.6,0,0,1-.935-5.281,3.921,3.921,0,0,1,3.044-2.731,5.64,5.64,0,0,1,4.067.479c.727.4.454,1.386.114,1.966a2.2,2.2,0,0,1-2.783.893c-.5-.924.251-1.832.769-2.551a5.276,5.276,0,0,0-3.381.709,3.063,3.063,0,0,0-1.282,2.414,4.163,4.163,0,0,0,1.34,3.732c.818.7,1.948.622,2.952.737,1.427.1,2.832.392,4.249.568.669.153,1.015-.553,1.293-1.026a13.931,13.931,0,0,0,1.314-6.9c-.132-2.4-.389-4.8-.481-7.208a16.4,16.4,0,0,1,2.09.066c-.433,3.066-.464,6.162-.709,9.243a12.065,12.065,0,0,0,5.814-8.323,15.559,15.559,0,0,1,2.225.106c-.412,3.311-2.868,5.884-5.381,7.859a7.311,7.311,0,0,1,3.642,3.692c.576,1.765.887,3.665,1.939,5.236.34.543,1.036.6,1.606.719a7.44,7.44,0,0,0,4.569-.425c1.533-.812,2.861-2.043,4.571-2.491a14.429,14.429,0,0,1-2.952,3.334,6.288,6.288,0,0,1-4.656,1.645c-3.125-.137-5.965-1.57-8.818-2.7a53.955,53.955,0,0,0-11.265-2.263,95.788,95.788,0,0,0-14.106-.476,18.968,18.968,0,0,0-9.829,3.443c-2.594,1.7-4.722,4.092-7.6,5.343a22.282,22.282,0,0,1-5.677,1.656,10,10,0,0,1-6.431-1.326,12.4,12.4,0,0,1-5.571-14.342,13.646,13.646,0,0,1,7.908-8.126,13.426,13.426,0,0,1,6.67-1.011,5.57,5.57,0,0,1,4.262,2.853,9.946,9.946,0,0,1,.307,3.491,4.743,4.743,0,0,1-2.119,3.79,5.139,5.139,0,0,1-3.759.626c-.365-.1-.891-.147-.984-.593a4.034,4.034,0,0,1,1.053-3.539,5.867,5.867,0,0,1,3.866-1.784c.164-.481.586-1.034.238-1.531A4.394,4.394,0,0,0,351.414,455a11.516,11.516,0,0,0-5.428.6,12.5,12.5,0,0,0-7.786,7.111,9.847,9.847,0,0,0-.439,6.114,11.838,11.838,0,0,0,4.162,6.481,10.857,10.857,0,0,0,4.923,2.047,9.594,9.594,0,0,0,3.4-.288,20.147,20.147,0,0,0,4.875-1.685,27.516,27.516,0,0,0,4.279-3.068,7.928,7.928,0,0,0,1.823-2.437,28.733,28.733,0,0,0,3.815-9.9,38.29,38.29,0,0,0-.019-8.725,37.052,37.052,0,0,0-.779-4.2m2.553,9.8q-.038.559-.077,1.119a47.366,47.366,0,0,1-2,7.824,16.884,16.884,0,0,0-1.442,2.466c-.383.651-.779,1.3-1.131,1.964,1.111-.551,2.136-1.272,3.29-1.74a14.651,14.651,0,0,0,1.865-.854c.242-.068.485-.131.731-.187a3.82,3.82,0,0,0,2.391-.4l.352-.046c.651-.1,1.309-.176,1.964-.246-.876-2.225.327-4.521.062-6.794a2.967,2.967,0,0,0-1.639-2.669,6.72,6.72,0,0,0-4.361-.433m28.012,6.228a24.4,24.4,0,0,1-.564,2.714,11.97,11.97,0,0,1-1.175,2.408c.213.023.429.048.644.075.75.219,1.515.381,2.285.524,1.154.215,2.263.613,3.408.866q.963.394,1.958.7a17.834,17.834,0,0,1-1.318-3.682,6.833,6.833,0,0,0-3-3.964C396.323,462.152,395.5,462.828,394.8,463.072Z" transform="translate(-336.502 -446.76)" fill="#fac113"/>
  </g>
  <g id="_fac110ff" data-name="#fac110ff" transform="translate(42.866 5.906)">
    <path id="Caminho_50" data-name="Caminho 50" d="M544.9,471.347a1.4,1.4,0,0,1,1.678.891c.193.694-.039,1.682-.829,1.867-.514.054-1.181.157-1.548-.3C543.521,473.044,543.749,471.488,544.9,471.347Z" transform="translate(-543.818 -471.323)" fill="#fac110"/>
  </g>
  <g id="_010101ff" data-name="#010101ff" transform="translate(76.053 6.282)">
    <path id="Caminho_51" data-name="Caminho 51" d="M720.648,473.484c.354-.072.711-.141,1.067-.215a8.61,8.61,0,0,1,.493,2.656q-3.114.023-6.228.006c0-.439.008-.876.015-1.314,1.606,0,3.214.027,4.823-.014C720.76,474.229,720.7,473.858,720.648,473.484Z" transform="translate(-715.89 -473.27)" fill="#010101"/>
    <path id="Caminho_52" data-name="Caminho 52" d="M717.6,493.759a3.7,3.7,0,0,1,3.734.964,2.655,2.655,0,0,1-.431,3.682c-1.558,1.183-4.258.878-5.161-.976a2.673,2.673,0,0,1,1.858-3.671m.791,1.191c-.669.072-1.484.36-1.666,1.09a1.306,1.306,0,0,0,.941,1.556,2.97,2.97,0,0,0,2.534-.257,1.217,1.217,0,0,0,.178-1.854A2.671,2.671,0,0,0,718.394,494.95Z" transform="translate(-715.513 -489.686)" fill="#010101"/>
  </g>
  <g id="_2c2b2bff" data-name="#2c2b2bff" transform="translate(33.005 11.044)">
    <path id="Caminho_53" data-name="Caminho 53" d="M492.877,498.1a6.72,6.72,0,0,1,4.361.433,2.967,2.967,0,0,1,1.639,2.669c.265,2.273-.937,4.569-.062,6.794-.655.07-1.312.147-1.964.245-.228-1.925.632-3.759.578-5.681a3.557,3.557,0,0,0-.862-2.766,5.155,5.155,0,0,0-3.767-.576Q492.841,498.663,492.877,498.1Z" transform="translate(-492.8 -497.906)" fill="#2c2b2b"/>
  </g>
  <g id="_f0c247ff" data-name="#f0c247ff" transform="translate(44.047 11.76)">
    <path id="Caminho_54" data-name="Caminho 54" d="M550.1,501.61c.145.025.431.077.574.1a47.55,47.55,0,0,0-.135,6.319c-.025.489-.073.976-.12,1.465a44.662,44.662,0,0,1-.108-6.21c-.095.035-.286.106-.381.143C549.98,502.822,550.034,502.215,550.1,501.61Z" transform="translate(-549.93 -501.61)" fill="#f0c247"/>
  </g>
  <g id="_2d2c29ff" data-name="#2d2c29ff" transform="translate(59.354 16.892)">
    <path id="Caminho_55" data-name="Caminho 55" d="M630.86,528.74c.7-.244,1.521-.92,2.232-.363a6.831,6.831,0,0,1,3,3.964,17.849,17.849,0,0,0,1.318,3.682q-1-.3-1.958-.7a21.611,21.611,0,0,0-.816-2.89,4.645,4.645,0,0,0-2.729-2.476.853.853,0,0,0-1.1.651c-.34,1.109-.62,2.242-1.05,3.325-.215-.027-.431-.052-.644-.075a11.964,11.964,0,0,0,1.175-2.408A24.406,24.406,0,0,0,630.86,528.74Z" transform="translate(-629.12 -528.162)" fill="#2d2c29"/>
  </g>
  <g id="_342b1dff" data-name="#342b1dff" transform="translate(28.428 20.185)">
    <path id="Caminho_56" data-name="Caminho 56" d="M470.251,547.666a16.9,16.9,0,0,1,1.442-2.466c-.385,1.053-.858,2.072-1.254,3.124,1.278-.433,2.521-.978,3.837-1.287a14.655,14.655,0,0,1-1.865.854c-1.154.468-2.178,1.189-3.29,1.74C469.472,548.961,469.868,548.318,470.251,547.666Z" transform="translate(-469.12 -545.2)" fill="#342b1d"/>
  </g>
  <g id="_d8bb68ff" data-name="#d8bb68ff" transform="translate(34.313 21.43)">
    <path id="Caminho_57" data-name="Caminho 57" d="M499.57,552.044a17.543,17.543,0,0,1,2.391-.4A3.818,3.818,0,0,1,499.57,552.044Z" transform="translate(-499.57 -551.64)" fill="#d8bb68"/>
  </g>
  <g id="_a10208ff" data-name="#a10208ff" transform="translate(35.862 32.82)">
    <path id="Caminho_58" data-name="Caminho 58" d="M507.667,610.6c9.792-.06,19.584-.006,29.374-.025,5.745.016,11.489-.033,17.234.023.073,2.117-.064,4.239.083,6.353-4.225.1-8.453,0-12.678.056-10.115.021-20.232-.006-30.347.012-1.253.037-2.5-.041-3.754-.062.188-2.115.021-4.239.087-6.357m4.2,2.31a2.081,2.081,0,0,0,1.239,2.952,2.519,2.519,0,0,0,2.318-.628,4.742,4.742,0,0,0-.6-.425c-.537.076-1.1.452-1.633.18a1.307,1.307,0,0,1,.172-2.306,3.583,3.583,0,0,1,1.562.265c.112-.2.226-.406.342-.6a2.224,2.224,0,0,0-3.4.568m5.54-1.038c.01,1.322.017,2.644,0,3.966.286.014.574.027.864.043.015-.535.029-1.069.044-1.6q.794-.006,1.591,0c.014.516.021,1.036.023,1.556.286.011.576.025.866.04.029-1.343.039-2.689-.014-4.03-.284.006-.566.012-.848.019,0,.522-.012,1.044-.025,1.568-.53,0-1.059,0-1.587,0-.021-.528-.041-1.055-.064-1.581-.284.006-.566.012-.847.019m5.588-.011c-.006.883-.058,1.769.01,2.652.029,1.6,2.569,1.954,3.232.607a8.479,8.479,0,0,0,.2-3.261c-.276,0-.553,0-.827,0a22.525,22.525,0,0,1-.114,2.725c-.187.732-1.515.7-1.585-.093a23.048,23.048,0,0,1-.064-2.635c-.286,0-.568,0-.85,0m5.808.013c.025,1.32.019,2.642,0,3.962.282.013.566.029.852.044.029-.448.058-.895.093-1.341.213.017.425.041.64.066l.88,1.257c.317,0,.636,0,.957,0-.267-.445-.537-.883-.806-1.322a1.619,1.619,0,0,0,.468-2.217c-.829-.758-2.072-.381-3.087-.452m5.416,0q.032,1.98,0,3.962c.282.014.568.027.854.043.029-.448.06-.893.095-1.339.211.017.423.039.64.062q.435.629.876,1.258l.955,0c-.263-.443-.531-.881-.8-1.322a1.616,1.616,0,0,0,.458-2.217c-.825-.761-2.066-.381-3.079-.45m6.945.01a2.041,2.041,0,0,0-1.446,1.486,2.12,2.12,0,1,0,4.191.375,2.108,2.108,0,0,0-2.745-1.861M546.5,612a1.123,1.123,0,0,0,.1,2.02c.477.3,1.332.234,1.488.868-.565.514-1.309.043-1.92-.124-.151.184-.3.367-.446.557a2.705,2.705,0,0,0,2.449.477,1.165,1.165,0,0,0,.458-1.854,6.239,6.239,0,0,0-1.811-.771c.025-.153.079-.458.106-.611a14.178,14.178,0,0,1,1.494.331c.13-.228.261-.456.393-.682A2.7,2.7,0,0,0,546.5,612Z" transform="translate(-507.58 -610.565)" fill="#a10208"/>
  </g>
  <g id="_fef6f4ff" data-name="#fef6f4ff" transform="translate(39.91 34.049)">
    <path id="Caminho_59" data-name="Caminho 59" d="M528.762,618.037a2.224,2.224,0,0,1,3.4-.568c-.116.2-.23.4-.342.6a3.582,3.582,0,0,0-1.562-.265,1.307,1.307,0,0,0-.172,2.306c.533.273,1.1-.1,1.633-.18a4.745,4.745,0,0,1,.6.425,2.518,2.518,0,0,1-2.318.628A2.081,2.081,0,0,1,528.762,618.037Z" transform="translate(-528.525 -616.926)" fill="#fef6f4"/>
  </g>
  <g id="_fef8f5ff" data-name="#fef8f5ff" transform="translate(45.683 34.1)">
    <path id="Caminho_60" data-name="Caminho 60" d="M558.394,617.211c.28-.008.563-.014.847-.019.023.526.043,1.053.064,1.581.528.006,1.057.006,1.587,0,.014-.524.023-1.046.025-1.568.282-.008.564-.014.848-.019.052,1.341.042,2.687.013,4.03-.29-.016-.58-.029-.866-.041,0-.52-.01-1.04-.023-1.556q-.8-.009-1.591,0c-.015.532-.029,1.065-.044,1.6-.29-.016-.578-.029-.864-.043C558.411,619.855,558.4,618.533,558.394,617.211Z" transform="translate(-558.39 -617.19)" fill="#fef8f5"/>
  </g>
  <g id="_fff6f3ff" data-name="#fff6f3ff" transform="translate(51.25 34.107)">
    <path id="Caminho_61" data-name="Caminho 61" d="M587.217,617.226c.282,0,.565,0,.85,0a23.062,23.062,0,0,0,.064,2.635c.07.791,1.4.825,1.585.093a22.5,22.5,0,0,0,.114-2.725c.274,0,.551,0,.827,0a8.483,8.483,0,0,1-.2,3.261c-.663,1.347-3.2,1-3.232-.607C587.159,619,587.211,618.11,587.217,617.226Z" transform="translate(-587.192 -617.223)" fill="#fff6f3"/>
  </g>
  <g id="_fcf7f5ff" data-name="#fcf7f5ff" transform="translate(57.083 34.092)">
    <path id="Caminho_62" data-name="Caminho 62" d="M617.37,617.176c1.015.072,2.258-.305,3.087.452a1.619,1.619,0,0,1-.468,2.217c.269.439.539.878.806,1.322-.321,0-.64,0-.957,0l-.879-1.256c-.215-.025-.427-.048-.64-.066-.035.447-.064.893-.093,1.341-.286-.016-.57-.031-.852-.044.016-1.32.021-2.642,0-3.963m.926.717c-.018.4-.029.812-.039,1.22a3.935,3.935,0,0,0,1.457-.158c.066-.28.089-.57.128-.854C619.328,618.011,618.812,617.948,618.3,617.893Z" transform="translate(-617.37 -617.144)" fill="#fcf7f5"/>
  </g>
  <g id="_fcf8f5ff" data-name="#fcf8f5ff" transform="translate(62.499 34.091)">
    <path id="Caminho_63" data-name="Caminho 63" d="M645.39,617.174c1.013.07,2.254-.311,3.079.45a1.616,1.616,0,0,1-.458,2.217c.267.441.535.88.8,1.322l-.955,0q-.441-.629-.876-1.258c-.216-.023-.429-.044-.64-.062-.035.446-.066.891-.095,1.34-.286-.016-.572-.029-.854-.043q.029-1.98,0-3.963m.92.717q-.023.606-.035,1.216c.5-.073,1.438.2,1.573-.474C647.916,617.8,646.843,617.976,646.31,617.891Z" transform="translate(-645.39 -617.139)" fill="#fcf8f5"/>
  </g>
  <g id="_fdf6f3ff" data-name="#fdf6f3ff" transform="translate(67.933 34.039)">
    <path id="Caminho_64" data-name="Caminho 64" d="M675.015,616.967a2.107,2.107,0,0,1,2.745,1.861,2.12,2.12,0,1,1-4.191-.375,2.041,2.041,0,0,1,1.446-1.486m.226.8a1.274,1.274,0,0,0,.133,2.4,1.177,1.177,0,0,0,1.465-1.156A1.219,1.219,0,0,0,675.241,617.765Z" transform="translate(-673.504 -616.87)" fill="#fdf6f3"/>
  </g>
  <g id="_fcf4f2ff" data-name="#fcf4f2ff" transform="translate(74.006 34.066)">
    <path id="Caminho_65" data-name="Caminho 65" d="M705.7,617.2a2.7,2.7,0,0,1,2.31.211c-.131.226-.263.454-.392.682a14.229,14.229,0,0,0-1.494-.331c-.027.153-.081.458-.106.611a6.24,6.24,0,0,1,1.811.771,1.165,1.165,0,0,1-.458,1.854,2.705,2.705,0,0,1-2.449-.477c.145-.19.3-.373.447-.557.611.166,1.355.638,1.919.124-.157-.634-1.011-.572-1.488-.868A1.123,1.123,0,0,1,705.7,617.2Z" transform="translate(-704.92 -617.013)" fill="#fcf4f2"/>
  </g>
  <g id="_98060fff" data-name="#98060fff" transform="translate(57.97 34.841)">
    <path id="Caminho_66" data-name="Caminho 66" d="M622,621.02c.516.054,1.032.118,1.546.207-.039.284-.062.574-.127.854a3.938,3.938,0,0,1-1.458.159C621.97,621.832,621.981,621.424,622,621.02Z" transform="translate(-621.96 -621.02)" fill="#98060f"/>
  </g>
  <g id="_97050eff" data-name="#97050eff" transform="translate(63.384 34.843)">
    <path id="Caminho_67" data-name="Caminho 67" d="M650,621.03c.533.085,1.606-.089,1.539.742-.135.677-1.069.4-1.573.474Q649.982,621.637,650,621.03Z" transform="translate(-649.97 -621.03)" fill="#97050e"/>
  </g>
  <g id="_a0020aff" data-name="#a0020aff" transform="translate(68.89 34.862)">
    <path id="Caminho_68" data-name="Caminho 68" d="M679.233,621.2a1.219,1.219,0,0,1,1.6,1.241,1.177,1.177,0,0,1-1.465,1.156A1.274,1.274,0,0,1,679.233,621.2Z" transform="translate(-678.452 -621.133)" fill="#a0020a"/>
  </g>
  <g id="_60161aff" data-name="#60161aff" transform="translate(35.862 39.201)">
    <path id="Caminho_69" data-name="Caminho 69" d="M507.58,643.586c1.251.021,2.5.1,3.754.062,10.115-.017,20.232.01,30.347-.012,4.225-.058,8.453.04,12.678-.056a1.124,1.124,0,0,1-.876.284c-15.083-.021-30.167,0-45.251-.01A.919.919,0,0,1,507.58,643.586Z" transform="translate(-507.58 -643.58)" fill="#60161a"/>
  </g>
</svg>
